<svg xmlns="http://www.w3.org/2000/svg" xmlns:xlink="http://www.w3.org/1999/xlink" width="82.5" height="82.5" viewBox="0 0 82.5 82.5"><defs><linearGradient id="a" x1="2.66" y1="61.21" x2="21.29" y2="61.21" gradientUnits="userSpaceOnUse"><stop offset="0" stop-color="#0c4196"/><stop offset="1" stop-color="#004ab5"/></linearGradient><linearGradient id="b" x1="61.21" y1="61.21" x2="79.84" y2="61.21" xlink:href="#a"/><linearGradient id="c" x1="26.62" y1="6.66" x2="55.9" y2="6.66" xlink:href="#a"/><linearGradient id="d" x1="26.62" y1="27.93" x2="55.9" y2="27.93" xlink:href="#a"/><linearGradient id="e" x1="26.62" y1="17.3" x2="55.9" y2="17.3" xlink:href="#a"/><linearGradient id="f" x1="29.28" y1="6.66" x2="31.94" y2="6.66" gradientUnits="userSpaceOnUse"><stop offset="0" stop-color="#28bbe4"/><stop offset="1" stop-color="#08d1ff"/></linearGradient><linearGradient id="g" x1="34.59" y1="6.66" x2="37.25" y2="6.66" xlink:href="#f"/><linearGradient id="h" x1="39.92" y1="6.66" x2="42.58" y2="6.66" xlink:href="#f"/><linearGradient id="i" x1="45.25" y1="6.66" x2="53.24" y2="6.66" xlink:href="#f"/><linearGradient id="j" x1="29.28" y1="17.3" x2="31.94" y2="17.3" xlink:href="#f"/><linearGradient id="k" x1="34.59" y1="17.3" x2="37.25" y2="17.3" xlink:href="#f"/><linearGradient id="l" x1="39.92" y1="17.3" x2="42.58" y2="17.3" xlink:href="#f"/><linearGradient id="m" x1="45.25" y1="17.3" x2="53.24" y2="17.3" xlink:href="#f"/><linearGradient id="n" x1="29.28" y1="27.95" x2="31.94" y2="27.95" xlink:href="#f"/><linearGradient id="o" x1="34.59" y1="27.95" x2="37.25" y2="27.95" xlink:href="#f"/><linearGradient id="p" x1="39.92" y1="27.95" x2="42.58" y2="27.95" xlink:href="#f"/><linearGradient id="q" x1="45.25" y1="27.95" x2="53.24" y2="27.95" xlink:href="#f"/><linearGradient id="r" x1="4" y1="47.91" x2="19.96" y2="47.91" xlink:href="#f"/><linearGradient id="s" x1="4" y1="54.55" x2="19.96" y2="54.55" xlink:href="#f"/><linearGradient id="t" x1="4" y1="61.21" x2="19.96" y2="61.21" xlink:href="#f"/><linearGradient id="u" x1="10.64" y1="74.51" x2="13.3" y2="74.51" xlink:href="#f"/><linearGradient id="v" x1="62.54" y1="47.91" x2="78.5" y2="47.91" xlink:href="#f"/><linearGradient id="w" x1="62.54" y1="54.55" x2="78.5" y2="54.55" xlink:href="#f"/><linearGradient id="x" x1="62.54" y1="61.21" x2="78.5" y2="61.21" xlink:href="#f"/><linearGradient id="y" x1="69.2" y1="74.51" x2="71.86" y2="74.51" xlink:href="#f"/></defs><title>Application Infrastructure</title><rect x="2.66" y="42.58" width="18.63" height="37.26" style="fill:url(#a)"/><rect x="61.21" y="42.58" width="18.63" height="37.26" style="fill:url(#b)"/><rect x="26.62" y="2.66" width="29.28" height="7.99" style="fill:url(#c)"/><rect x="26.62" y="23.94" width="29.28" height="7.99" style="fill:url(#d)"/><rect x="26.62" y="13.3" width="29.28" height="7.99" style="fill:url(#e)"/><path d="M58.55,39.92v12h-12v-4h-4V34.59h16V0H24V34.59h16V47.91h-4v4H24v-12H0V82.5H24V54.55h12v4H46.56v-4h12V82.5h24V39.92ZM21.29,79.84H2.66V42.58H21.29ZM26.62,2.66H55.9v8H26.62Zm0,10.64H55.9v8H26.62Zm0,18.63v-8H55.9v8Zm17.3,24H38.59V50.56h5.33Zm35.92,24H61.21V42.58H79.84Z" style="fill:#8dbbff"/><rect x="29.28" y="5.33" width="2.66" height="2.66" style="fill:url(#f)"/><rect x="34.59" y="5.33" width="2.66" height="2.66" style="fill:url(#g)"/><rect x="39.92" y="5.33" width="2.66" height="2.66" style="fill:url(#h)"/><rect x="45.25" y="5.33" width="7.99" height="2.66" style="fill:url(#i)"/><rect x="29.28" y="15.96" width="2.66" height="2.66" style="fill:url(#j)"/><rect x="34.59" y="15.96" width="2.66" height="2.66" style="fill:url(#k)"/><rect x="39.92" y="15.96" width="2.66" height="2.66" style="fill:url(#l)"/><rect x="45.25" y="15.96" width="7.99" height="2.66" style="fill:url(#m)"/><rect x="29.28" y="26.62" width="2.66" height="2.66" style="fill:url(#n)"/><rect x="34.59" y="26.62" width="2.66" height="2.66" style="fill:url(#o)"/><rect x="39.92" y="26.62" width="2.66" height="2.66" style="fill:url(#p)"/><rect x="45.25" y="26.62" width="7.99" height="2.66" style="fill:url(#q)"/><rect x="4" y="46.58" width="15.96" height="2.66" style="fill:url(#r)"/><rect x="4" y="53.22" width="15.96" height="2.66" style="fill:url(#s)"/><rect x="4" y="59.88" width="15.96" height="2.66" style="fill:url(#t)"/><rect x="10.64" y="73.18" width="2.66" height="2.66" style="fill:url(#u)"/><rect x="62.54" y="46.58" width="15.96" height="2.66" style="fill:url(#v)"/><rect x="62.54" y="53.22" width="15.96" height="2.66" style="fill:url(#w)"/><rect x="62.54" y="59.88" width="15.96" height="2.66" style="fill:url(#x)"/><rect x="69.2" y="73.18" width="2.66" height="2.66" style="fill:url(#y)"/></svg>