<svg xmlns="http://www.w3.org/2000/svg" xmlns:xlink="http://www.w3.org/1999/xlink" width="65.96" height="73.5" viewBox="0 0 65.96 73.5"><defs><linearGradient id="a" x1="10.94" y1="14.33" x2="33.08" y2="14.33" gradientUnits="userSpaceOnUse"><stop offset="0" stop-color="#0c4196"/><stop offset="1" stop-color="#004ab5"/></linearGradient><linearGradient id="b" x1="53.03" y1="50.38" x2="63.04" y2="50.38" xlink:href="#a"/><linearGradient id="c" x1="3.71" y1="56.7" x2="29.94" y2="56.7" gradientTransform="translate(45.02 4.71) rotate(45)" xlink:href="#a"/><linearGradient id="d" x1="14.06" y1="39.3" x2="58.42" y2="39.3" xlink:href="#a"/><linearGradient id="e" x1="8.38" y1="56.73" x2="26.11" y2="56.73" gradientUnits="userSpaceOnUse"><stop offset="0" stop-color="#28bbe4"/><stop offset="1" stop-color="#08d1ff"/></linearGradient></defs><title>general-service</title><path d="M64.35,49.1l-5.84-5.84,1.61-1.52a5.41,5.41,0,0,0,0-7.73,5.3,5.3,0,0,0-3.51-1.62,5.41,5.41,0,0,0-1.26-4.13,5.76,5.76,0,0,0-3.69-1.62,5.54,5.54,0,0,0-5.3-5.3,5.74,5.74,0,0,0-1.62-3.68A5.59,5.59,0,0,0,40.9,16,5.36,5.36,0,0,0,37,17.66l-2,2-6.29-6.29A6.59,6.59,0,0,0,27.42,5.8L23.56,1.94a6.7,6.7,0,0,0-8.81-.54,5.49,5.49,0,0,0-.36,1.44A1.38,1.38,0,0,0,14.85,4L19,8.13l-3.15,3.15L11.61,7.15a1.7,1.7,0,0,0-1.17-.45,1.57,1.57,0,0,0-1.08.54A6.7,6.7,0,0,0,9.91,16l3.87,3.87a6.89,6.89,0,0,0,7.55,1.35l1.25,1.26-2,2a16.74,16.74,0,0,0-5,10.33c-.36,3.6-1.89,5-2,5.12l-1.69,1.7-1.28-1.28a1.46,1.46,0,0,0-2.16,0l-8,8a1.46,1.46,0,0,0,0,2.16L23,73a1.52,1.52,0,0,0,2.16,0l8-8a1.47,1.47,0,0,0,0-2.16l-1.55-1.55,1.55-1.55c.09-.09,1.53-1.62,5.12-2a16.22,16.22,0,0,0,10.33-5l2.07-2,5.93,5.93a5.43,5.43,0,0,0,7.73,0A5.32,5.32,0,0,0,64.35,49.1ZM20.6,18.1a3.68,3.68,0,0,1-4.76-.36L12,13.88a3.65,3.65,0,0,1-1-3.15l3.68,3.69a1.46,1.46,0,0,0,2.16,0l5.3-5.3a1.46,1.46,0,0,0,0-2.16L18.44,3.28a4,4,0,0,1,3.15,1.08l3.86,3.86A3.68,3.68,0,0,1,25.81,13a1.54,1.54,0,0,0,.27,2.07c.09,0,.09.09.18.18l6.83,6.83-3.41,3.33-6.83-6.83-.18-.18A1.55,1.55,0,0,0,20.6,18.1Zm3.5,51.71L3.71,49.42l5.84-5.84L29.94,64ZM49.52,47.48l-3.23,3.23a14.18,14.18,0,0,1-8.36,4c-4.49.45-6.65,2.51-7,3l-1.47,1.47L14.06,43.78l1.51-1.52c.45-.35,2.51-2.51,3-7a13.47,13.47,0,0,1,3.95-8.36l2.16-2.16,3.15,3.15a1.48,1.48,0,0,0,.45,1.17,1.46,1.46,0,0,0,2.16,0l9-9a2.5,2.5,0,0,1,3.42,0,2.34,2.34,0,0,1,.45,2.7,1.47,1.47,0,0,0,2,2,2.3,2.3,0,0,1,2.7.45,2.34,2.34,0,0,1,.45,2.69,1.47,1.47,0,0,0,2,2,2.3,2.3,0,0,1,2.7.45c.63.63.54,2.16,0,3.15a1.47,1.47,0,0,0,2,2,2.3,2.3,0,0,1,2.69.45,2.38,2.38,0,0,1,0,3.42Zm12.85,7.28a2.5,2.5,0,0,1-3.41,0l-5.93-6,3.42-3.41,5.93,5.93A2.61,2.61,0,0,1,62.37,54.76Z" style="fill:#8dbbff"/><path d="M33.08,22.06l-3.41,3.33-6.83-6.83-.18-.18a1.55,1.55,0,0,0-2.07-.27,3.68,3.68,0,0,1-4.76-.36L12,13.88a3.65,3.65,0,0,1-1-3.15l3.68,3.69a1.46,1.46,0,0,0,2.16,0l5.3-5.3a1.46,1.46,0,0,0,0-2.16L18.44,3.28a4,4,0,0,1,3.15,1.08l3.86,3.86A3.68,3.68,0,0,1,25.81,13a1.54,1.54,0,0,0,.27,2.07c.09,0,.09.09.18.18Z" style="fill:url(#a)"/><path d="M62.37,54.76a2.5,2.5,0,0,1-3.41,0l-5.93-6,3.42-3.41,5.93,5.93A2.61,2.61,0,0,1,62.37,54.76Z" style="fill:url(#b)"/><rect x="12.69" y="42.28" width="8.26" height="28.84" transform="translate(-35.16 28.5) rotate(-45)" style="fill:url(#c)"/><path d="M58.42,37.6a2.46,2.46,0,0,1-.72,1.71l-8.18,8.17-3.23,3.23a14.18,14.18,0,0,1-8.36,4c-4.49.45-6.65,2.51-7,3l-1.47,1.47L14.06,43.78l1.51-1.52c.45-.35,2.51-2.51,3-7a13.47,13.47,0,0,1,3.95-8.36l2.16-2.16,3.15,3.15a1.48,1.48,0,0,0,.45,1.17,1.46,1.46,0,0,0,2.16,0l9-9a2.5,2.5,0,0,1,3.42,0,2.34,2.34,0,0,1,.45,2.7,1.47,1.47,0,0,0,2,2,2.3,2.3,0,0,1,2.7.45,2.34,2.34,0,0,1,.45,2.69,1.47,1.47,0,0,0,2,2,2.3,2.3,0,0,1,2.7.45c.63.63.54,2.16,0,3.15a1.47,1.47,0,0,0,2,2,2.3,2.3,0,0,1,2.69.45A2.45,2.45,0,0,1,58.42,37.6Z" style="fill:url(#d)"/><path d="M24.86,65.85a1.25,1.25,0,0,1-.9-.38L8.73,49.72A1.25,1.25,0,0,1,10.53,48L25.76,63.73a1.25,1.25,0,0,1-.9,2.12Z" style="fill:url(#e)"/></svg>