<svg xmlns="http://www.w3.org/2000/svg" xmlns:xlink="http://www.w3.org/1999/xlink" width="49.47" height="83.31" viewBox="0 0 49.47 83.31"><defs><linearGradient id="a" x1="16.92" y1="76.8" x2="32.54" y2="76.8" gradientUnits="userSpaceOnUse"><stop offset="0" stop-color="#28bbe4"/><stop offset="1" stop-color="#08d1ff"/></linearGradient><linearGradient id="b" x1="18.22" y1="6.51" x2="31.24" y2="6.51" xlink:href="#a"/><linearGradient id="c" x1="5.21" y1="41.66" x2="44.26" y2="41.66" xlink:href="#a"/><linearGradient id="d" x1="2.6" y1="76.8" x2="46.86" y2="76.8" gradientUnits="userSpaceOnUse"><stop offset="0" stop-color="#0c4196"/><stop offset="1" stop-color="#004ab5"/></linearGradient><linearGradient id="e" x1="2.6" y1="6.51" x2="46.86" y2="6.51" xlink:href="#d"/><linearGradient id="f" x1="5.13" y1="41.66" x2="45.8" y2="41.66" xlink:href="#d"/></defs><title>mobile-development</title><path d="M32.54,76.8a1.3,1.3,0,0,1-1.3,1.3h-13a1.3,1.3,0,1,1,0-2.6h13A1.3,1.3,0,0,1,32.54,76.8Z" style="fill:url(#a)"/><path d="M31.24,6.51a1.3,1.3,0,0,1-1.3,1.3H19.53a1.3,1.3,0,1,1,0-2.6H29.94A1.3,1.3,0,0,1,31.24,6.51Z" style="fill:url(#b)"/><path d="M24.73,33.58a8.08,8.08,0,1,0,8.08,8.08A8.08,8.08,0,0,0,24.73,33.58Zm0,13.55a5.47,5.47,0,1,1,5.47-5.47A5.48,5.48,0,0,1,24.73,47.13Zm0-13.55a8.08,8.08,0,1,0,8.08,8.08A8.08,8.08,0,0,0,24.73,33.58Zm0,13.55a5.47,5.47,0,1,1,5.47-5.47A5.48,5.48,0,0,1,24.73,47.13ZM41.56,36.64l-2-.29a14.55,14.55,0,0,0-.67-1.59l1.14-1.57A3.05,3.05,0,0,0,39.71,29l-2.65-2.6a3.15,3.15,0,0,0-4.18-.25l-1.53,1.16c-.43-.2-.87-.38-1.31-.53l-.29-2a3,3,0,0,0-3.11-2.7H22.82a3.09,3.09,0,0,0-3.11,2.67s-.23,1.62-.29,2a15.36,15.36,0,0,0-1.6.67L16.25,26.3c-.7-.51-2-1.65-4.14.33-.58.54-2.62,2.67-2.62,2.67a3.07,3.07,0,0,0-.26,4.19L10.4,35c-.2.43-.38.87-.53,1.31l-2,.29a3.06,3.06,0,0,0-2.69,3.13v3.8a3.06,3.06,0,0,0,2.7,3.13L9.86,47a14.88,14.88,0,0,0,.67,1.59L9.39,50.12a3.07,3.07,0,0,0,.35,4.18l2.66,2.61a3.14,3.14,0,0,0,4.19.24L18.11,56c.43.2.87.38,1.31.53.06.42.29,1.95.29,1.95a3.07,3.07,0,0,0,3.11,2.71h3.82a3.09,3.09,0,0,0,3.11-2.67c.1-.66.19-1.32.29-2a15.3,15.3,0,0,0,1.59-.67L33.18,57a3.14,3.14,0,0,0,4.21-.36L40,54a3.07,3.07,0,0,0,.26-4.19l-1.17-1.54c.2-.43.38-.87.54-1.31l2-.29a3.08,3.08,0,0,0,2.69-3.1V39.74A3.08,3.08,0,0,0,41.56,36.64Zm.09,6.94a.48.48,0,0,1-.47.53l-3.37.49a.3.3,0,0,0-.31.27,12.39,12.39,0,0,1-1.44,3.51.22.22,0,0,0,0,.29l2.08,2.72a.51.51,0,0,1,0,.79l-2.59,2.64a.54.54,0,0,1-.8.07l-2.76-2a.31.31,0,0,0-.28,0,12.64,12.64,0,0,1-3.79,1.59c-.17,0-.2.13-.22.26-.16,1.14-.33,2.27-.49,3.41a.48.48,0,0,1-.53.45H22.82a.48.48,0,0,1-.54-.47c-.16-1.13-.33-2.26-.49-3.38a.29.29,0,0,0-.25-.28A12.26,12.26,0,0,1,18.06,53a.44.44,0,0,0-.38,0c-.89.69-1.79,1.37-2.69,2.05a.53.53,0,0,1-.78,0l-2.66-2.61a.5.5,0,0,1-.06-.79c.67-.92,1.34-1.85,2-2.76a.23.23,0,0,0,0-.3,12.51,12.51,0,0,1-1.59-3.77c0-.17-.13-.21-.28-.23L8.28,44.1a.48.48,0,0,1-.47-.55v-3.8a.48.48,0,0,1,.47-.55l3.38-.49c.14,0,.24-.05.28-.23a12.54,12.54,0,0,1,1.45-3.55.22.22,0,0,0,0-.29c-.7-.91-1.39-1.81-2.08-2.72a.51.51,0,0,1,0-.79L14,28.47a.53.53,0,0,1,.76-.05q1.39,1,2.76,2a.35.35,0,0,0,.31,0,12.57,12.57,0,0,1,3.76-1.58.27.27,0,0,0,.24-.27c.16-1.14.32-2.27.49-3.4a.48.48,0,0,1,.54-.46h3.82a.48.48,0,0,1,.54.47c.17,1.13.34,2.26.49,3.38a.28.28,0,0,0,.26.28,12.35,12.35,0,0,1,3.48,1.42.43.43,0,0,0,.37,0c.89-.69,1.79-1.37,2.69-2.05a.53.53,0,0,1,.78,0l2.66,2.61a.5.5,0,0,1,.06.79c-.67.92-1.34,1.84-2,2.76a.22.22,0,0,0,0,.3,12.51,12.51,0,0,1,1.58,3.77c0,.17.13.21.28.23l3.38.49a.48.48,0,0,1,.47.53Zm-16.92-10a8.08,8.08,0,1,0,8.08,8.08A8.08,8.08,0,0,0,24.73,33.58Zm0,13.55a5.47,5.47,0,1,1,5.47-5.47A5.48,5.48,0,0,1,24.73,47.13Zm0-13.55a8.08,8.08,0,1,0,8.08,8.08A8.08,8.08,0,0,0,24.73,33.58Zm0,13.55a5.47,5.47,0,1,1,5.47-5.47A5.48,5.48,0,0,1,24.73,47.13Zm0-13.55a8.08,8.08,0,1,0,8.08,8.08A8.08,8.08,0,0,0,24.73,33.58Zm0,13.55a5.47,5.47,0,1,1,5.47-5.47A5.48,5.48,0,0,1,24.73,47.13Zm0-13.55a8.08,8.08,0,1,0,8.08,8.08A8.08,8.08,0,0,0,24.73,33.58Zm0,13.55a5.47,5.47,0,1,1,5.47-5.47A5.48,5.48,0,0,1,24.73,47.13Zm0-13.55a8.08,8.08,0,1,0,8.08,8.08A8.08,8.08,0,0,0,24.73,33.58Zm0,13.55a5.47,5.47,0,1,1,5.47-5.47A5.48,5.48,0,0,1,24.73,47.13Z" style="fill:url(#c)"/><path d="M44.19,0H5.28A5.24,5.24,0,0,0,0,5.21V78.1a5.24,5.24,0,0,0,5.28,5.21H44.19a5.24,5.24,0,0,0,5.28-5.21V5.21A5.24,5.24,0,0,0,44.19,0Zm2.67,78.1a2.64,2.64,0,0,1-2.67,2.6H5.28A2.64,2.64,0,0,1,2.6,78.1V72.9H46.86Zm0-7.81H2.6V13H46.86Zm0-59.88H2.6V5.21a2.64,2.64,0,0,1,2.67-2.6H44.19a2.64,2.64,0,0,1,2.67,2.6Z" style="fill:#8dbbff"/><path d="M2.6,72.9V78.1a2.64,2.64,0,0,0,2.67,2.6H44.19a2.64,2.64,0,0,0,2.67-2.6V72.9ZM31.24,78.1h-13a1.3,1.3,0,1,1,0-2.6h13a1.3,1.3,0,1,1,0,2.6Z" style="fill:url(#d)"/><path d="M44.19,2.61H5.28A2.64,2.64,0,0,0,2.6,5.21v5.21H46.86V5.21A2.64,2.64,0,0,0,44.19,2.61ZM29.94,7.81H19.53a1.3,1.3,0,1,1,0-2.6H29.94a1.3,1.3,0,1,1,0,2.6Z" style="fill:url(#e)"/><path d="M2.6,13V70.29H46.86V13ZM44.26,43.58a3.08,3.08,0,0,1-2.69,3.1l-2,.29c-.16.44-.34.88-.54,1.31l1.17,1.54A3.07,3.07,0,0,1,40,54l-2.58,2.63a3.14,3.14,0,0,1-4.21.36l-1.55-1.13a15.3,15.3,0,0,1-1.59.67c-.09.66-.19,1.32-.29,2a3.09,3.09,0,0,1-3.11,2.67H22.82a3.07,3.07,0,0,1-3.11-2.71s-.22-1.53-.29-1.95c-.44-.16-.88-.34-1.31-.53l-1.52,1.15a3.14,3.14,0,0,1-4.19-.24L9.74,54.3a3.07,3.07,0,0,1-.35-4.18l1.14-1.57A14.88,14.88,0,0,1,9.86,47l-1.95-.29a3.06,3.06,0,0,1-2.7-3.13v-3.8A3.06,3.06,0,0,1,7.9,36.63l2-.29c.16-.44.34-.88.53-1.31L9.23,33.5a3.07,3.07,0,0,1,.26-4.19s2-2.13,2.62-2.67c2.13-2,3.44-.84,4.14-.33l1.58,1.15a15.36,15.36,0,0,1,1.6-.67c.05-.36.29-2,.29-2a3.09,3.09,0,0,1,3.11-2.67h3.82a3,3,0,0,1,3.11,2.7l.29,2c.44.16.88.34,1.31.53l1.53-1.16a3.15,3.15,0,0,1,4.18.25L39.71,29a3.05,3.05,0,0,1,.36,4.19l-1.14,1.57a14.55,14.55,0,0,1,.67,1.59l2,.29a3.08,3.08,0,0,1,2.7,3.1Z" style="fill:url(#f)"/><path d="M41.19,39.21l-3.38-.49c-.15,0-.24-.05-.28-.23a12.51,12.51,0,0,0-1.58-3.77.22.22,0,0,1,0-.3c.68-.92,1.35-1.84,2-2.76a.5.5,0,0,0-.06-.79l-2.66-2.61a.53.53,0,0,0-.78,0c-.9.68-1.8,1.36-2.69,2.05a.43.43,0,0,1-.37,0,12.35,12.35,0,0,0-3.48-1.42.28.28,0,0,1-.26-.28c-.16-1.13-.32-2.26-.49-3.38a.48.48,0,0,0-.54-.47H22.82a.48.48,0,0,0-.54.46c-.17,1.14-.33,2.27-.49,3.4a.27.27,0,0,1-.24.27,12.57,12.57,0,0,0-3.76,1.58.35.35,0,0,1-.31,0q-1.37-1-2.76-2a.53.53,0,0,0-.76.05l-2.62,2.67a.51.51,0,0,0,0,.79c.69.91,1.38,1.82,2.08,2.72a.22.22,0,0,1,0,.29,12.54,12.54,0,0,0-1.45,3.55c0,.18-.13.21-.28.23l-3.38.49a.48.48,0,0,0-.47.55v3.8a.48.48,0,0,0,.47.55l3.38.49c.15,0,.24.05.28.23a12.51,12.51,0,0,0,1.59,3.77.23.23,0,0,1,0,.3c-.68.91-1.35,1.84-2,2.76a.5.5,0,0,0,.06.79L14.22,55a.53.53,0,0,0,.78,0c.89-.68,1.8-1.36,2.69-2.05a.44.44,0,0,1,.38,0,12.26,12.26,0,0,0,3.48,1.42.29.29,0,0,1,.25.28c.16,1.13.32,2.26.49,3.38a.48.48,0,0,0,.54.47h3.82a.48.48,0,0,0,.53-.45c.17-1.14.33-2.27.49-3.41,0-.14.05-.22.22-.26a12.64,12.64,0,0,0,3.79-1.59.31.31,0,0,1,.28,0l2.76,2a.54.54,0,0,0,.8-.07l2.59-2.64a.51.51,0,0,0,0-.79l-2.08-2.72a.22.22,0,0,1,0-.29,12.39,12.39,0,0,0,1.44-3.51.3.3,0,0,1,.31-.27l3.37-.49a.48.48,0,0,0,.47-.53V39.74A.48.48,0,0,0,41.19,39.21ZM24.73,49.74a8.08,8.08,0,1,1,8.08-8.08A8.08,8.08,0,0,1,24.73,49.74Z" style="fill:#0c4196"/><circle cx="24.73" cy="41.66" r="5.48" style="fill:#0c4196"/></svg>