<svg xmlns="http://www.w3.org/2000/svg" xmlns:xlink="http://www.w3.org/1999/xlink" width="84.18" height="74.34" viewBox="0 0 84.18 74.34"><defs><linearGradient id="a" x1="831.75" y1="-984.48" x2="840.61" y2="-984.48" gradientTransform="translate(1044.8 841.83) rotate(-90)" gradientUnits="userSpaceOnUse"><stop offset="0" stop-color="#0c4196"/><stop offset="1" stop-color="#004ab5"/></linearGradient><linearGradient id="b" x1="831.6" y1="-1020.78" x2="840.46" y2="-1020.78" xlink:href="#a"/><linearGradient id="c" x1="800.51" y1="-966.27" x2="809.37" y2="-966.27" xlink:href="#a"/><linearGradient id="d" x1="799.97" y1="-1039.16" x2="808.82" y2="-1039.16" xlink:href="#a"/><linearGradient id="e" x1="26.16" y1="37.27" x2="58.02" y2="37.04" gradientTransform="matrix(1, 0, 0, 1, 0, 0)" xlink:href="#a"/><linearGradient id="f" x1="768.7" y1="-984.27" x2="777.7" y2="-984.27" xlink:href="#a"/><linearGradient id="g" x1="768.72" y1="-1020.95" x2="777.58" y2="-1020.95" xlink:href="#a"/><linearGradient id="h" x1="34.81" y1="37.17" x2="49.37" y2="37.17" gradientUnits="userSpaceOnUse"><stop offset="0" stop-color="#28bbe4"/><stop offset="1" stop-color="#08d1ff"/></linearGradient></defs><title>Protocol Expertise</title><path d="M58.1,1.82a4.43,4.43,0,0,1,4.6,7.57l-.15.09a4.42,4.42,0,0,1-6.05-1.6,4.43,4.43,0,0,1,1.6-6.05Z" style="fill:url(#a)"/><path d="M21.8,2a4.43,4.43,0,0,1,6.05,1.6,4.32,4.32,0,0,1,.59,2,4.43,4.43,0,0,1-2.19,4.06l0,0A4.43,4.43,0,0,1,21.8,2Z" style="fill:url(#b)"/><path d="M76.42,33a4.43,4.43,0,1,1,.18,7.88,4.37,4.37,0,0,1-1.9-1.76,4.31,4.31,0,0,1-.6-2.13,4.42,4.42,0,0,1,2.2-3.92Z" style="fill:url(#c)"/><path d="M7.75,33.53a4.42,4.42,0,0,1,.17,7.69l-.05,0a4.43,4.43,0,1,1-.12-7.73Z" style="fill:url(#d)"/><path d="M58,37.07v.17A15.91,15.91,0,0,1,42.09,53.09h-.34A15.89,15.89,0,0,1,26.17,37.4c0-.05,0-.11,0-.16v-.09a15.84,15.84,0,0,1,7.76-13.71,16,16,0,0,1,7.82-2.21h.34A15.9,15.9,0,0,1,58,37.07Z" style="fill:url(#e)"/><path d="M62.86,64.81l.19.12a4.43,4.43,0,0,1,1.36,1.45,4.48,4.48,0,1,1-7.75,4.52A4.33,4.33,0,0,1,56,68.75a4.54,4.54,0,0,1,2.18-4l.06,0A4.36,4.36,0,0,1,62.86,64.81Z" style="fill:url(#f)"/><path d="M21.65,64.83a4.42,4.42,0,0,1,6,1.61,4.43,4.43,0,1,1-6.05-1.6Z" style="fill:url(#g)"/><path d="M25,37.55c0-.13,0-.26,0-.39A17.11,17.11,0,0,1,42,20h.18A17.12,17.12,0,0,1,59.23,37.16c0,.13,0,.26,0,.39l-2.43-.1c0-.1,0-.19,0-.29A14.69,14.69,0,0,0,42.17,22.44H42A14.69,14.69,0,0,0,27.38,37.16c0,.09,0,.19,0,.29Z" style="fill:#8dbbff"/><path d="M60.55,74.34a5.64,5.64,0,0,1-1.47-.2,5.78,5.78,0,0,1-3.47-2.64,5.56,5.56,0,0,1-.79-2.74,5.77,5.77,0,0,1,2.71-5l.12-.08a5.58,5.58,0,0,1,5.82.05l.24.15a5.63,5.63,0,0,1,1.74,1.86,5.7,5.7,0,0,1-2,7.77A5.55,5.55,0,0,1,60.55,74.34Zm-1.63-8.56-.07,0a3.34,3.34,0,0,0-1.6,2.9,3.13,3.13,0,0,0,.45,1.54,3.37,3.37,0,0,0,2,1.54,3.14,3.14,0,0,0,2.45-.34A3.28,3.28,0,0,0,63.36,67a3.23,3.23,0,0,0-1-1l-.17-.1A3.14,3.14,0,0,0,58.92,65.78Z" style="fill:#8dbbff"/><path d="M23.86,74.32a5.65,5.65,0,0,1-3-10.44l.25-.25h.21a5.63,5.63,0,0,1,7.4,2.21,5.65,5.65,0,0,1-4.87,8.48Zm-1.69-8.39A3.22,3.22,0,0,0,23,71.78a3.22,3.22,0,0,0,4-3h0a3.18,3.18,0,0,0-.43-1.73,3.21,3.21,0,0,0-4.38-1.17Z" style="fill:#8dbbff"/><path d="M78.54,42.53A5.66,5.66,0,0,1,76.08,42a5.64,5.64,0,0,1-3.19-5,5.64,5.64,0,0,1,2.8-5l.18-.1a5.64,5.64,0,1,1,2.66,10.62Zm0-8.87a3.22,3.22,0,0,0-1.54.4l-.07,0A3.22,3.22,0,0,0,75.32,37a3.13,3.13,0,0,0,.43,1.54,3.17,3.17,0,0,0,1.38,1.28h0a3.22,3.22,0,1,0,1.41-6.12Z" style="fill:#8dbbff"/><path d="M5.65,43.07a5.65,5.65,0,1,1,3-.84l-.15.09A5.62,5.62,0,0,1,5.65,43.07Zm0-8.86a3.22,3.22,0,1,0,1.55,6l.11-.06a3.21,3.21,0,0,0-1.66-6Z" style="fill:#8dbbff"/><path d="M60.31,11.29a5.63,5.63,0,0,1-3.07-.91h0A5.65,5.65,0,0,1,57.49.77a5.64,5.64,0,0,1,5.88,9.63l-.18.11A5.72,5.72,0,0,1,60.31,11.29ZM58.57,8.34a3.21,3.21,0,0,0,3.37.08l.06,0,.05,0a3.2,3.2,0,1,0-3.48,0Z" style="fill:#8dbbff"/><path d="M24,11.44a5.63,5.63,0,0,1-3.08-.92h0A5.64,5.64,0,0,1,21.19.92a5.64,5.64,0,0,1,5.69,9.74l-.14.07A5.62,5.62,0,0,1,24,11.44Zm-1.75-3a3.19,3.19,0,0,0,3.33.1l.11-.06a3.21,3.21,0,0,0,1.52-2.9,3.13,3.13,0,0,0-.43-1.44,3.21,3.21,0,1,0-4.54,4.31Z" style="fill:#8dbbff"/><rect x="58.19" y="35.82" width="15.76" height="2.43" transform="translate(-0.21 0.37) rotate(-0.32)" style="fill:#8dbbff"/><rect x="46.15" y="15.52" width="15.05" height="2.43" transform="matrix(0.49, -0.87, 0.87, 0.49, 12.95, 55.49)" style="fill:#8dbbff"/><rect x="22.41" y="56.64" width="15.34" height="2.43" transform="translate(-35.06 54.98) rotate(-60)" style="fill:#8dbbff"/><rect x="28.74" y="8.77" width="2.43" height="15.21" transform="translate(-4.18 16.67) rotate(-29.17)" style="fill:#8dbbff"/><rect x="52.84" y="50.21" width="2.43" height="15.72" transform="translate(-22.45 37.09) rotate(-31.72)" style="fill:#8dbbff"/><rect x="10.83" y="36.2" width="14.48" height="2.43" style="fill:#8dbbff"/><path d="M42.18,54.3h-.09a17,17,0,0,1-14.75-8.36A17.31,17.31,0,0,1,25,37.53l2.43-.05a14.88,14.88,0,0,0,2,7.23,14.56,14.56,0,0,0,12.66,7.17h.23A14.68,14.68,0,0,0,56.8,37.48l2.43.05A17.1,17.1,0,0,1,42.39,54.3Z" style="fill:#8dbbff"/><rect x="40.54" y="21.14" width="2.43" height="0.09" style="fill:#8dbbff"/><rect x="40.54" y="53.08" width="2.43" height="0.09" style="fill:#8dbbff"/><circle cx="42.09" cy="37.17" r="7.28" style="fill:url(#h)"/></svg>