<?xml version="1.0" encoding="utf-8"?>
<!-- Generator: Adobe Illustrator 22.0.1, SVG Export Plug-In . SVG Version: 6.00 Build 0)  -->
<svg version="1.1" id="Layer_1" xmlns="http://www.w3.org/2000/svg" xmlns:xlink="http://www.w3.org/1999/xlink" x="0px" y="0px"
	 width="723.3px" height="310.8px" viewBox="0 0 723.3 310.8" style="enable-background:new 0 0 723.3 310.8;" xml:space="preserve"
	>
<style type="text/css">
	.st0{clip-path:url(#SVGID_2_);}
	.st1{fill:#FFFFFF;}
	.st2{fill:#C2C3C6;}
	.st3{clip-path:url(#SVGID_2_);fill-rule:evenodd;clip-rule:evenodd;fill:#808285;}
	.st4{clip-path:url(#SVGID_2_);fill-rule:evenodd;clip-rule:evenodd;fill:#4DA246;}
	.st5{clip-path:url(#SVGID_2_);fill-rule:evenodd;clip-rule:evenodd;fill:#5EB346;}
	.st6{clip-path:url(#SVGID_2_);fill-rule:evenodd;clip-rule:evenodd;fill:#96C13D;}
	.st7{clip-path:url(#SVGID_2_);fill-rule:evenodd;clip-rule:evenodd;fill:#88C540;}
	.st8{clip-path:url(#SVGID_2_);fill-rule:evenodd;clip-rule:evenodd;fill:#478E41;}
	.st9{clip-path:url(#SVGID_2_);fill-rule:evenodd;clip-rule:evenodd;fill:#639A41;}
	.st10{clip-path:url(#SVGID_2_);fill-rule:evenodd;clip-rule:evenodd;fill:#619540;}
	.st11{clip-path:url(#SVGID_2_);fill-rule:evenodd;clip-rule:evenodd;fill:#80BE42;}
	.st12{clip-path:url(#SVGID_2_);fill-rule:evenodd;clip-rule:evenodd;fill:#8FC73F;}
	.st13{clip-path:url(#SVGID_2_);fill-rule:evenodd;clip-rule:evenodd;fill:#7FBF42;}
	.st14{clip-path:url(#SVGID_2_);fill-rule:evenodd;clip-rule:evenodd;fill:#AFC455;}
	.st15{clip-path:url(#SVGID_2_);fill-rule:evenodd;clip-rule:evenodd;fill:#839E4B;}
	.st16{clip-path:url(#SVGID_2_);fill-rule:evenodd;clip-rule:evenodd;fill:#67A443;}
	.st17{clip-path:url(#SVGID_2_);fill-rule:evenodd;clip-rule:evenodd;fill:#A2CD3A;}
	.st18{clip-path:url(#SVGID_2_);fill-rule:evenodd;clip-rule:evenodd;fill:#A6C943;}
	.st19{clip-path:url(#SVGID_2_);fill-rule:evenodd;clip-rule:evenodd;fill:#BAC668;}
	.st20{clip-path:url(#SVGID_2_);fill-rule:evenodd;clip-rule:evenodd;fill:#C9DB35;}
	.st21{clip-path:url(#SVGID_2_);fill-rule:evenodd;clip-rule:evenodd;fill:#C0D844;}
	.st22{clip-path:url(#SVGID_2_);fill-rule:evenodd;clip-rule:evenodd;fill:#E9EDA1;}
	.st23{clip-path:url(#SVGID_2_);fill-rule:evenodd;clip-rule:evenodd;fill:#F1F1A8;}
	.st24{clip-path:url(#SVGID_2_);fill-rule:evenodd;clip-rule:evenodd;fill:#BED630;}
	.st25{clip-path:url(#SVGID_2_);fill-rule:evenodd;clip-rule:evenodd;fill:#CBDB2F;}
	.st26{clip-path:url(#SVGID_2_);fill-rule:evenodd;clip-rule:evenodd;fill:#93BC3E;}
	.st27{clip-path:url(#SVGID_2_);fill-rule:evenodd;clip-rule:evenodd;fill:#A5CE39;}
	.st28{clip-path:url(#SVGID_2_);fill-rule:evenodd;clip-rule:evenodd;fill:#D5E15E;}
	.st29{clip-path:url(#SVGID_2_);fill-rule:evenodd;clip-rule:evenodd;fill:#72AC42;}
	.st30{clip-path:url(#SVGID_2_);fill-rule:evenodd;clip-rule:evenodd;fill:#75BF43;}
	.st31{clip-path:url(#SVGID_2_);fill-rule:evenodd;clip-rule:evenodd;fill:#5CB247;}
	.st32{clip-path:url(#SVGID_2_);fill-rule:evenodd;clip-rule:evenodd;fill:#6CBB45;}
	.st33{clip-path:url(#SVGID_2_);fill-rule:evenodd;clip-rule:evenodd;fill:#4CAA47;}
	.st34{clip-path:url(#SVGID_2_);fill-rule:evenodd;clip-rule:evenodd;fill:#75BC43;}
	.st35{clip-path:url(#SVGID_2_);fill-rule:evenodd;clip-rule:evenodd;fill:#67B445;}
	.st36{clip-path:url(#SVGID_2_);fill-rule:evenodd;clip-rule:evenodd;fill:#62B346;}
	.st37{clip-path:url(#SVGID_2_);fill-rule:evenodd;clip-rule:evenodd;fill:#74AB42;}
	.st38{clip-path:url(#SVGID_2_);fill-rule:evenodd;clip-rule:evenodd;fill:#6CA242;}
	.st39{clip-path:url(#SVGID_2_);fill-rule:evenodd;clip-rule:evenodd;fill:#439D46;}
	.st40{clip-path:url(#SVGID_2_);fill-rule:evenodd;clip-rule:evenodd;fill:#68B545;}
	.st41{clip-path:url(#SVGID_2_);fill-rule:evenodd;clip-rule:evenodd;fill:#51A145;}
	.st42{clip-path:url(#SVGID_2_);fill-rule:evenodd;clip-rule:evenodd;fill:#58A445;}
	.st43{clip-path:url(#SVGID_2_);fill-rule:evenodd;clip-rule:evenodd;fill:#0C7E3F;}
	.st44{clip-path:url(#SVGID_2_);fill-rule:evenodd;clip-rule:evenodd;fill:#187139;}
	.st45{clip-path:url(#SVGID_2_);fill-rule:evenodd;clip-rule:evenodd;fill:#298E44;}
	.st46{clip-path:url(#SVGID_2_);fill-rule:evenodd;clip-rule:evenodd;fill:#7AB042;}
	.st47{clip-path:url(#SVGID_2_);fill-rule:evenodd;clip-rule:evenodd;fill:#75B243;}
	.st48{clip-path:url(#SVGID_2_);fill-rule:evenodd;clip-rule:evenodd;fill:#688E3C;}
	.st49{clip-path:url(#SVGID_2_);fill-rule:evenodd;clip-rule:evenodd;fill:#A6C839;}
	.st50{clip-path:url(#SVGID_2_);fill-rule:evenodd;clip-rule:evenodd;fill:#699940;}
	.st51{clip-path:url(#SVGID_2_);fill-rule:evenodd;clip-rule:evenodd;fill:#3EA448;}
	.st52{clip-path:url(#SVGID_2_);fill-rule:evenodd;clip-rule:evenodd;fill:#1E9346;}
	.st53{clip-path:url(#SVGID_2_);fill-rule:evenodd;clip-rule:evenodd;fill:#17743B;}
	.st54{clip-path:url(#SVGID_2_);fill-rule:evenodd;clip-rule:evenodd;fill:#6EB044;}
	.st55{clip-path:url(#SVGID_2_);fill-rule:evenodd;clip-rule:evenodd;fill:#509D44;}
	.st56{clip-path:url(#SVGID_2_);fill-rule:evenodd;clip-rule:evenodd;fill:#3A9946;}
	.st57{clip-path:url(#SVGID_2_);fill-rule:evenodd;clip-rule:evenodd;fill:#72BF44;}
	.st58{clip-path:url(#SVGID_2_);fill-rule:evenodd;clip-rule:evenodd;fill:#69AC44;}
	.st59{clip-path:url(#SVGID_2_);fill-rule:evenodd;clip-rule:evenodd;fill:#185329;}
	.st60{clip-path:url(#SVGID_2_);fill-rule:evenodd;clip-rule:evenodd;fill:#185C2E;}
	.st61{clip-path:url(#SVGID_2_);fill-rule:evenodd;clip-rule:evenodd;fill:#3A8C42;}
	.st62{clip-path:url(#SVGID_2_);fill-rule:evenodd;clip-rule:evenodd;fill:#126433;}
	.st63{clip-path:url(#SVGID_2_);fill-rule:evenodd;clip-rule:evenodd;fill:#176A36;}
	.st64{clip-path:url(#SVGID_2_);fill-rule:evenodd;clip-rule:evenodd;fill:#3A8F43;}
	.st65{clip-path:url(#SVGID_2_);fill-rule:evenodd;clip-rule:evenodd;fill:#136031;}
	.st66{clip-path:url(#SVGID_2_);fill-rule:evenodd;clip-rule:evenodd;fill:#086936;}
	.st67{clip-path:url(#SVGID_2_);fill-rule:evenodd;clip-rule:evenodd;fill:#117D3F;}
	.st68{clip-path:url(#SVGID_2_);fill-rule:evenodd;clip-rule:evenodd;fill:#0E8943;}
	.st69{clip-path:url(#SVGID_2_);fill-rule:evenodd;clip-rule:evenodd;fill:#17723A;}
	.st70{clip-path:url(#SVGID_2_);fill-rule:evenodd;clip-rule:evenodd;fill:#0E542A;}
	.st71{clip-path:url(#SVGID_2_);fill-rule:evenodd;clip-rule:evenodd;fill:#31823F;}
	.st72{clip-path:url(#SVGID_2_);fill-rule:evenodd;clip-rule:evenodd;fill:#62893F;}
	.st73{clip-path:url(#SVGID_2_);fill-rule:evenodd;clip-rule:evenodd;fill:#4D813B;}
	.st74{clip-path:url(#SVGID_2_);fill-rule:evenodd;clip-rule:evenodd;fill:#1A5329;}
	.st75{clip-path:url(#SVGID_2_);fill-rule:evenodd;clip-rule:evenodd;fill:#2B7A3C;}
	.st76{clip-path:url(#SVGID_2_);fill-rule:evenodd;clip-rule:evenodd;fill:#06582D;}
	.st77{clip-path:url(#SVGID_2_);fill-rule:evenodd;clip-rule:evenodd;fill:#336C35;}
	.st78{clip-path:url(#SVGID_2_);fill-rule:evenodd;clip-rule:evenodd;fill:#2A5E2E;}
	.st79{clip-path:url(#SVGID_2_);fill-rule:evenodd;clip-rule:evenodd;fill:#096031;}
	.st80{clip-path:url(#SVGID_2_);fill-rule:evenodd;clip-rule:evenodd;fill:#14562B;}
	.st81{clip-path:url(#SVGID_2_);fill-rule:evenodd;clip-rule:evenodd;fill:#24733A;}
	.st82{clip-path:url(#SVGID_2_);fill-rule:evenodd;clip-rule:evenodd;fill:#79AF42;}
	.st83{clip-path:url(#SVGID_2_);fill-rule:evenodd;clip-rule:evenodd;fill:#07783D;}
	.st84{clip-path:url(#SVGID_2_);fill-rule:evenodd;clip-rule:evenodd;fill:#3B9F47;}
	.st85{clip-path:url(#SVGID_2_);fill-rule:evenodd;clip-rule:evenodd;fill:#2F8D43;}
	.st86{clip-path:url(#SVGID_2_);fill-rule:evenodd;clip-rule:evenodd;fill:#1C6F38;}
	.st87{clip-path:url(#SVGID_2_);fill-rule:evenodd;clip-rule:evenodd;fill:#156534;}
	.st88{clip-path:url(#SVGID_2_);fill-rule:evenodd;clip-rule:evenodd;fill:#1F8240;}
	.st89{clip-path:url(#SVGID_2_);fill-rule:evenodd;clip-rule:evenodd;fill:#279245;}
	.st90{clip-path:url(#SVGID_2_);fill-rule:evenodd;clip-rule:evenodd;fill:#459A45;}
	.st91{clip-path:url(#SVGID_2_);fill-rule:evenodd;clip-rule:evenodd;fill:#25793C;}
	.st92{clip-path:url(#SVGID_2_);fill-rule:evenodd;clip-rule:evenodd;fill:#2F9245;}
	.st93{clip-path:url(#SVGID_2_);fill-rule:evenodd;clip-rule:evenodd;fill:#4B8A3F;}
	.st94{clip-path:url(#SVGID_2_);fill-rule:evenodd;clip-rule:evenodd;fill:#44843E;}
	.st95{clip-path:url(#SVGID_2_);fill-rule:evenodd;clip-rule:evenodd;fill:#4EA647;}
	.st96{clip-path:url(#SVGID_2_);fill-rule:evenodd;clip-rule:evenodd;fill:#185E30;}
	.st97{clip-path:url(#SVGID_2_);fill-rule:evenodd;clip-rule:evenodd;fill:#54B047;}
	.st98{clip-path:url(#SVGID_2_);fill-rule:evenodd;clip-rule:evenodd;fill:#9DB943;}
	.st99{clip-path:url(#SVGID_2_);fill-rule:evenodd;clip-rule:evenodd;fill:#94C53D;}
	.st100{clip-path:url(#SVGID_2_);fill-rule:evenodd;clip-rule:evenodd;fill:#66A643;}
	.st101{clip-path:url(#SVGID_2_);fill-rule:evenodd;clip-rule:evenodd;fill:#87C540;}
	.st102{clip-path:url(#SVGID_2_);fill-rule:evenodd;clip-rule:evenodd;fill:#52AC47;}
	.st103{clip-path:url(#SVGID_2_);fill-rule:evenodd;clip-rule:evenodd;fill:#63B045;}
	.st104{clip-path:url(#SVGID_2_);fill-rule:evenodd;clip-rule:evenodd;fill:#74BE44;}
	.st105{clip-path:url(#SVGID_2_);fill-rule:evenodd;clip-rule:evenodd;fill:#AAD047;}
	.st106{clip-path:url(#SVGID_2_);fill-rule:evenodd;clip-rule:evenodd;fill:#C6DD72;}
	.st107{clip-path:url(#SVGID_2_);fill-rule:evenodd;clip-rule:evenodd;fill:#94BB3E;}
	.st108{clip-path:url(#SVGID_2_);fill-rule:evenodd;clip-rule:evenodd;fill:#6BB044;}
	.st109{clip-path:url(#SVGID_2_);fill-rule:evenodd;clip-rule:evenodd;fill:#5BA945;}
	.st110{clip-path:url(#SVGID_2_);fill-rule:evenodd;clip-rule:evenodd;fill:#59A345;}
	.st111{clip-path:url(#SVGID_2_);fill-rule:evenodd;clip-rule:evenodd;fill:#6DA943;}
	.st112{clip-path:url(#SVGID_2_);fill-rule:evenodd;clip-rule:evenodd;fill:#88C140;}
	.st113{clip-path:url(#SVGID_2_);fill-rule:evenodd;clip-rule:evenodd;fill:#79C143;}
	.st114{clip-path:url(#SVGID_2_);fill-rule:evenodd;clip-rule:evenodd;fill:#AAD042;}
	.st115{clip-path:url(#SVGID_2_);fill-rule:evenodd;clip-rule:evenodd;fill:#EDEDCB;}
	.st116{clip-path:url(#SVGID_2_);fill-rule:evenodd;clip-rule:evenodd;fill:#B8C480;}
	.st117{clip-path:url(#SVGID_2_);fill-rule:evenodd;clip-rule:evenodd;fill:#BBC56D;}
	.st118{clip-path:url(#SVGID_2_);fill-rule:evenodd;clip-rule:evenodd;fill:#CEDF70;}
	.st119{clip-path:url(#SVGID_2_);fill-rule:evenodd;clip-rule:evenodd;fill:#8DC63F;}
	.st120{clip-path:url(#SVGID_2_);fill-rule:evenodd;clip-rule:evenodd;fill:#83C241;}
	.st121{clip-path:url(#SVGID_2_);fill-rule:evenodd;clip-rule:evenodd;fill:#A4BB3A;}
	.st122{clip-path:url(#SVGID_2_);fill-rule:evenodd;clip-rule:evenodd;fill:#DEE565;}
	.st123{clip-path:url(#SVGID_2_);fill-rule:evenodd;clip-rule:evenodd;fill:#D7E15F;}
	.st124{clip-path:url(#SVGID_2_);fill-rule:evenodd;clip-rule:evenodd;fill:#ABD037;}
	.st125{clip-path:url(#SVGID_2_);fill-rule:evenodd;clip-rule:evenodd;fill:#B3C935;}
	.st126{clip-path:url(#SVGID_2_);fill-rule:evenodd;clip-rule:evenodd;fill:#B3B874;}
	.st127{clip-path:url(#SVGID_2_);fill-rule:evenodd;clip-rule:evenodd;fill:#AFB94A;}
	.st128{clip-path:url(#SVGID_2_);fill-rule:evenodd;clip-rule:evenodd;fill:#B2BD65;}
	.st129{clip-path:url(#SVGID_2_);fill-rule:evenodd;clip-rule:evenodd;fill:#BBC188;}
	.st130{clip-path:url(#SVGID_2_);fill-rule:evenodd;clip-rule:evenodd;fill:#9DB758;}
	.st131{clip-path:url(#SVGID_2_);fill-rule:evenodd;clip-rule:evenodd;fill:#AFBF77;}
	.st132{clip-path:url(#SVGID_2_);fill-rule:evenodd;clip-rule:evenodd;fill:#A3BA52;}
	.st133{clip-path:url(#SVGID_2_);fill-rule:evenodd;clip-rule:evenodd;fill:#7FAB40;}
	.st134{clip-path:url(#SVGID_2_);fill-rule:evenodd;clip-rule:evenodd;fill:#195128;}
	.st135{clip-path:url(#SVGID_2_);fill-rule:evenodd;clip-rule:evenodd;fill:#3A8D42;}
	.st136{clip-path:url(#SVGID_2_);fill-rule:evenodd;clip-rule:evenodd;fill:#257B3D;}
	.st137{clip-path:url(#SVGID_2_);fill-rule:evenodd;clip-rule:evenodd;fill:#7D453C;}
	.st138{clip-path:url(#SVGID_2_);fill-rule:evenodd;clip-rule:evenodd;fill:#0F341C;}
	.st139{clip-path:url(#SVGID_2_);fill-rule:evenodd;clip-rule:evenodd;fill:#0D2114;}
	.st140{clip-path:url(#SVGID_2_);fill-rule:evenodd;clip-rule:evenodd;fill:#270F0D;}
	.st141{clip-path:url(#SVGID_2_);fill-rule:evenodd;clip-rule:evenodd;fill:#5B1715;}
	.st142{clip-path:url(#SVGID_2_);fill-rule:evenodd;clip-rule:evenodd;fill:#43201C;}
	.st143{clip-path:url(#SVGID_2_);fill-rule:evenodd;clip-rule:evenodd;fill:#8F564A;}
	.st144{clip-path:url(#SVGID_2_);fill-rule:evenodd;clip-rule:evenodd;fill:#521C1A;}
	.st145{clip-path:url(#SVGID_2_);fill-rule:evenodd;clip-rule:evenodd;fill:#270E0E;}
	.st146{clip-path:url(#SVGID_2_);fill-rule:evenodd;clip-rule:evenodd;fill:#5B1B1D;}
	.st147{clip-path:url(#SVGID_2_);fill-rule:evenodd;clip-rule:evenodd;fill:#512721;}
	.st148{clip-path:url(#SVGID_2_);fill-rule:evenodd;clip-rule:evenodd;fill:#9B5E4D;}
	.st149{clip-path:url(#SVGID_2_);fill-rule:evenodd;clip-rule:evenodd;fill:#441615;}
	.st150{clip-path:url(#SVGID_2_);fill-rule:evenodd;clip-rule:evenodd;fill:#301814;}
	.st151{clip-path:url(#SVGID_2_);fill-rule:evenodd;clip-rule:evenodd;fill:#541717;}
	.st152{clip-path:url(#SVGID_2_);fill-rule:evenodd;clip-rule:evenodd;fill:#642F29;}
	.st153{clip-path:url(#SVGID_2_);fill-rule:evenodd;clip-rule:evenodd;fill:#22451F;}
	.st154{clip-path:url(#SVGID_2_);fill-rule:evenodd;clip-rule:evenodd;fill:#32582A;}
	.st155{clip-path:url(#SVGID_4_);fill:url(#SVGID_5_);}
	.st156{clip-path:url(#SVGID_7_);fill:url(#SVGID_8_);}
	.st157{clip-path:url(#SVGID_10_);fill:url(#SVGID_11_);}
	.st158{clip-path:url(#SVGID_13_);fill:url(#SVGID_14_);}
	.st159{clip-path:url(#SVGID_16_);fill:url(#SVGID_17_);}
	.st160{clip-path:url(#SVGID_19_);fill:url(#SVGID_20_);}
	.st161{clip-path:url(#SVGID_22_);}
</style>
<g>
	<defs>
		<rect id="SVGID_1_" width="723.3" height="310.8"/>
	</defs>
	<clipPath id="SVGID_2_">
		<use xlink:href="#SVGID_1_"  style="overflow:visible;"/>
	</clipPath>
	<g class="st0">
		<path class="st1" d="M43.1,177.9l0.1,10.5v71.4c-2.5,0.5-5.5,0.7-9.1,0.7c-3.6,0-6.6-0.2-8.9-0.7v-81.9l-8.5,0.1h-16
			c-0.5-2.2-0.7-4.7-0.7-7.4c0-2.8,0.2-5.3,0.7-7.6h67c0.7,2.4,1,4.8,1,7.4c0,2.6-0.8,4.5-2.3,5.7c-1.6,1.2-4,1.8-7.4,1.8h-7.2
			l-8.5-0.1H43.1z"/>
		<path class="st1" d="M136.8,212.3v31.4c0,5.8,0.9,10.2,2.8,13.3c-2.9,2.5-6.4,3.7-10.3,3.7c-3.9,0-6.6-0.9-8-2.7
			c-1.4-1.8-2.1-4.6-2.1-8.4v-33.6c0-4.3-0.5-7.4-1.6-9.3c-1.1-1.8-3.1-2.8-6-2.8c-5.4,0-10.4,2.5-15,7.4v48.3
			c-2.6,0.5-5.5,0.7-8.4,0.7c-3,0-5.9-0.2-8.7-0.7V156.5l1-1h6.7c3.6,0,6.1,0.8,7.4,2.5c1.4,1.7,2.1,4.5,2.1,8.4v30.7
			c6.7-5.9,13.5-8.8,20.3-8.8c6.8,0,11.8,2.2,15.1,6.6C135.2,199.4,136.8,205.1,136.8,212.3"/>
		<path class="st1" d="M176.3,203.3v56.5c-2.6,0.5-5.5,0.7-8.6,0.7c-3.1,0-6.1-0.2-8.9-0.7v-50c0-5.1-2.1-7.6-6.4-7.6h-1.7
			c-0.5-1.6-0.7-3.6-0.7-6.1c0-2.5,0.2-4.6,0.7-6.4c3.4-0.4,6.8-0.6,10.3-0.6h2.3c4.1,0,7.2,1.3,9.6,3.8
			C175.2,195.5,176.3,198.9,176.3,203.3 M155.8,176.8c-0.9-2.2-1.4-4.5-1.4-7c0-2.5,0.5-4.8,1.4-7c2.5-1.3,5.5-2,9.1-2
			c3.6,0,6.5,0.7,8.7,2c0.9,2.2,1.4,4.5,1.4,7c0,2.5-0.5,4.8-1.4,7c-2.2,1.3-5.2,2-9.1,2C160.6,178.8,157.7,178.1,155.8,176.8"/>
		<path class="st1" d="M254.1,212.3v31.4c0,5.8,0.9,10.2,2.8,13.3c-3.1,2.5-6.6,3.7-10.4,3.7c-3.8,0-6.4-0.9-7.9-2.7
			c-1.4-1.8-2.1-4.6-2.1-8.4V216c0-4.3-0.6-7.3-1.7-9.1c-1.1-1.8-3.2-2.8-6.1-2.8c-5.4,0-10.3,2.4-14.9,7.1v48.6
			c-2.6,0.5-5.5,0.7-8.6,0.7c-3.1,0-6.1-0.2-8.9-0.7v-70.1l1-0.8h6.5c5.4,0,8.6,2.8,9.6,8.5c6.9-6,13.8-9.1,20.6-9.1
			c6.8,0,11.9,2.2,15.2,6.7C252.5,199.3,254.1,205.1,254.1,212.3"/>
		<path class="st1" d="M322.9,232.7l4.2,11.2c2.1,5.9,4.3,9.8,6.8,11.5c-3.2,3.6-7.1,5.4-11.8,5.4c-2.7,0-4.8-0.7-6.2-2
			c-1.4-1.3-2.7-3.6-3.9-6.8l-5.1-13.3c-1.3-3.4-2.7-5.7-4.2-6.8c-1.5-1.1-3.2-1.7-5.3-1.7c-2.1,0-4.3,0.1-6.8,0.3v29.3
			c-2.6,0.5-5.5,0.7-8.4,0.7c-3,0-5.9-0.2-8.7-0.7V156.5l1-1h6.7c3.6,0,6.1,0.8,7.4,2.5c1.4,1.7,2.1,4.5,2.1,8.4v49.4l3.8-0.1
			c1.4,0,2.6-0.8,3.7-2.3l10.3-17.4c2.6-4.6,6.1-6.9,10.5-6.9c4.3,0,7.6,0,9.8,0.1l0.8,1.1L316,213.6c-1.7,2.9-3.6,5.1-5.7,6.5
			C316.1,221.9,320.3,226.1,322.9,232.7"/>
		<path class="st1" d="M514.7,177.9l0.1,10.5v71.4c-2.5,0.5-5.5,0.7-9.1,0.7c-3.6,0-6.6-0.2-8.9-0.7v-81.9l-8.5,0.1h-16
			c-0.5-2.2-0.7-4.7-0.7-7.4c0-2.8,0.2-5.3,0.7-7.6h67c0.7,2.4,1,4.8,1,7.4c0,2.6-0.8,4.5-2.3,5.7c-1.6,1.2-4,1.8-7.4,1.8h-7.2
			l-8.5-0.1H514.7z"/>
		<path class="st1" d="M540.3,197.7c0.4-1.6,1.2-3.3,2.3-5.2c1.2-1.8,2.4-3.2,3.6-4c7.4,1.1,12.3,5.3,14.9,12.6
			c3.8-8.4,9.9-12.6,18.3-12.6c2.2,0,4.9,0.3,8.2,1c0,6.1-1.4,11.6-4.2,16.4c-1.4-0.4-3.5-0.7-6.4-0.9c-5.8,0-10.4,3.1-13.9,9.2
			v45.5c-2.6,0.5-5.5,0.7-8.6,0.7c-3.1,0-6.1-0.2-8.9-0.7v-47.4C545.6,205.4,543.8,200.6,540.3,197.7"/>
		<path class="st1" d="M651.2,230.3h-39.7c0.3,5.6,1.5,9.9,3.8,13c2.2,3.1,6.1,4.6,11.7,4.6c5.6,0,11.8-1.7,18.6-5
			c2.6,2.5,4.3,6.1,5.1,10.8c-7.6,5.4-16.6,8.1-27.3,8.1c-10.6,0-18.2-3.4-22.9-10.3c-4.6-6.9-6.9-15.8-6.9-26.8
			c0-11,2.6-19.9,7.6-26.8c5.1-6.9,12.4-10.3,21.9-10.3c9.5,0,16.8,2.9,21.9,8.6c5.1,5.7,7.6,12.9,7.6,21.6
			C652.7,222,652.2,226.3,651.2,230.3 M623.9,200.3c-7.7,0-11.9,5.9-12.5,17.6h24.6v-1.7c0-4.7-1-8.5-3-11.5
			C631.1,201.7,628.1,200.3,623.9,200.3"/>
		<path class="st1" d="M721.9,230.3h-39.7c0.3,5.6,1.5,9.9,3.8,13c2.2,3.1,6.1,4.6,11.7,4.6c5.6,0,11.8-1.7,18.6-5
			c2.6,2.5,4.3,6.1,5.1,10.8c-7.6,5.4-16.6,8.1-27.3,8.1c-10.6,0-18.2-3.4-22.9-10.3c-4.6-6.9-6.9-15.8-6.9-26.8
			c0-11,2.5-19.9,7.7-26.8c5.1-6.9,12.4-10.3,21.9-10.3c9.5,0,16.8,2.9,21.9,8.6c5.1,5.7,7.6,12.9,7.6,21.6
			C723.3,222,722.9,226.3,721.9,230.3 M694.6,200.3c-7.7,0-11.9,5.9-12.5,17.6h24.6v-1.7c0-4.7-1-8.5-3-11.5
			C701.8,201.7,698.7,200.3,694.6,200.3"/>
	</g>
	<g class="st0">
		<path class="st2" d="M368.8,307.1c0.1-1.1,0.6-2,1.6-2.8c3.2,2.2,6.4,3.3,9.7,3.3c2.3,0,4.2-0.5,5.6-1.5c1.4-1,2.1-2.3,2.1-4
			c0-2.6-1.8-4.7-5.3-6.2l-5.7-2.5c-4.3-1.9-6.4-4.5-6.4-8c0-2.5,0.9-4.6,2.8-6.3c1.9-1.7,4.4-2.6,7.5-2.6c3.1,0,6.3,0.8,9.5,2.3
			c0.1,1.1-0.4,2.1-1.4,2.9c-2.9-1.5-5.5-2.2-7.7-2.2c-2.2,0-4,0.5-5.3,1.6c-1.3,1-2,2.4-2,4.1c0,2.1,1.6,3.9,4.8,5.3l5.5,2.4
			c4.8,2.1,7.2,4.9,7.2,8.6c0,2.8-1,5-2.9,6.7c-1.9,1.7-4.8,2.5-8.7,2.5C375.7,310.8,372.1,309.6,368.8,307.1"/>
		<path class="st2" d="M438.6,280.1l-2.6,0v30.1c-0.5,0.1-1.1,0.1-1.7,0.1s-1.2,0-1.7-0.1v-30.1l-2.6,0h-6.3c-0.1-0.5-0.1-1-0.1-1.4
			s0-1,0.1-1.5h21.1c0.2,0.5,0.2,1,0.2,1.4c0,1-0.7,1.5-2.1,1.5H438.6z"/>
		<path class="st2" d="M502.6,277.2V299c0,3.8-1.1,6.8-3.2,8.8c-2.1,2-4.9,3-8.4,3c-3.5,0-6.3-1-8.4-3c-2.1-2-3.2-4.9-3.2-8.7v-21.6
			l0.3-0.3h1.4c0.7,0,1.2,0.2,1.4,0.5c0.2,0.3,0.3,0.9,0.3,1.7v19.7c0,2.9,0.7,5.1,2.1,6.7c1.4,1.5,3.5,2.3,6.1,2.3
			c2.6,0,4.6-0.8,6.1-2.3c1.4-1.5,2.1-3.8,2.1-6.7v-21.7c0.4-0.1,1-0.1,1.7-0.1C501.6,277.1,502.2,277.1,502.6,277.2"/>
		<path class="st2" d="M562.8,285.4c0.7,2.3,1,5.1,1,8.3c0,3.2-0.3,6-1,8.3c-0.7,2.3-2,4.3-3.9,5.9c-0.9,0.8-2.2,1.4-3.7,1.8
			c-1.5,0.4-2.9,0.6-4,0.6s-4.4-0.1-10-0.2l-0.3-0.3v-32.4l0.3-0.3c2.8-0.1,6-0.1,9.7-0.1c1.4,0,2.8,0.2,4.3,0.6
			c1.5,0.4,2.8,1,3.7,1.8C560.8,281.2,562.1,283.1,562.8,285.4 M544.3,307.4l6.5,0c1.6,0,3-0.3,4.1-0.8c1.2-0.6,2.1-1.3,2.8-2.1
			c0.7-0.9,1.2-2,1.6-3.2c0.4-1.3,0.7-2.5,0.8-3.7c0.1-1.2,0.2-2.4,0.2-3.9s-0.1-2.7-0.2-3.9c-0.1-1.2-0.4-2.4-0.8-3.7
			c-0.4-1.3-0.9-2.3-1.6-3.2c-0.7-0.9-1.6-1.6-2.8-2.1c-1.2-0.6-2.6-0.8-4.1-0.8l-6.5,0V307.4z"/>
		<path class="st2" d="M600.7,310.2v-33c0.4-0.1,1-0.1,1.7-0.1s1.3,0,1.8,0.1v33c-0.5,0.1-1.1,0.1-1.7,0.1
			C601.7,310.3,601.2,310.3,600.7,310.2"/>
		<path class="st2" d="M641,293.7c0-2.9,0.4-5.6,1.3-8.1c0.8-2.5,2.1-4.6,3.9-6.1c2.1-1.9,4.7-2.8,7.8-2.8c3.1,0,5.7,0.9,7.8,2.8
			c1.7,1.5,3,3.6,3.9,6.1c0.8,2.5,1.3,5.3,1.3,8.1c0,6.5-1.7,11.2-5.1,14.3c-2,1.9-4.6,2.8-7.8,2.8c-3.1,0-5.8-0.9-7.8-2.8
			C642.7,304.9,641,300.1,641,293.7 M645,288.7c-0.3,1.5-0.4,3.2-0.4,4.9c0,1.7,0.1,3.4,0.4,4.9c0.3,1.5,0.7,3.1,1.4,4.5
			c0.7,1.5,1.6,2.6,2.9,3.5c1.3,0.9,2.8,1.3,4.6,1.3c1.8,0,3.3-0.4,4.6-1.3c1.3-0.9,2.2-2,2.9-3.5c0.6-1.5,1.1-3,1.4-4.5
			c0.3-1.5,0.4-3.2,0.4-4.9c0-1.7-0.1-3.4-0.4-4.9c-0.3-1.5-0.7-3-1.4-4.5c-0.6-1.5-1.6-2.6-2.9-3.5c-1.3-0.9-2.8-1.3-4.6-1.3
			c-1.8,0-3.3,0.4-4.6,1.3c-1.3,0.9-2.2,2-2.9,3.5C645.7,285.7,645.3,287.2,645,288.7"/>
		<path class="st2" d="M700.6,307.1c0.1-1.1,0.6-2,1.6-2.8c3.2,2.2,6.4,3.3,9.7,3.3c2.3,0,4.2-0.5,5.6-1.5c1.4-1,2.1-2.3,2.1-4
			c0-2.6-1.8-4.7-5.3-6.2l-5.7-2.5c-4.3-1.9-6.4-4.5-6.4-8c0-2.5,0.9-4.6,2.8-6.3c1.9-1.7,4.4-2.6,7.5-2.6c3.1,0,6.3,0.8,9.5,2.3
			c0.1,1.1-0.4,2.1-1.3,2.9c-2.9-1.5-5.5-2.2-7.7-2.2c-2.2,0-4,0.5-5.3,1.6c-1.3,1-2,2.4-2,4.1c0,2.1,1.6,3.9,4.8,5.3l5.5,2.4
			c4.8,2.1,7.2,4.9,7.2,8.6c0,2.8-1,5-2.9,6.7c-1.9,1.7-4.8,2.5-8.7,2.5C707.5,310.8,703.9,309.6,700.6,307.1"/>
	</g>
	<polyline class="st3" points="361.8,259.9 452,264.1 386.5,252.3 	"/>
	<polygon class="st4" points="395,179.7 407.8,184.1 419,177.5 441.6,174.8 455.5,167.5 470.5,153.3 464.5,128 469.1,117 466.4,106 
		468,99.6 469.3,85.7 462.7,78.4 459.8,68.6 453.1,60.4 454.5,52.2 444.8,36.1 436.7,31.5 436.6,23.6 418.4,12.4 414,8.4 400.8,8 
		395.3,3.5 383,3.9 373.9,0 338.5,7.4 335.2,14.4 324.1,15.9 322.4,23 306.1,33.2 304.3,46 298,50 295.6,59.8 284.1,71.4 
		285.7,87.6 279.9,96.1 282.2,102.5 276.6,134.7 292.7,150.3 300,165.9 308.8,165.9 321.7,175.9 330.3,172.1 330.4,172.1 
		342.3,181.2 352.8,176.2 360.2,179.5 368.1,178.9 368.1,221.9 367.2,239 361.8,259.9 388.4,259.2 383.4,240.9 379.8,198.6 381,179 
		388.2,176.6 	"/>
	<polygon class="st5" points="326.8,76.3 324,98.4 291.6,101.6 	"/>
	<polygon class="st6" points="311,108.3 324,98.4 282.2,102.5 	"/>
	<polygon class="st7" points="326.8,76.3 284.1,71.4 291.6,101.6 	"/>
	<polygon class="st8" points="287.2,102 284.1,71.4 291.6,101.6 	"/>
	<polygon class="st9" points="287.2,102 285.8,87.6 279.9,96.1 	"/>
	<polygon class="st10" points="287.2,102 282.2,102.5 279.9,96.1 	"/>
	<polygon class="st11" points="326.8,76.3 284.1,71.4 320.9,59.4 	"/>
	<polygon class="st12" points="310.4,54.3 284.1,71.4 320.9,59.4 	"/>
	<polygon class="st13" points="310.4,54.3 284.1,71.4 303.5,51.9 	"/>
	<polygon class="st14" points="310.4,54.3 306.1,33.2 303.5,51.9 	"/>
	<polygon class="st15" points="298,50 304.3,46 303.5,51.9 	"/>
	<polygon class="st16" points="298,50 295.6,59.9 303.5,51.9 	"/>
	<polygon class="st17" points="310.4,54.3 306.1,33.2 329.5,26.5 	"/>
	<polygon class="st18" points="322.4,23 306.1,33.2 329.5,26.5 	"/>
	<polygon class="st19" points="322.4,23 324.1,15.9 329.5,26.5 	"/>
	<polygon class="st20" points="310.4,54.3 347.4,36.1 329.5,26.5 	"/>
	<polygon class="st21" points="344.3,15.9 347.4,36.1 329.5,26.5 	"/>
	<polygon class="st22" points="344.3,15.9 338.5,7.4 329.5,26.5 	"/>
	<polygon class="st23" points="344.3,15.9 338.5,7.4 373.9,0 	"/>
	<polygon class="st24" points="310.4,54.3 347.4,36.1 320.9,59.4 	"/>
	<polygon class="st25" points="330.8,66.8 347.4,36.1 320.9,59.4 	"/>
	<polygon class="st26" points="330.8,66.8 326.8,76.3 320.9,59.4 	"/>
	<polygon class="st27" points="330.8,66.8 326.8,76.3 360.8,78 	"/>
	<polygon class="st17" points="330.8,66.8 349.8,43.6 360.8,78 	"/>
	<polygon class="st28" points="330.8,66.8 349.8,43.6 347.4,36.1 	"/>
	<polygon class="st29" points="381.3,38.1 349.8,43.6 347.4,36.1 	"/>
	<polygon class="st30" points="381.3,38.1 349.8,43.6 360.8,78 	"/>
	<polygon class="st31" points="381.3,38.1 398.9,46 360.8,78 	"/>
	<polygon class="st32" points="383.9,79.2 398.9,46 360.8,78 	"/>
	<polygon class="st33" points="383.9,79.2 398.9,46 411.8,67.4 	"/>
	<polygon class="st34" points="383.9,79.2 394.3,95.3 411.8,67.4 	"/>
	<polygon class="st16" points="383.9,79.2 394.3,95.3 383.1,96.4 	"/>
	<polygon class="st35" points="383.9,79.2 360.8,78 383.1,96.4 	"/>
	<polygon class="st36" points="358.8,94 360.8,78 383.1,96.4 390.8,108.3 	"/>
	<polygon class="st37" points="404.9,114 394.3,95.3 383.1,96.4 	"/>
	<polygon class="st38" points="404.9,114 390.8,108.3 383.1,96.4 	"/>
	<polygon class="st39" points="404.9,114 394.3,95.3 421.7,108.3 	"/>
	<polygon class="st40" points="346.8,87.7 326.8,76.3 360.8,78 	"/>
	<polygon class="st41" points="346.8,87.7 358.8,94 360.8,78 	"/>
	<polygon class="st42" points="346.8,87.7 358.8,94 363.8,142.4 	"/>
	<polygon class="st43" points="390.8,108.3 358.8,94 363.8,142.4 	"/>
	<polygon class="st44" points="390.8,108.3 404.9,114 363.8,142.4 	"/>
	<polygon class="st45" points="403.2,139 404.9,114 363.8,142.4 	"/>
	<polygon class="st46" points="403.2,139 404.9,114 412.6,126 	"/>
	<polygon class="st47" points="421.7,108.3 404.9,114 412.6,126 	"/>
	<polygon class="st48" points="329,94.9 326.9,76.3 324,98.4 	"/>
	<polygon class="st49" points="346.8,87.7 326.8,76.3 329,94.9 	"/>
	<polygon class="st50" points="329,94.9 329.9,128.1 324,98.4 	"/>
	<polygon class="st51" points="329,94.9 329.9,128.1 346.8,87.7 	"/>
	<polygon class="st52" points="363.8,142.4 329.9,128.1 346.8,87.7 	"/>
	<polygon class="st53" points="363.8,142.4 329.9,128.1 317.8,143 	"/>
	<polygon class="st54" points="324,98.4 329.9,128.1 317.8,143 	"/>
	<polygon class="st55" points="324,98.4 311,108.3 317.8,143 	"/>
	<polygon class="st56" points="285.2,127 311,108.3 317.8,143 	"/>
	<polygon class="st57" points="285.2,127 311,108.3 282.2,102.5 	"/>
	<polygon class="st58" points="285.2,127 276.6,134.7 282.2,102.5 	"/>
	<polygon class="st59" points="285.2,127 276.6,134.7 317.8,143 	"/>
	<polygon class="st60" points="303,147.7 276.6,134.7 317.8,143 	"/>
	<polygon class="st61" points="303,147.7 276.6,134.7 308.8,165.9 	"/>
	<polygon class="st62" points="303,147.7 317.8,143 308.8,165.9 	"/>
	<polygon class="st63" points="328.7,164.8 317.8,143 308.8,165.9 	"/>
	<polygon class="st64" points="328.7,164.8 317.8,143 343,153 	"/>
	<polygon class="st65" points="363.8,142.4 317.8,143 343,153 	"/>
	<polygon class="st66" points="363.8,142.4 352.8,176.2 365.2,163 	"/>
	<polygon class="st67" points="343,153 358.7,158 363.8,142.4 	"/>
	<polygon class="st68" points="343,153 358.7,158 340.8,175.1 	"/>
	<polygon class="st53" points="352.8,176.2 358.7,158 340.8,175.1 	"/>
	<polygon class="st69" points="343,153 328.7,164.8 340.8,175.1 	"/>
	<polygon class="st70" points="308.8,165.9 328.7,164.8 340.8,175.1 	"/>
	<polygon class="st71" points="308.8,165.9 321.7,175.9 330.4,172.1 	"/>
	<polygon class="st72" points="340.8,175.1 342.3,181.2 330.4,172.1 	"/>
	<polygon class="st73" points="340.8,175.1 342.3,181.2 352.8,176.2 	"/>
	<polygon class="st74" points="308.8,165.9 300,165.9 301.6,158.9 	"/>
	<polygon class="st75" points="292.7,150.3 300,165.9 301.6,158.9 	"/>
	<polygon class="st76" points="362.8,174 352.8,176.2 365.2,163 	"/>
	<polygon class="st77" points="362.8,174 352.8,176.2 360.2,179.5 	"/>
	<polygon class="st78" points="362.8,174 368.1,178.9 360.2,179.5 	"/>
	<polygon class="st78" points="362.8,174 368.1,178.9 360.2,179.5 	"/>
	<polygon class="st78" points="362.8,174 368.1,178.9 360.2,179.5 	"/>
	<polygon class="st79" points="363.8,142.4 378,167.5 365.2,163 	"/>
	<polygon class="st80" points="363.8,142.4 381.4,173.5 395,179.7 	"/>
	<polygon class="st81" points="363.8,142.4 406.8,147.6 395,179.7 	"/>
	<polygon class="st82" points="363.8,142.4 406.8,147.6 403.2,139 	"/>
	<polygon class="st83" points="413.1,169.5 406.8,147.6 399.5,167.5 	"/>
	<polygon class="st84" points="413.1,169.5 405.8,179.1 399.5,167.5 	"/>
	<polygon class="st85" points="413.1,169.5 405.8,179.1 441.6,174.8 	"/>
	<polygon class="st86" points="413.1,169.5 455.5,167.5 441.6,174.8 	"/>
	<polygon class="st87" points="413.1,169.5 455.5,167.5 470.5,153.3 	"/>
	<polygon class="st88" points="413.1,169.5 458.3,144.7 470.5,153.3 	"/>
	<polygon class="st89" points="413.1,169.5 458.3,144.7 430.1,124.4 	"/>
	<polygon class="st90" points="413.1,169.5 421.7,119.9 430.1,124.4 	"/>
	<polygon class="st91" points="413.1,169.5 421.7,119.9 412.6,126 	"/>
	<polygon class="st92" points="413.1,169.5 403.2,139 412.6,126 	"/>
	<polygon class="st93" points="421.7,108.3 421.7,119.9 412.6,126 	"/>
	<polygon class="st94" points="455.2,115.3 421.7,119.9 430.1,124.4 	"/>
	<polygon class="st95" points="455.2,115.3 458.3,144.7 430.1,124.4 	"/>
	<polygon class="st96" points="455.2,115.3 458.3,144.7 470.5,153.3 	"/>
	<polygon class="st97" points="455.2,115.3 462.8,120.6 470.5,153.3 	"/>
	<polygon class="st98" points="455.2,115.3 462.8,120.6 468,99.6 	"/>
	<polygon class="st99" points="455.2,115.3 421.7,119.9 468,99.6 	"/>
	<polygon class="st100" points="421.7,108.3 421.7,119.9 468,99.6 	"/>
	<polygon class="st101" points="421.7,108.3 438.4,68.5 468,99.6 	"/>
	<polygon class="st102" points="421.7,108.3 438.4,68.5 431.7,61.7 	"/>
	<polygon class="st103" points="421.7,108.3 394.3,95.3 431.7,61.7 	"/>
	<polygon class="st104" points="411.8,67.4 394.3,95.3 431.7,61.7 	"/>
	<polygon class="st105" points="452,66.6 438.4,68.5 468,99.6 	"/>
	<polygon class="st106" points="452,66.6 469.3,85.7 468,99.6 	"/>
	<polygon class="st107" points="452,66.6 438.4,68.5 431.7,61.7 	"/>
	<polygon class="st108" points="452,66.6 454.5,52.2 431.7,61.7 	"/>
	<polygon class="st109" points="443,48 454.5,52.2 431.7,61.7 	"/>
	<polygon class="st110" points="443,48 436.8,39.5 431.7,61.7 	"/>
	<polygon class="st111" points="428.5,31.6 436.8,39.5 431.7,61.7 	"/>
	<polygon class="st112" points="428.5,31.6 411.8,67.4 431.7,61.7 	"/>
	<polygon class="st113" points="428.5,31.6 411.8,67.4 398.9,46 	"/>
	<polygon class="st114" points="428.5,31.6 381.3,38.1 398.9,46 	"/>
	<polygon class="st115" points="443,48 454.5,52.2 444.8,36.1 	"/>
	<polygon class="st116" points="443,48 436.8,39.5 444.8,36.1 	"/>
	<polygon class="st117" points="428.5,31.6 436.8,39.5 436.6,23.6 	"/>
	<polygon class="st118" points="428.5,31.6 418.4,12.4 436.6,23.6 	"/>
	<polygon class="st119" points="428.5,31.6 418.4,12.4 381.3,38.1 	"/>
	<polygon class="st120" points="405.4,13.4 418.4,12.4 381.3,38.1 	"/>
	<polygon class="st121" points="405.4,13.4 418.4,12.4 414,8.4 	"/>
	<polygon class="st122" points="344.3,15.9 347.4,36.1 373.9,0 	"/>
	<polygon class="st123" points="381.3,38.1 347.4,36.1 373.9,0 	"/>
	<polygon class="st124" points="381.3,38.1 405.4,13.4 373.9,0 	"/>
	<polygon class="st125" points="405.4,13.4 392,7.7 414,8.4 	"/>
	<polygon class="st126" points="395.3,3.5 392,7.7 400.8,8 	"/>
	<polygon class="st127" points="395.3,3.5 392,7.7 382.9,3.9 	"/>
	<polygon class="st128" points="335.2,14.4 324.1,15.9 329.5,26.5 	"/>
	<polygon class="st129" points="436.7,31.5 436.8,39.5 444.8,36.1 	"/>
	<polygon class="st130" points="452,66.6 453.1,60.4 459.8,68.6 	"/>
	<polygon class="st131" points="452,66.6 462.7,78.4 459.8,68.6 	"/>
	<polygon class="st132" points="469.1,117 462.8,120.6 466.4,106 	"/>
	<polygon class="st133" points="469.1,117 462.8,120.6 464.5,128 	"/>
	<polygon class="st134" points="395,179.7 404,175.9 399.5,167.5 	"/>
	<polygon class="st135" points="395,179.7 404,175.9 405.8,179.1 407.8,184.1 	"/>
	<polygon class="st136" points="419,177.5 405.8,179.1 407.8,184.1 	"/>
	<polygon class="st137" points="368.1,178.9 368.1,221.9 372.5,191.8 369.6,164.6 	"/>
	<polygon class="st138" points="362.8,174 365.2,163 369,170.4 	"/>
	<polygon class="st139" points="369.6,164.6 365.2,163 369,170.4 	"/>
	<polygon class="st140" points="369.6,164.6 374,166.1 374.3,208.9 	"/>
	<polygon class="st141" points="378.9,169.1 378,167.5 374,166.1 374.3,208.9 376,227.5 	"/>
	<polygon class="st142" points="378.9,169.1 381.4,173.5 379.7,201 376,227.5 	"/>
	<polygon class="st143" points="388.4,259.2 383.4,240.9 384,259.3 	"/>
	<polygon class="st144" points="379.7,259.4 376,227.5 384,259.3 	"/>
	<polygon class="st145" points="379.7,259.4 376,227.5 373.7,259.6 	"/>
	<polygon class="st146" points="368.5,259.7 371.1,244.4 373.7,259.6 	"/>
	<polygon class="st147" points="368.5,259.7 371.1,244.4 370.2,227.8 365.1,259.8 	"/>
	<polygon class="st148" points="361.8,259.9 370.2,227.8 365.1,259.8 	"/>
	<polygon class="st149" points="374.3,208.9 370.2,227.8 371.1,244.4 373.7,259.6 	"/>
	<polygon class="st150" points="374.3,208.9 376,227.5 373.7,259.6 	"/>
	<polygon class="st151" points="372.5,191.8 368.1,221.9 367.2,239 370.2,227.8 374.3,208.9 	"/>
	<polygon class="st152" points="376,227.5 379.8,198.5 383.4,240.9 384,259.3 	"/>
	<polygon class="st137" points="379.7,230 379.8,198.5 383.4,240.9 384,259.3 	"/>
	<polygon class="st153" points="388.2,176.6 381,179 381.4,173.5 	"/>
	<polygon class="st154" points="368.1,178.9 369,170.4 362.8,174 	"/>
</g>
<g>
	<defs>
		<path id="SVGID_3_" d="M412.6,213.9c-3.2,0.9-6,2.4-8.2,4.6l7.4,17.3c0.4-0.7,0.9-1.3,1.3-2.1c1.4,0.3,2.7,0.6,4,0.9
			c0.7,4,1.8,7.9-1,11.5c0.1,0.1,0.2,0.1,0.2,0.2c0.7,1.5,1.5,2.9,1.9,4.5c0.4,1.7,2.2,2.6,2.2,4.4c0,0.3,0.4,0.8,0.7,0.9
			c1.8,0.3,3.5,1.7,5.3,0.2c0.2-0.2,0.5-0.2,0.7-0.3v-2.1c-2.1-1-4.2-2.2-5.5-4.2v-4.3c0.6-0.6,1.2-1.2,1.3-1.3
			c0.3-0.6,0.5-1.1,0.7-1.6v-27.7c-0.5-0.2-1.1-0.4-1.6-0.6c-1.5-0.5-3.4-0.7-5.2-0.7C415.2,213.3,413.7,213.5,412.6,213.9"/>
	</defs>
	<clipPath id="SVGID_4_">
		<use xlink:href="#SVGID_3_"  style="overflow:visible;"/>
	</clipPath>
	
		<linearGradient id="SVGID_5_" gradientUnits="userSpaceOnUse" x1="-1.608062e-05" y1="310.7566" x2="1" y2="310.7566" gradientTransform="matrix(22.7734 0 0 -22.7734 404.3223 7312.5342)">
		<stop  offset="0" style="stop-color:#414042"/>
		<stop  offset="1" style="stop-color:#58595B"/>
	</linearGradient>
	<rect x="404.3" y="213.3" class="st155" width="22.8" height="44.4"/>
</g>
<g>
	<defs>
		<path id="SVGID_6_" d="M423.6,242.4c0.3-0.7,0.6-1.3,0.9-1.8c0.2-0.3,0.7-0.4,1.4-0.7c0,1.1,0,1.8,0,2.5c0,1.7-0.1,3.4,0.6,5
			c1.1,2.6,2,5.3,1.9,8.2c0,0.2,0.1,0.4,0.2,0.5c0.6,1.5,0.6,3,0,4.6c-0.3,0.7,0,1.5,0,2.3c2.1,1.2,4.1,2.2,6.7,1.8
			c0.2-0.5,0.5-1,0.7-1.5c0.2-0.5,0.5-1,0.7-1.4c-0.7-1.2-1.6-2.2-1.9-3.2c-0.6-2.7-1-5.4-1.3-8.2c-0.2-1.9,0-3.9,0-5.8
			c0.3-0.3,0.6-0.6,1-1c0.5,0.1,1.1,0.1,1.6,0c1-0.1,2.1-0.1,3,0.6c0.8-0.7,1.7-0.7,2.7-0.6c0.5,0,1,0,1.5-0.1
			c0-0.1,0.1-0.3,0.2-0.4l-8.9-27c-2,0.8-3.8,1-6,0.2c-1.6-0.7-3.2-1.3-4.8-1.8V242.4z"/>
	</defs>
	<clipPath id="SVGID_7_">
		<use xlink:href="#SVGID_6_"  style="overflow:visible;"/>
	</clipPath>
	
		<linearGradient id="SVGID_8_" gradientUnits="userSpaceOnUse" x1="2.728484e-12" y1="310.7639" x2="1" y2="310.7639" gradientTransform="matrix(47.0024 -3.5002 -3.5002 -47.0024 1511.1117 14847.3809)">
		<stop  offset="0" style="stop-color:#414042"/>
		<stop  offset="1" style="stop-color:#58595B"/>
	</linearGradient>
	<polygon class="st156" points="419.8,214.9 443.2,213.2 447,265 423.7,266.7 	"/>
</g>
<g>
	<defs>
		<path id="SVGID_9_" d="M401.5,222.2c-0.5,1.2,1,1.1,1.4,1.6c-0.7,1.3-1.6,1.4-1.9,3.7c0,3.2,0.1,6.6,0,10c-0.1,2.4-0.8,5-2.6,6.8
			c0.6,4.3-0.4,8.6-1.3,13.1c1.5,0.5,2.8,1,3.7,1.3l2.1-1.7c-0.8-3.1-1.1-6-0.1-9c1-3.1,3.4-4.9,5.3-7.1c0.8-1.1,1.6-2.1,2.4-3.3
			c0.4-0.7,0.9-1.3,1.3-2l-7.4-17.3C403.3,219.5,402.3,220.7,401.5,222.2"/>
	</defs>
	<clipPath id="SVGID_10_">
		<use xlink:href="#SVGID_9_"  style="overflow:visible;"/>
	</clipPath>
	
		<linearGradient id="SVGID_11_" gradientUnits="userSpaceOnUse" x1="2.364686e-11" y1="310.7199" x2="1" y2="310.7199" gradientTransform="matrix(11.0006 -4.0002 -4.0002 -11.0006 1638.0723 3660.134)">
		<stop  offset="0" style="stop-color:#414042"/>
		<stop  offset="1" style="stop-color:#58595B"/>
	</linearGradient>
	<polygon class="st157" points="384.1,223.2 410.1,213.7 424.7,254.1 398.8,263.5 	"/>
</g>
<g>
	<defs>
		<path id="SVGID_12_" d="M434.4,216.3C434.4,216.3,434.4,216.3,434.4,216.3l8.8,27c0.1-0.2,0.2-0.5,0.3-0.8c2,0.5,3.4-1.1,5.2-1.7
			c1,4.1-1.8,8,0.2,11.9c-0.3,0.4-0.5,0.7-0.7,0.9c1.2,2.6,1.7,5.5,5.5,6.5c1-0.2,2.7-0.5,4.2-0.7c0.3-0.7,0.5-1.1,0.9-1.9
			c-1.9-1.5-3.8-3.1-5.6-4.6c0.2-1,0.4-1.7,0.6-2.5c0.5-1.9,0.4-4,1.3-5.7c1.4-2.6,1.2-5.4,1.2-8.2c0-0.6-0.1-1.2,0-1.9
			c0.1-1,0.3-1.9,0.5-3.1c-0.1-0.1-0.4-0.4-0.6-0.7c-0.4-0.2-0.9-0.2-1.4-0.1c-0.7,0-1.3,0.1-1.8-0.5c-5.2-1.2-8.5-4.9-11.6-8.9
			c-1.4-1.8-2.2-3.9-3.1-6.2H438c0.1-0.1,0.2-0.2,0.3-0.2c0,0,0,0,0,0C437,215.4,435.7,215.8,434.4,216.3"/>
	</defs>
	<clipPath id="SVGID_13_">
		<use xlink:href="#SVGID_12_"  style="overflow:visible;"/>
	</clipPath>
	
		<linearGradient id="SVGID_14_" gradientUnits="userSpaceOnUse" x1="-1.000444e-11" y1="310.7673" x2="1" y2="310.7673" gradientTransform="matrix(-18.6672 -18.6667 -18.6667 18.6672 6251.9111 -5559.3516)">
		<stop  offset="0" style="stop-color:#414042"/>
		<stop  offset="1" style="stop-color:#58595B"/>
	</linearGradient>
	<polygon class="st158" points="446.6,272.3 411.8,237.5 446.6,202.7 481.4,237.5 	"/>
</g>
<g>
	<defs>
		<path id="SVGID_15_" d="M446.4,207.4c-1.8,0.4-3.1,0.7-4,1c-1.6,2.4-2.2,4.8-4.2,6.6c0,0.1,0.1,0.2,0.1,0.2h1.1
			c-0.2,2.1,1.2,3.4,2.6,4.7v1.3c1,1,2.1,1.8,2.9,2.9c1.3,1.9,3.5,2.7,5.2,4.1c1.3,1.1,3.3,1.4,5.1,1.9c0.3,0.1,0.8-0.1,1.1-0.2
			c2.2-0.5,4-1.8,5.3-3.5h1.2L447.1,207C446.8,207.3,446.4,207.4,446.4,207.4"/>
	</defs>
	<clipPath id="SVGID_16_">
		<use xlink:href="#SVGID_15_"  style="overflow:visible;"/>
	</clipPath>
	
		<linearGradient id="SVGID_17_" gradientUnits="userSpaceOnUse" x1="-2.863317e-05" y1="310.7724" x2="1" y2="310.7724" gradientTransform="matrix(24.5137 0 0 -24.5137 438.2617 7836.8018)">
		<stop  offset="0" style="stop-color:#414042"/>
		<stop  offset="1" style="stop-color:#58595B"/>
	</linearGradient>
	<rect x="438.3" y="207" class="st159" width="24.5" height="23.2"/>
</g>
<g>
	<defs>
		<path id="SVGID_18_" d="M453.5,204.1c-0.5,0.6-0.6,1.2-1.7,1.2c-0.8,0-1.6,0.7-2.4,0.9c-0.7,0.2-1.2,0.4-2.1,0.6
			c-0.1,0.1-0.1,0.2-0.2,0.2l15.7,19.4h0.5c1.2-1,2.1-1.9,3.1-2.8v-3.8c-1-1.5-2.1-2.9-2.9-4.1c0.7-1.4,0.3-2.7,0.4-3.8
			c-0.9-0.7-1.7-1.3-2.5-1.8V207c-1.4-2.2-3.5-2.9-5.5-3.6C455,203.7,454,203.7,453.5,204.1"/>
	</defs>
	<clipPath id="SVGID_19_">
		<use xlink:href="#SVGID_18_"  style="overflow:visible;"/>
	</clipPath>
	
		<linearGradient id="SVGID_20_" gradientUnits="userSpaceOnUse" x1="8.185452e-12" y1="310.7714" x2="1" y2="310.7714" gradientTransform="matrix(1 23.9999 23.9999 -1 -7002.2407 514.805)">
		<stop  offset="0" style="stop-color:#414042"/>
		<stop  offset="1" style="stop-color:#58595B"/>
	</linearGradient>
	<polygon class="st160" points="466.3,202.6 467.3,226.4 447.1,227.2 446.1,203.5 	"/>
</g>
<g>
	<defs>
		<rect id="SVGID_21_" width="723.3" height="310.8"/>
	</defs>
	<clipPath id="SVGID_22_">
		<use xlink:href="#SVGID_21_"  style="overflow:visible;"/>
	</clipPath>
	<path class="st161" d="M438,215.2h0.3c0-0.1-0.1-0.2-0.1-0.2C438.2,215,438.1,215.1,438,215.2"/>
</g>
</svg>
