<svg enable-background="new 0 0 723.3 310.8" height="310.8" viewBox="0 0 723.3 310.8" width="723.3" xmlns="http://www.w3.org/2000/svg" xmlns:xlink="http://www.w3.org/1999/xlink"><clipPath id="a"><path d="m0 0h723.3v310.8h-723.3z"/></clipPath><clipPath id="b"><path d="m412.6 213.9c-3.2.9-6 2.4-8.2 4.6l7.4 17.3c.4-.7.9-1.3 1.3-2.1 1.4.3 2.7.6 4 .9.7 4 1.8 7.9-1 11.5.1.1.2.1.2.2.7 1.5 1.5 2.9 1.9 4.5.4 1.7 2.2 2.6 2.2 4.4 0 .3.4.8.7.9 1.8.3 3.5 1.7 5.3.2.2-.2.5-.2.7-.3v-2.1c-2.1-1-4.2-2.2-5.5-4.2v-4.3c.6-.6 1.2-1.2 1.3-1.3.3-.6.5-1.1.7-1.6v-27.7c-.5-.2-1.1-.4-1.6-.6-1.5-.5-3.4-.7-5.2-.7-1.6-.2-3.1 0-4.2.4"/></clipPath><linearGradient id="c"><stop offset="0" stop-color="#414042"/><stop offset="1" stop-color="#58595b"/></linearGradient><linearGradient id="d" gradientTransform="matrix(22.7734 0 0 -22.7734 404.3223 7312.5342)" gradientUnits="userSpaceOnUse" x1="-.000016" x2="1" xlink:href="#c" y1="310.7566" y2="310.7566"/><clipPath id="e"><path d="m423.6 242.4c.3-.7.6-1.3.9-1.8.2-.3.7-.4 1.4-.7v2.5c0 1.7-.1 3.4.6 5 1.1 2.6 2 5.3 1.9 8.2 0 .2.1.4.2.5.6 1.5.6 3 0 4.6-.3.7 0 1.5 0 2.3 2.1 1.2 4.1 2.2 6.7 1.8.2-.5.5-1 .7-1.5s.5-1 .7-1.4c-.7-1.2-1.6-2.2-1.9-3.2-.6-2.7-1-5.4-1.3-8.2-.2-1.9 0-3.9 0-5.8.3-.3.6-.6 1-1 .5.1 1.1.1 1.6 0 1-.1 2.1-.1 3 .6.8-.7 1.7-.7 2.7-.6.5 0 1 0 1.5-.1 0-.1.1-.3.2-.4l-8.9-27c-2 .8-3.8 1-6 .2-1.6-.7-3.2-1.3-4.8-1.8v27.8z"/></clipPath><linearGradient id="f" gradientTransform="matrix(47.0024 -3.5002 -3.5002 -47.0024 1511.1117 14847.3809)" gradientUnits="userSpaceOnUse" x1="0" x2="1" xlink:href="#c" y1="310.7639" y2="310.7639"/><clipPath id="g"><path d="m401.5 222.2c-.5 1.2 1 1.1 1.4 1.6-.7 1.3-1.6 1.4-1.9 3.7 0 3.2.1 6.6 0 10-.1 2.4-.8 5-2.6 6.8.6 4.3-.4 8.6-1.3 13.1 1.5.5 2.8 1 3.7 1.3l2.1-1.7c-.8-3.1-1.1-6-.1-9 1-3.1 3.4-4.9 5.3-7.1.8-1.1 1.6-2.1 2.4-3.3.4-.7.9-1.3 1.3-2l-7.4-17.3c-1.1 1.2-2.1 2.4-2.9 3.9"/></clipPath><linearGradient id="h" gradientTransform="matrix(11.0006 -4.0002 -4.0002 -11.0006 1638.0723 3660.134)" gradientUnits="userSpaceOnUse" x1="0" x2="1" xlink:href="#c" y1="310.7199" y2="310.7199"/><clipPath id="i"><path d="m434.4 216.3 8.8 27c.1-.2.2-.5.3-.8 2 .5 3.4-1.1 5.2-1.7 1 4.1-1.8 8 .2 11.9-.3.4-.5.7-.7.9 1.2 2.6 1.7 5.5 5.5 6.5 1-.2 2.7-.5 4.2-.7.3-.7.5-1.1.9-1.9-1.9-1.5-3.8-3.1-5.6-4.6.2-1 .4-1.7.6-2.5.5-1.9.4-4 1.3-5.7 1.4-2.6 1.2-5.4 1.2-8.2 0-.6-.1-1.2 0-1.9.1-1 .3-1.9.5-3.1-.1-.1-.4-.4-.6-.7-.4-.2-.9-.2-1.4-.1-.7 0-1.3.1-1.8-.5-5.2-1.2-8.5-4.9-11.6-8.9-1.4-1.8-2.2-3.9-3.1-6.2h-.3c.1-.1.2-.2.3-.2-1.3.5-2.6.9-3.9 1.4"/></clipPath><linearGradient id="j" gradientTransform="matrix(-18.6672 -18.6667 -18.6667 18.6672 6251.9111 -5559.3516)" gradientUnits="userSpaceOnUse" x1="0" x2="1" xlink:href="#c" y1="310.7673" y2="310.7673"/><clipPath id="k"><path d="m446.4 207.4c-1.8.4-3.1.7-4 1-1.6 2.4-2.2 4.8-4.2 6.6 0 .1.1.2.1.2h1.1c-.2 2.1 1.2 3.4 2.6 4.7v1.3c1 1 2.1 1.8 2.9 2.9 1.3 1.9 3.5 2.7 5.2 4.1 1.3 1.1 3.3 1.4 5.1 1.9.3.1.8-.1 1.1-.2 2.2-.5 4-1.8 5.3-3.5h1.2l-15.7-19.4c-.3.3-.7.4-.7.4"/></clipPath><linearGradient id="l" gradientTransform="matrix(24.5137 0 0 -24.5137 438.2617 7836.8018)" gradientUnits="userSpaceOnUse" x1="-.000029" x2="1" xlink:href="#c" y1="310.7724" y2="310.7724"/><clipPath id="m"><path d="m453.5 204.1c-.5.6-.6 1.2-1.7 1.2-.8 0-1.6.7-2.4.9-.7.2-1.2.4-2.1.6-.1.1-.1.2-.2.2l15.7 19.4h.5c1.2-1 2.1-1.9 3.1-2.8v-3.8c-1-1.5-2.1-2.9-2.9-4.1.7-1.4.3-2.7.4-3.8-.9-.7-1.7-1.3-2.5-1.8v-3.1c-1.4-2.2-3.5-2.9-5.5-3.6-.9.3-1.9.3-2.4.7"/></clipPath><linearGradient id="n" gradientTransform="matrix(1 23.9999 23.9999 -1 -7002.2407 514.805)" gradientUnits="userSpaceOnUse" x1="0" x2="1" xlink:href="#c" y1="310.7714" y2="310.7714"/><clipPath id="o"><path d="m0 0h723.3v310.8h-723.3z"/></clipPath><g clip-path="url(#a)" fill="#fff"><path d="m43.1 177.9.1 10.5v71.4c-2.5.5-5.5.7-9.1.7s-6.6-.2-8.9-.7v-81.9l-8.5.1h-16c-.5-2.2-.7-4.7-.7-7.4 0-2.8.2-5.3.7-7.6h67c.7 2.4 1 4.8 1 7.4s-.8 4.5-2.3 5.7c-1.6 1.2-4 1.8-7.4 1.8h-7.2l-8.5-.1h-.2z"/><path d="m136.8 212.3v31.4c0 5.8.9 10.2 2.8 13.3-2.9 2.5-6.4 3.7-10.3 3.7s-6.6-.9-8-2.7-2.1-4.6-2.1-8.4v-33.6c0-4.3-.5-7.4-1.6-9.3-1.1-1.8-3.1-2.8-6-2.8-5.4 0-10.4 2.5-15 7.4v48.3c-2.6.5-5.5.7-8.4.7-3 0-5.9-.2-8.7-.7v-103.1l1-1h6.7c3.6 0 6.1.8 7.4 2.5 1.4 1.7 2.1 4.5 2.1 8.4v30.7c6.7-5.9 13.5-8.8 20.3-8.8s11.8 2.2 15.1 6.6c3.1 4.5 4.7 10.2 4.7 17.4"/><path d="m176.3 203.3v56.5c-2.6.5-5.5.7-8.6.7s-6.1-.2-8.9-.7v-50c0-5.1-2.1-7.6-6.4-7.6h-1.7c-.5-1.6-.7-3.6-.7-6.1s.2-4.6.7-6.4c3.4-.4 6.8-.6 10.3-.6h2.3c4.1 0 7.2 1.3 9.6 3.8 2.3 2.6 3.4 6 3.4 10.4m-20.5-26.5c-.9-2.2-1.4-4.5-1.4-7s.5-4.8 1.4-7c2.5-1.3 5.5-2 9.1-2s6.5.7 8.7 2c.9 2.2 1.4 4.5 1.4 7s-.5 4.8-1.4 7c-2.2 1.3-5.2 2-9.1 2s-6.8-.7-8.7-2"/><path d="m254.1 212.3v31.4c0 5.8.9 10.2 2.8 13.3-3.1 2.5-6.6 3.7-10.4 3.7s-6.4-.9-7.9-2.7c-1.4-1.8-2.1-4.6-2.1-8.4v-33.6c0-4.3-.6-7.3-1.7-9.1s-3.2-2.8-6.1-2.8c-5.4 0-10.3 2.4-14.9 7.1v48.6c-2.6.5-5.5.7-8.6.7s-6.1-.2-8.9-.7v-70.1l1-.8h6.5c5.4 0 8.6 2.8 9.6 8.5 6.9-6 13.8-9.1 20.6-9.1s11.9 2.2 15.2 6.7c3.3 4.3 4.9 10.1 4.9 17.3"/><path d="m322.9 232.7 4.2 11.2c2.1 5.9 4.3 9.8 6.8 11.5-3.2 3.6-7.1 5.4-11.8 5.4-2.7 0-4.8-.7-6.2-2s-2.7-3.6-3.9-6.8l-5.1-13.3c-1.3-3.4-2.7-5.7-4.2-6.8s-3.2-1.7-5.3-1.7-4.3.1-6.8.3v29.3c-2.6.5-5.5.7-8.4.7-3 0-5.9-.2-8.7-.7v-103.3l1-1h6.7c3.6 0 6.1.8 7.4 2.5 1.4 1.7 2.1 4.5 2.1 8.4v49.4l3.8-.1c1.4 0 2.6-.8 3.7-2.3l10.3-17.4c2.6-4.6 6.1-6.9 10.5-6.9 4.3 0 7.6 0 9.8.1l.8 1.1-13.6 23.3c-1.7 2.9-3.6 5.1-5.7 6.5 5.8 1.8 10 6 12.6 12.6"/><path d="m514.7 177.9.1 10.5v71.4c-2.5.5-5.5.7-9.1.7s-6.6-.2-8.9-.7v-81.9l-8.5.1h-16c-.5-2.2-.7-4.7-.7-7.4 0-2.8.2-5.3.7-7.6h67c.7 2.4 1 4.8 1 7.4s-.8 4.5-2.3 5.7c-1.6 1.2-4 1.8-7.4 1.8h-7.2l-8.5-.1h-.2z"/><path d="m540.3 197.7c.4-1.6 1.2-3.3 2.3-5.2 1.2-1.8 2.4-3.2 3.6-4 7.4 1.1 12.3 5.3 14.9 12.6 3.8-8.4 9.9-12.6 18.3-12.6 2.2 0 4.9.3 8.2 1 0 6.1-1.4 11.6-4.2 16.4-1.4-.4-3.5-.7-6.4-.9-5.8 0-10.4 3.1-13.9 9.2v45.5c-2.6.5-5.5.7-8.6.7s-6.1-.2-8.9-.7v-47.4c0-6.9-1.8-11.7-5.3-14.6"/><path d="m651.2 230.3h-39.7c.3 5.6 1.5 9.9 3.8 13 2.2 3.1 6.1 4.6 11.7 4.6s11.8-1.7 18.6-5c2.6 2.5 4.3 6.1 5.1 10.8-7.6 5.4-16.6 8.1-27.3 8.1-10.6 0-18.2-3.4-22.9-10.3-4.6-6.9-6.9-15.8-6.9-26.8s2.6-19.9 7.6-26.8c5.1-6.9 12.4-10.3 21.9-10.3s16.8 2.9 21.9 8.6 7.6 12.9 7.6 21.6c.1 4.2-.4 8.5-1.4 12.5m-27.3-30c-7.7 0-11.9 5.9-12.5 17.6h24.6v-1.7c0-4.7-1-8.5-3-11.5-1.9-3-4.9-4.4-9.1-4.4"/><path d="m721.9 230.3h-39.7c.3 5.6 1.5 9.9 3.8 13 2.2 3.1 6.1 4.6 11.7 4.6s11.8-1.7 18.6-5c2.6 2.5 4.3 6.1 5.1 10.8-7.6 5.4-16.6 8.1-27.3 8.1-10.6 0-18.2-3.4-22.9-10.3-4.6-6.9-6.9-15.8-6.9-26.8s2.5-19.9 7.7-26.8c5.1-6.9 12.4-10.3 21.9-10.3s16.8 2.9 21.9 8.6 7.6 12.9 7.6 21.6c-.1 4.2-.5 8.5-1.5 12.5m-27.3-30c-7.7 0-11.9 5.9-12.5 17.6h24.6v-1.7c0-4.7-1-8.5-3-11.5-1.9-3-5-4.4-9.1-4.4"/></g><g clip-path="url(#a)" fill="#c2c3c6"><path d="m368.8 307.1c.1-1.1.6-2 1.6-2.8 3.2 2.2 6.4 3.3 9.7 3.3 2.3 0 4.2-.5 5.6-1.5s2.1-2.3 2.1-4c0-2.6-1.8-4.7-5.3-6.2l-5.7-2.5c-4.3-1.9-6.4-4.5-6.4-8 0-2.5.9-4.6 2.8-6.3s4.4-2.6 7.5-2.6 6.3.8 9.5 2.3c.1 1.1-.4 2.1-1.4 2.9-2.9-1.5-5.5-2.2-7.7-2.2s-4 .5-5.3 1.6c-1.3 1-2 2.4-2 4.1 0 2.1 1.6 3.9 4.8 5.3l5.5 2.4c4.8 2.1 7.2 4.9 7.2 8.6 0 2.8-1 5-2.9 6.7s-4.8 2.5-8.7 2.5c-4 .1-7.6-1.1-10.9-3.6"/><path d="m438.6 280.1h-2.6v30.1c-.5.1-1.1.1-1.7.1s-1.2 0-1.7-.1v-30.1h-2.6-6.3c-.1-.5-.1-1-.1-1.4s0-1 .1-1.5h21.1c.2.5.2 1 .2 1.4 0 1-.7 1.5-2.1 1.5z"/><path d="m502.6 277.2v21.8c0 3.8-1.1 6.8-3.2 8.8s-4.9 3-8.4 3-6.3-1-8.4-3-3.2-4.9-3.2-8.7v-21.6l.3-.3h1.4c.7 0 1.2.2 1.4.5s.3.9.3 1.7v19.7c0 2.9.7 5.1 2.1 6.7 1.4 1.5 3.5 2.3 6.1 2.3s4.6-.8 6.1-2.3c1.4-1.5 2.1-3.8 2.1-6.7v-21.7c.4-.1 1-.1 1.7-.1.7-.2 1.3-.2 1.7-.1"/><path d="m562.8 285.4c.7 2.3 1 5.1 1 8.3s-.3 6-1 8.3-2 4.3-3.9 5.9c-.9.8-2.2 1.4-3.7 1.8s-2.9.6-4 .6-4.4-.1-10-.2l-.3-.3v-32.4l.3-.3c2.8-.1 6-.1 9.7-.1 1.4 0 2.8.2 4.3.6s2.8 1 3.7 1.8c1.9 1.8 3.2 3.7 3.9 6m-18.5 22h6.5c1.6 0 3-.3 4.1-.8 1.2-.6 2.1-1.3 2.8-2.1.7-.9 1.2-2 1.6-3.2.4-1.3.7-2.5.8-3.7s.2-2.4.2-3.9-.1-2.7-.2-3.9-.4-2.4-.8-3.7-.9-2.3-1.6-3.2-1.6-1.6-2.8-2.1c-1.2-.6-2.6-.8-4.1-.8h-6.5z"/><path d="m600.7 310.2v-33c.4-.1 1-.1 1.7-.1s1.3 0 1.8.1v33c-.5.1-1.1.1-1.7.1-.8 0-1.3 0-1.8-.1"/><path d="m641 293.7c0-2.9.4-5.6 1.3-8.1.8-2.5 2.1-4.6 3.9-6.1 2.1-1.9 4.7-2.8 7.8-2.8s5.7.9 7.8 2.8c1.7 1.5 3 3.6 3.9 6.1.8 2.5 1.3 5.3 1.3 8.1 0 6.5-1.7 11.2-5.1 14.3-2 1.9-4.6 2.8-7.8 2.8-3.1 0-5.8-.9-7.8-2.8-3.6-3.1-5.3-7.9-5.3-14.3m4-5c-.3 1.5-.4 3.2-.4 4.9s.1 3.4.4 4.9.7 3.1 1.4 4.5c.7 1.5 1.6 2.6 2.9 3.5s2.8 1.3 4.6 1.3 3.3-.4 4.6-1.3 2.2-2 2.9-3.5c.6-1.5 1.1-3 1.4-4.5s.4-3.2.4-4.9-.1-3.4-.4-4.9-.7-3-1.4-4.5c-.6-1.5-1.6-2.6-2.9-3.5s-2.8-1.3-4.6-1.3-3.3.4-4.6 1.3-2.2 2-2.9 3.5-1.1 3-1.4 4.5"/><path d="m700.6 307.1c.1-1.1.6-2 1.6-2.8 3.2 2.2 6.4 3.3 9.7 3.3 2.3 0 4.2-.5 5.6-1.5s2.1-2.3 2.1-4c0-2.6-1.8-4.7-5.3-6.2l-5.7-2.5c-4.3-1.9-6.4-4.5-6.4-8 0-2.5.9-4.6 2.8-6.3s4.4-2.6 7.5-2.6 6.3.8 9.5 2.3c.1 1.1-.4 2.1-1.3 2.9-2.9-1.5-5.5-2.2-7.7-2.2s-4 .5-5.3 1.6c-1.3 1-2 2.4-2 4.1 0 2.1 1.6 3.9 4.8 5.3l5.5 2.4c4.8 2.1 7.2 4.9 7.2 8.6 0 2.8-1 5-2.9 6.7s-4.8 2.5-8.7 2.5c-4.1.1-7.7-1.1-11-3.6"/></g><g clip-rule="evenodd" fill-rule="evenodd"><path clip-path="url(#a)" d="m361.8 259.9 90.2 4.2-65.5-11.8" fill="#808285"/><path clip-path="url(#a)" d="m395 179.7 12.8 4.4 11.2-6.6 22.6-2.7 13.9-7.3 15-14.2-6-25.3 4.6-11-2.7-11 1.6-6.4 1.3-13.9-6.6-7.3-2.9-9.8-6.7-8.2 1.4-8.2-9.7-16.1-8.1-4.6-.1-7.9-18.2-11.2-4.4-4-13.2-.4-5.5-4.5-12.3.4-9.1-3.9-35.4 7.4-3.3 7-11.1 1.5-1.7 7.1-16.3 10.2-1.8 12.8-6.3 4-2.4 9.8-11.5 11.6 1.6 16.2-5.8 8.5 2.3 6.4-5.6 32.2 16.1 15.6 7.3 15.6h8.8l12.9 10 8.6-3.8h.1l11.9 9.1 10.5-5 7.4 3.3 7.9-.6v43l-.9 17.1-5.4 20.9 26.6-.7-5-18.3-3.6-42.3 1.2-19.6 7.2-2.4z" fill="#4da246"/><path clip-path="url(#a)" d="m326.8 76.3-2.8 22.1-32.4 3.2z" fill="#5eb346"/><path clip-path="url(#a)" d="m311 108.3 13-9.9-41.8 4.1z" fill="#96c13d"/><path clip-path="url(#a)" d="m326.8 76.3-42.7-4.9 7.5 30.2z" fill="#88c540"/><path clip-path="url(#a)" d="m287.2 102-3.1-30.6 7.5 30.2z" fill="#478e41"/><path clip-path="url(#a)" d="m287.2 102-1.4-14.4-5.9 8.5z" fill="#639a41"/><path clip-path="url(#a)" d="m287.2 102-5 .5-2.3-6.4z" fill="#619540"/><path clip-path="url(#a)" d="m326.8 76.3-42.7-4.9 36.8-12z" fill="#80be42"/><path clip-path="url(#a)" d="m310.4 54.3-26.3 17.1 36.8-12z" fill="#8fc73f"/><path clip-path="url(#a)" d="m310.4 54.3-26.3 17.1 19.4-19.5z" fill="#7fbf42"/><path clip-path="url(#a)" d="m310.4 54.3-4.3-21.1-2.6 18.7z" fill="#afc455"/><path clip-path="url(#a)" d="m298 50 6.3-4-.8 5.9z" fill="#839e4b"/><path clip-path="url(#a)" d="m298 50-2.4 9.9 7.9-8z" fill="#67a443"/><path clip-path="url(#a)" d="m310.4 54.3-4.3-21.1 23.4-6.7z" fill="#a2cd3a"/><path clip-path="url(#a)" d="m322.4 23-16.3 10.2 23.4-6.7z" fill="#a6c943"/><path clip-path="url(#a)" d="m322.4 23 1.7-7.1 5.4 10.6z" fill="#bac668"/><path clip-path="url(#a)" d="m310.4 54.3 37-18.2-17.9-9.6z" fill="#c9db35"/><path clip-path="url(#a)" d="m344.3 15.9 3.1 20.2-17.9-9.6z" fill="#c0d844"/><path clip-path="url(#a)" d="m344.3 15.9-5.8-8.5-9 19.1z" fill="#e9eda1"/><path clip-path="url(#a)" d="m344.3 15.9-5.8-8.5 35.4-7.4z" fill="#f1f1a8"/><path clip-path="url(#a)" d="m310.4 54.3 37-18.2-26.5 23.3z" fill="#bed630"/><path clip-path="url(#a)" d="m330.8 66.8 16.6-30.7-26.5 23.3z" fill="#cbdb2f"/><path clip-path="url(#a)" d="m330.8 66.8-4 9.5-5.9-16.9z" fill="#93bc3e"/><path clip-path="url(#a)" d="m330.8 66.8-4 9.5 34 1.7z" fill="#a5ce39"/><path clip-path="url(#a)" d="m330.8 66.8 19-23.2 11 34.4z" fill="#a2cd3a"/><path clip-path="url(#a)" d="m330.8 66.8 19-23.2-2.4-7.5z" fill="#d5e15e"/><path clip-path="url(#a)" d="m381.3 38.1-31.5 5.5-2.4-7.5z" fill="#72ac42"/><path clip-path="url(#a)" d="m381.3 38.1-31.5 5.5 11 34.4z" fill="#75bf43"/><path clip-path="url(#a)" d="m381.3 38.1 17.6 7.9-38.1 32z" fill="#5cb247"/><path clip-path="url(#a)" d="m383.9 79.2 15-33.2-38.1 32z" fill="#6cbb45"/><path clip-path="url(#a)" d="m383.9 79.2 15-33.2 12.9 21.4z" fill="#4caa47"/><path clip-path="url(#a)" d="m383.9 79.2 10.4 16.1 17.5-27.9z" fill="#75bc43"/><path clip-path="url(#a)" d="m383.9 79.2 10.4 16.1-11.2 1.1z" fill="#67a443"/><path clip-path="url(#a)" d="m383.9 79.2-23.1-1.2 22.3 18.4z" fill="#67b445"/><path clip-path="url(#a)" d="m358.8 94 2-16 22.3 18.4 7.7 11.9z" fill="#62b346"/><path clip-path="url(#a)" d="m404.9 114-10.6-18.7-11.2 1.1z" fill="#74ab42"/><path clip-path="url(#a)" d="m404.9 114-14.1-5.7-7.7-11.9z" fill="#6ca242"/><path clip-path="url(#a)" d="m404.9 114-10.6-18.7 27.4 13z" fill="#439d46"/><path clip-path="url(#a)" d="m346.8 87.7-20-11.4 34 1.7z" fill="#68b545"/><path clip-path="url(#a)" d="m346.8 87.7 12 6.3 2-16z" fill="#51a145"/><path clip-path="url(#a)" d="m346.8 87.7 12 6.3 5 48.4z" fill="#58a445"/><path clip-path="url(#a)" d="m390.8 108.3-32-14.3 5 48.4z" fill="#0c7e3f"/><path clip-path="url(#a)" d="m390.8 108.3 14.1 5.7-41.1 28.4z" fill="#187139"/><path clip-path="url(#a)" d="m403.2 139 1.7-25-41.1 28.4z" fill="#298e44"/><path clip-path="url(#a)" d="m403.2 139 1.7-25 7.7 12z" fill="#7ab042"/><path clip-path="url(#a)" d="m421.7 108.3-16.8 5.7 7.7 12z" fill="#75b243"/><path clip-path="url(#a)" d="m329 94.9-2.1-18.6-2.9 22.1z" fill="#688e3c"/><path clip-path="url(#a)" d="m346.8 87.7-20-11.4 2.2 18.6z" fill="#a6c839"/><path clip-path="url(#a)" d="m329 94.9.9 33.2-5.9-29.7z" fill="#699940"/><path clip-path="url(#a)" d="m329 94.9.9 33.2 16.9-40.4z" fill="#3ea448"/><path clip-path="url(#a)" d="m363.8 142.4-33.9-14.3 16.9-40.4z" fill="#1e9346"/><path clip-path="url(#a)" d="m363.8 142.4-33.9-14.3-12.1 14.9z" fill="#17743b"/><path clip-path="url(#a)" d="m324 98.4 5.9 29.7-12.1 14.9z" fill="#6eb044"/><path clip-path="url(#a)" d="m324 98.4-13 9.9 6.8 34.7z" fill="#509d44"/><path clip-path="url(#a)" d="m285.2 127 25.8-18.7 6.8 34.7z" fill="#3a9946"/><path clip-path="url(#a)" d="m285.2 127 25.8-18.7-28.8-5.8z" fill="#72bf44"/><path clip-path="url(#a)" d="m285.2 127-8.6 7.7 5.6-32.2z" fill="#69ac44"/><path clip-path="url(#a)" d="m285.2 127-8.6 7.7 41.2 8.3z" fill="#185329"/><path clip-path="url(#a)" d="m303 147.7-26.4-13 41.2 8.3z" fill="#185c2e"/><path clip-path="url(#a)" d="m303 147.7-26.4-13 32.2 31.2z" fill="#3a8c42"/><path clip-path="url(#a)" d="m303 147.7 14.8-4.7-9 22.9z" fill="#126433"/><path clip-path="url(#a)" d="m328.7 164.8-10.9-21.8-9 22.9z" fill="#176a36"/><path clip-path="url(#a)" d="m328.7 164.8-10.9-21.8 25.2 10z" fill="#3a8f43"/><path clip-path="url(#a)" d="m363.8 142.4-46 .6 25.2 10z" fill="#136031"/><path clip-path="url(#a)" d="m363.8 142.4-11 33.8 12.4-13.2z" fill="#086936"/><path clip-path="url(#a)" d="m343 153 15.7 5 5.1-15.6z" fill="#117d3f"/><path clip-path="url(#a)" d="m343 153 15.7 5-17.9 17.1z" fill="#0e8943"/><path clip-path="url(#a)" d="m352.8 176.2 5.9-18.2-17.9 17.1z" fill="#17743b"/><path clip-path="url(#a)" d="m343 153-14.3 11.8 12.1 10.3z" fill="#17723a"/><path clip-path="url(#a)" d="m308.8 165.9 19.9-1.1 12.1 10.3z" fill="#0e542a"/><path clip-path="url(#a)" d="m308.8 165.9 12.9 10 8.7-3.8z" fill="#31823f"/><path clip-path="url(#a)" d="m340.8 175.1 1.5 6.1-11.9-9.1z" fill="#62893f"/><path clip-path="url(#a)" d="m340.8 175.1 1.5 6.1 10.5-5z" fill="#4d813b"/><path clip-path="url(#a)" d="m308.8 165.9h-8.8l1.6-7z" fill="#1a5329"/><path clip-path="url(#a)" d="m292.7 150.3 7.3 15.6 1.6-7z" fill="#2b7a3c"/><path clip-path="url(#a)" d="m362.8 174-10 2.2 12.4-13.2z" fill="#06582d"/><path clip-path="url(#a)" d="m362.8 174-10 2.2 7.4 3.3z" fill="#336c35"/><path clip-path="url(#a)" d="m362.8 174 5.3 4.9-7.9.6z" fill="#2a5e2e"/><path clip-path="url(#a)" d="m362.8 174 5.3 4.9-7.9.6z" fill="#2a5e2e"/><path clip-path="url(#a)" d="m362.8 174 5.3 4.9-7.9.6z" fill="#2a5e2e"/><path clip-path="url(#a)" d="m363.8 142.4 14.2 25.1-12.8-4.5z" fill="#096031"/><path clip-path="url(#a)" d="m363.8 142.4 17.6 31.1 13.6 6.2z" fill="#14562b"/><path clip-path="url(#a)" d="m363.8 142.4 43 5.2-11.8 32.1z" fill="#24733a"/><path clip-path="url(#a)" d="m363.8 142.4 43 5.2-3.6-8.6z" fill="#79af42"/><path clip-path="url(#a)" d="m413.1 169.5-6.3-21.9-7.3 19.9z" fill="#07783d"/><path clip-path="url(#a)" d="m413.1 169.5-7.3 9.6-6.3-11.6z" fill="#3b9f47"/><path clip-path="url(#a)" d="m413.1 169.5-7.3 9.6 35.8-4.3z" fill="#2f8d43"/><path clip-path="url(#a)" d="m413.1 169.5 42.4-2-13.9 7.3z" fill="#1c6f38"/><path clip-path="url(#a)" d="m413.1 169.5 42.4-2 15-14.2z" fill="#156534"/><path clip-path="url(#a)" d="m413.1 169.5 45.2-24.8 12.2 8.6z" fill="#1f8240"/><path clip-path="url(#a)" d="m413.1 169.5 45.2-24.8-28.2-20.3z" fill="#279245"/><path clip-path="url(#a)" d="m413.1 169.5 8.6-49.6 8.4 4.5z" fill="#459a45"/><path clip-path="url(#a)" d="m413.1 169.5 8.6-49.6-9.1 6.1z" fill="#25793c"/><path clip-path="url(#a)" d="m413.1 169.5-9.9-30.5 9.4-13z" fill="#2f9245"/><path clip-path="url(#a)" d="m421.7 108.3v11.6l-9.1 6.1z" fill="#4b8a3f"/><path clip-path="url(#a)" d="m455.2 115.3-33.5 4.6 8.4 4.5z" fill="#44843e"/><path clip-path="url(#a)" d="m455.2 115.3 3.1 29.4-28.2-20.3z" fill="#4ea647"/><path clip-path="url(#a)" d="m455.2 115.3 3.1 29.4 12.2 8.6z" fill="#185e30"/><path clip-path="url(#a)" d="m455.2 115.3 7.6 5.3 7.7 32.7z" fill="#54b047"/><path clip-path="url(#a)" d="m455.2 115.3 7.6 5.3 5.2-21z" fill="#9db943"/><path clip-path="url(#a)" d="m455.2 115.3-33.5 4.6 46.3-20.3z" fill="#94c53d"/><path clip-path="url(#a)" d="m421.7 108.3v11.6l46.3-20.3z" fill="#66a643"/><path clip-path="url(#a)" d="m421.7 108.3 16.7-39.8 29.6 31.1z" fill="#87c540"/><path clip-path="url(#a)" d="m421.7 108.3 16.7-39.8-6.7-6.8z" fill="#52ac47"/><path clip-path="url(#a)" d="m421.7 108.3-27.4-13 37.4-33.6z" fill="#63b045"/><path clip-path="url(#a)" d="m411.8 67.4-17.5 27.9 37.4-33.6z" fill="#74be44"/><path clip-path="url(#a)" d="m452 66.6-13.6 1.9 29.6 31.1z" fill="#aad047"/><path clip-path="url(#a)" d="m452 66.6 17.3 19.1-1.3 13.9z" fill="#c6dd72"/><path clip-path="url(#a)" d="m452 66.6-13.6 1.9-6.7-6.8z" fill="#94bb3e"/><path clip-path="url(#a)" d="m452 66.6 2.5-14.4-22.8 9.5z" fill="#6bb044"/><path clip-path="url(#a)" d="m443 48 11.5 4.2-22.8 9.5z" fill="#5ba945"/><path clip-path="url(#a)" d="m443 48-6.2-8.5-5.1 22.2z" fill="#59a345"/><path clip-path="url(#a)" d="m428.5 31.6 8.3 7.9-5.1 22.2z" fill="#6da943"/><path clip-path="url(#a)" d="m428.5 31.6-16.7 35.8 19.9-5.7z" fill="#88c140"/><path clip-path="url(#a)" d="m428.5 31.6-16.7 35.8-12.9-21.4z" fill="#79c143"/><path clip-path="url(#a)" d="m428.5 31.6-47.2 6.5 17.6 7.9z" fill="#aad042"/><path clip-path="url(#a)" d="m443 48 11.5 4.2-9.7-16.1z" fill="#ededcb"/><path clip-path="url(#a)" d="m443 48-6.2-8.5 8-3.4z" fill="#b8c480"/><path clip-path="url(#a)" d="m428.5 31.6 8.3 7.9-.2-15.9z" fill="#bbc56d"/><path clip-path="url(#a)" d="m428.5 31.6-10.1-19.2 18.2 11.2z" fill="#cedf70"/><path clip-path="url(#a)" d="m428.5 31.6-10.1-19.2-37.1 25.7z" fill="#8dc63f"/><path clip-path="url(#a)" d="m405.4 13.4 13-1-37.1 25.7z" fill="#83c241"/><path clip-path="url(#a)" d="m405.4 13.4 13-1-4.4-4z" fill="#a4bb3a"/><path clip-path="url(#a)" d="m344.3 15.9 3.1 20.2 26.5-36.1z" fill="#dee565"/><path clip-path="url(#a)" d="m381.3 38.1-33.9-2 26.5-36.1z" fill="#d7e15f"/><path clip-path="url(#a)" d="m381.3 38.1 24.1-24.7-31.5-13.4z" fill="#abd037"/><path clip-path="url(#a)" d="m405.4 13.4-13.4-5.7 22 .7z" fill="#b3c935"/><path clip-path="url(#a)" d="m395.3 3.5-3.3 4.2 8.8.3z" fill="#b3b874"/><path clip-path="url(#a)" d="m395.3 3.5-3.3 4.2-9.1-3.8z" fill="#afb94a"/><path clip-path="url(#a)" d="m335.2 14.4-11.1 1.5 5.4 10.6z" fill="#b2bd65"/><path clip-path="url(#a)" d="m436.7 31.5.1 8 8-3.4z" fill="#bbc188"/><path clip-path="url(#a)" d="m452 66.6 1.1-6.2 6.7 8.2z" fill="#9db758"/><path clip-path="url(#a)" d="m452 66.6 10.7 11.8-2.9-9.8z" fill="#afbf77"/><path clip-path="url(#a)" d="m469.1 117-6.3 3.6 3.6-14.6z" fill="#a3ba52"/><path clip-path="url(#a)" d="m469.1 117-6.3 3.6 1.7 7.4z" fill="#7fab40"/><path clip-path="url(#a)" d="m395 179.7 9-3.8-4.5-8.4z" fill="#195128"/><path clip-path="url(#a)" d="m395 179.7 9-3.8 1.8 3.2 2 5z" fill="#3a8d42"/><path clip-path="url(#a)" d="m419 177.5-13.2 1.6 2 5z" fill="#257b3d"/><path clip-path="url(#a)" d="m368.1 178.9v43l4.4-30.1-2.9-27.2z" fill="#7d453c"/><path clip-path="url(#a)" d="m362.8 174 2.4-11 3.8 7.4z" fill="#0f341c"/><path clip-path="url(#a)" d="m369.6 164.6-4.4-1.6 3.8 7.4z" fill="#0d2114"/><path clip-path="url(#a)" d="m369.6 164.6 4.4 1.5.3 42.8z" fill="#270f0d"/><path clip-path="url(#a)" d="m378.9 169.1-.9-1.6-4-1.4.3 42.8 1.7 18.6z" fill="#5b1715"/><path clip-path="url(#a)" d="m378.9 169.1 2.5 4.4-1.7 27.5-3.7 26.5z" fill="#43201c"/><path clip-path="url(#a)" d="m388.4 259.2-5-18.3.6 18.4z" fill="#8f564a"/><path clip-path="url(#a)" d="m379.7 259.4-3.7-31.9 8 31.8z" fill="#521c1a"/><path clip-path="url(#a)" d="m379.7 259.4-3.7-31.9-2.3 32.1z" fill="#270e0e"/><path clip-path="url(#a)" d="m368.5 259.7 2.6-15.3 2.6 15.2z" fill="#5b1b1d"/><path clip-path="url(#a)" d="m368.5 259.7 2.6-15.3-.9-16.6-5.1 32z" fill="#512721"/><path clip-path="url(#a)" d="m361.8 259.9 8.4-32.1-5.1 32z" fill="#9b5e4d"/><path clip-path="url(#a)" d="m374.3 208.9-4.1 18.9.9 16.6 2.6 15.2z" fill="#441615"/><path clip-path="url(#a)" d="m374.3 208.9 1.7 18.6-2.3 32.1z" fill="#301814"/><path clip-path="url(#a)" d="m372.5 191.8-4.4 30.1-.9 17.1 3-11.2 4.1-18.9z" fill="#541717"/><path clip-path="url(#a)" d="m376 227.5 3.8-29 3.6 42.4.6 18.4z" fill="#642f29"/><path clip-path="url(#a)" d="m379.7 230 .1-31.5 3.6 42.4.6 18.4z" fill="#7d453c"/><path clip-path="url(#a)" d="m388.2 176.6-7.2 2.4.4-5.5z" fill="#22451f"/><path clip-path="url(#a)" d="m368.1 178.9.9-8.5-6.2 3.6z" fill="#32582a"/></g><path clip-path="url(#b)" d="m404.3 213.3h22.8v44.4h-22.8z" fill="url(#d)"/><path clip-path="url(#e)" d="m419.8 214.9 23.4-1.7 3.8 51.8-23.3 1.7z" fill="url(#f)"/><path clip-path="url(#g)" d="m384.1 223.2 26-9.5 14.6 40.4-25.9 9.4z" fill="url(#h)"/><path clip-path="url(#i)" d="m446.6 272.3-34.8-34.8 34.8-34.8 34.8 34.8z" fill="url(#j)"/><path clip-path="url(#k)" d="m438.3 207h24.5v23.2h-24.5z" fill="url(#l)"/><path clip-path="url(#m)" d="m466.3 202.6 1 23.8-20.2.8-1-23.7z" fill="url(#n)"/><path clip-path="url(#o)" d="m438 215.2h.3c0-.1-.1-.2-.1-.2s-.1.1-.2.2"/></svg>