<svg xmlns="http://www.w3.org/2000/svg" xmlns:xlink="http://www.w3.org/1999/xlink" width="117.65" height="126.19" viewBox="0 0 117.65 126.19"><defs><linearGradient id="a" x1="24.01" y1="36.4" x2="59" y2="36.4" gradientUnits="userSpaceOnUse"><stop offset="0" stop-color="#0c4196"/><stop offset="1" stop-color="#004ab5"/></linearGradient><linearGradient id="b" x1="50.78" y1="48.18" x2="85.77" y2="48.18" xlink:href="#a"/><linearGradient id="c" x1="77.24" y1="88.98" x2="95.71" y2="88.98" gradientUnits="userSpaceOnUse"><stop offset="0" stop-color="#28bbe4"/><stop offset="1" stop-color="#08d1ff"/></linearGradient><linearGradient id="d" x1="2053.1" y1="1075.73" x2="2058.72" y2="1075.73" gradientTransform="translate(1135.39 -2009.98) rotate(90)" xlink:href="#c"/><linearGradient id="e" x1="2053.1" y1="1067.26" x2="2058.72" y2="1067.26" gradientTransform="translate(1135.39 -2009.98) rotate(90)" xlink:href="#c"/><linearGradient id="f" x1="2053.1" y1="1058.84" x2="2058.72" y2="1058.84" gradientTransform="translate(1135.39 -2009.98) rotate(90)" xlink:href="#c"/><linearGradient id="g" x1="99.13" y1="45.69" x2="117.1" y2="45.69" xlink:href="#c"/><linearGradient id="h" x1="74.22" y1="8.99" x2="84.7" y2="8.99" xlink:href="#c"/><linearGradient id="i" x1="112.41" y1="25.08" x2="117.65" y2="25.08" xlink:href="#c"/><linearGradient id="j" x1="104.92" y1="5.24" x2="115.4" y2="5.24" xlink:href="#c"/><linearGradient id="k" x1="95.53" y1="21.11" x2="102.27" y2="21.11" xlink:href="#c"/></defs><title>active-consulting-support copy</title><path d="M83.43,27.72H64.48v-4a7.83,7.83,0,0,0-7.82-7.82H26.35a7.83,7.83,0,0,0-7.82,7.82V55.11A3.43,3.43,0,0,0,23.78,58l7-4.42H45.3v4a7.83,7.83,0,0,0,7.82,7.82H79c1.12,0,3.75,2.32,4.9,2.91,1.43.75,4,2.48,5.6,1.61a3.44,3.44,0,0,0,1.76-3V35.55A7.82,7.82,0,0,0,83.43,27.72ZM45.3,35.55V48.1H30.37a4,4,0,0,0-2.15.61L24,51.37V23.76a2.34,2.34,0,0,1,2.34-2.33H56.66A2.34,2.34,0,0,1,59,23.76v4H53.12A7.82,7.82,0,0,0,45.3,35.55ZM85.77,63.15l-4.22-2.65a4,4,0,0,0-2.15-.62H53.12a2.34,2.34,0,0,1-2.34-2.34v-22a2.34,2.34,0,0,1,2.34-2.34H83.43a2.34,2.34,0,0,1,2.34,2.34Z" style="fill:#8dbbff"/><path d="M59,23.76v4H53.12a7.82,7.82,0,0,0-7.82,7.82V48.1H30.37a4,4,0,0,0-2.15.61L24,51.37V23.76a2.34,2.34,0,0,1,2.34-2.33H56.66A2.34,2.34,0,0,1,59,23.76Z" style="fill:url(#a)"/><path d="M85.77,35.55V63.15l-4.22-2.65a4,4,0,0,0-2.15-.62H53.12a2.34,2.34,0,0,1-2.34-2.34v-22a2.34,2.34,0,0,1,2.34-2.34H83.43A2.34,2.34,0,0,1,85.77,35.55Z" style="fill:url(#b)"/><path d="M41.66,110.65v10.58H5V110.65a11.91,11.91,0,0,1,3.41-8.35,2.42,2.42,0,0,0,.34-2.93l0,0a2.44,2.44,0,0,0-3.82-.55A16.88,16.88,0,0,0,0,110.65v15.54H46.62V110.65a16.88,16.88,0,0,0-4.87-11.87,2.44,2.44,0,0,0-3.82.55l0,0a2.42,2.42,0,0,0,.34,2.93A11.93,11.93,0,0,1,41.66,110.65Z" style="fill:#8dbbff"/><path d="M24,73.21H22.6A13.5,13.5,0,0,0,9.12,86.7v4.57A13.5,13.5,0,0,0,22.6,104.75H24A13.5,13.5,0,0,0,37.5,91.27V86.7A13.5,13.5,0,0,0,24,73.21Zm8.52,18.05A8.53,8.53,0,0,1,24,99.79H22.6a8.53,8.53,0,0,1-8.52-8.52V86.69a8.53,8.53,0,0,1,8.52-8.52H24a8.53,8.53,0,0,1,8.52,8.52v4.57Z" style="fill:#8dbbff"/><path d="M101.1,99.33l0,0a2.42,2.42,0,0,0,.34,2.93,11.91,11.91,0,0,1,3.41,8.35v10.58H68.12V110.65a11.92,11.92,0,0,1,3.41-8.35,2.42,2.42,0,0,0,.34-2.93l0,0A2.44,2.44,0,0,0,68,98.78a16.88,16.88,0,0,0-4.87,11.87v15.54h46.62V110.65a16.88,16.88,0,0,0-4.87-11.87A2.44,2.44,0,0,0,101.1,99.33Z" style="fill:#8dbbff"/><path d="M87.18,73.21H85.76A13.49,13.49,0,0,0,72.28,86.7v4.57a13.5,13.5,0,0,0,13.48,13.49h1.42a13.5,13.5,0,0,0,13.49-13.49V86.7A13.5,13.5,0,0,0,87.18,73.21Zm8.53,18.05a8.53,8.53,0,0,1-8.53,8.52H85.76a8.53,8.53,0,0,1-8.52-8.52V86.7a8.54,8.54,0,0,1,8.52-8.53h1.42a8.54,8.54,0,0,1,8.53,8.53Z" style="fill:#8dbbff"/><path d="M95.71,86.7v4.57a8.53,8.53,0,0,1-8.53,8.52H85.76a8.53,8.53,0,0,1-8.52-8.52V86.7a8.54,8.54,0,0,1,8.52-8.53h1.42A8.54,8.54,0,0,1,95.71,86.7Z" style="fill:url(#c)"/><circle cx="59.66" cy="45.93" r="2.81" style="fill:url(#d)"/><circle cx="68.13" cy="45.93" r="2.81" style="fill:url(#e)"/><circle cx="76.55" cy="45.93" r="2.81" style="fill:url(#f)"/><circle cx="108.12" cy="45.69" r="8.99" style="fill:url(#g)"/><circle cx="79.46" cy="8.99" r="5.24" style="fill:url(#h)"/><circle cx="115.03" cy="25.08" r="2.62" style="fill:url(#i)"/><circle cx="110.16" cy="5.24" r="5.24" style="fill:url(#j)"/><circle cx="98.9" cy="21.11" r="3.37" style="fill:url(#k)"/></svg>