<svg xmlns="http://www.w3.org/2000/svg" xmlns:xlink="http://www.w3.org/1999/xlink" width="120.19" height="153.92" viewBox="0 0 120.19 153.92"><defs><linearGradient id="a" x1="25.38" y1="144.16" x2="48.82" y2="144.16" gradientUnits="userSpaceOnUse"><stop offset="0" stop-color="#28bbe4"/><stop offset="1" stop-color="#08d1ff"/></linearGradient><linearGradient id="b" x1="27.34" y1="38.72" x2="46.86" y2="38.72" xlink:href="#a"/><linearGradient id="c" x1="7.81" y1="91.44" x2="66.39" y2="91.44" xlink:href="#a"/><linearGradient id="d" x1="3.9" y1="144.16" x2="70.29" y2="144.16" gradientUnits="userSpaceOnUse"><stop offset="0" stop-color="#0c4196"/><stop offset="1" stop-color="#004ab5"/></linearGradient><linearGradient id="e" x1="3.9" y1="38.72" x2="70.29" y2="38.72" xlink:href="#d"/><linearGradient id="f" x1="7.7" y1="91.44" x2="68.7" y2="91.44" xlink:href="#d"/><linearGradient id="g" x1="102.22" y1="33.69" x2="120.19" y2="33.69" xlink:href="#a"/><linearGradient id="h" x1="48.31" y1="8.99" x2="58.8" y2="8.99" xlink:href="#a"/><linearGradient id="i" x1="86.5" y1="25.08" x2="91.74" y2="25.08" xlink:href="#a"/><linearGradient id="j" x1="79.01" y1="5.24" x2="89.49" y2="5.24" xlink:href="#a"/><linearGradient id="k" x1="87.62" y1="86.11" x2="94.36" y2="86.11" xlink:href="#a"/></defs><title>active-mobile development</title><path d="M48.82,144.16a2,2,0,0,1-2,2H27.34a2,2,0,1,1,0-3.9H46.86A2,2,0,0,1,48.82,144.16Z" style="fill:url(#a)"/><path d="M46.86,38.72a2,2,0,0,1-2,1.95H29.29a2,2,0,1,1,0-3.9H44.91A2,2,0,0,1,46.86,38.72Z" style="fill:url(#b)"/><path d="M37.1,79.32A12.12,12.12,0,1,0,49.22,91.44,12.12,12.12,0,0,0,37.1,79.32Zm0,20.33a8.21,8.21,0,1,1,8.21-8.21A8.22,8.22,0,0,1,37.1,99.65Zm0-20.33A12.12,12.12,0,1,0,49.22,91.44,12.12,12.12,0,0,0,37.1,79.32Zm0,20.33a8.21,8.21,0,1,1,8.21-8.21A8.22,8.22,0,0,1,37.1,99.65ZM62.34,83.91l-2.94-.43a21.82,21.82,0,0,0-1-2.39l1.71-2.35a4.58,4.58,0,0,0-.54-6.28l-4-3.9a4.73,4.73,0,0,0-6.27-.37L47,69.93c-.64-.3-1.3-.56-2-.8l-.43-2.93a4.57,4.57,0,0,0-4.67-4H34.23a4.64,4.64,0,0,0-4.67,4s-.35,2.43-.43,3a23,23,0,0,0-2.39,1l-2.37-1.72c-1.06-.76-3-2.48-6.21.5-.88.81-3.94,4-3.94,4a4.61,4.61,0,0,0-.39,6.29l1.75,2.3c-.3.64-.57,1.3-.8,2l-3,.43a4.59,4.59,0,0,0-4,4.69v5.69A4.59,4.59,0,0,0,11.87,99l2.92.43a22.32,22.32,0,0,0,1,2.39l-1.71,2.35a4.6,4.6,0,0,0,.52,6.27l4,3.91a4.72,4.72,0,0,0,6.28.36l2.28-1.73c.65.3,1.3.56,2,.8.1.63.43,2.92.43,2.92a4.6,4.6,0,0,0,4.67,4.06H40a4.63,4.63,0,0,0,4.66-4c.15-1,.29-2,.43-3a22.94,22.94,0,0,0,2.39-1l2.33,1.69a4.71,4.71,0,0,0,6.32-.54L60,110a4.61,4.61,0,0,0,.38-6.28l-1.75-2.31c.3-.65.57-1.3.81-2l3-.43a4.62,4.62,0,0,0,4-4.65V88.56A4.62,4.62,0,0,0,62.34,83.91Zm.14,10.41a.72.72,0,0,1-.7.79l-5.05.73a.46.46,0,0,0-.46.41,18.59,18.59,0,0,1-2.17,5.27.32.32,0,0,0,0,.44q1.57,2,3.11,4.08a.76.76,0,0,1-.07,1.19l-3.89,4a.82.82,0,0,1-1.21.11l-4.14-3a.47.47,0,0,0-.42,0,19,19,0,0,1-5.68,2.39c-.25.06-.3.19-.33.4-.24,1.71-.49,3.4-.74,5.11a.71.71,0,0,1-.8.68H34.23a.72.72,0,0,1-.81-.71c-.24-1.69-.49-3.38-.73-5.08a.43.43,0,0,0-.38-.42,18.39,18.39,0,0,1-5.22-2.13.66.66,0,0,0-.56,0c-1.34,1-2.69,2.06-4,3.08a.8.8,0,0,1-1.17-.06q-2-1.95-4-3.91a.75.75,0,0,1-.1-1.18c1-1.39,2-2.78,3-4.14a.34.34,0,0,0,0-.45,18.77,18.77,0,0,1-2.38-5.66c-.06-.26-.19-.31-.42-.34l-5.07-.74a.72.72,0,0,1-.7-.82V88.59a.72.72,0,0,1,.7-.82L17.49,87c.22,0,.36-.08.42-.34a18.81,18.81,0,0,1,2.18-5.33.33.33,0,0,0,0-.44C19,79.57,18,78.21,16.95,76.84A.76.76,0,0,1,17,75.66l3.93-4a.79.79,0,0,1,1.14-.08q2.08,1.5,4.14,3a.52.52,0,0,0,.47,0,18.86,18.86,0,0,1,5.64-2.37.41.41,0,0,0,.36-.41c.24-1.71.49-3.4.74-5.1a.72.72,0,0,1,.81-.69H40a.71.71,0,0,1,.81.71c.25,1.69.5,3.38.74,5.08a.43.43,0,0,0,.38.42,18.52,18.52,0,0,1,5.22,2.13.65.65,0,0,0,.56,0c1.34-1,2.69-2.06,4-3.08a.8.8,0,0,1,1.16.06l4,3.91a.75.75,0,0,1,.1,1.18c-1,1.38-2,2.77-3,4.14a.33.33,0,0,0,0,.44,18.76,18.76,0,0,1,2.38,5.66c.06.26.2.31.42.34l5.07.74a.72.72,0,0,1,.7.79Zm-25.38-15A12.12,12.12,0,1,0,49.22,91.44,12.12,12.12,0,0,0,37.1,79.32Zm0,20.33a8.21,8.21,0,1,1,8.21-8.21A8.22,8.22,0,0,1,37.1,99.65Zm0-20.33A12.12,12.12,0,1,0,49.22,91.44,12.12,12.12,0,0,0,37.1,79.32Zm0,20.33a8.21,8.21,0,1,1,8.21-8.21A8.22,8.22,0,0,1,37.1,99.65Zm0-20.33A12.12,12.12,0,1,0,49.22,91.44,12.12,12.12,0,0,0,37.1,79.32Zm0,20.33a8.21,8.21,0,1,1,8.21-8.21A8.22,8.22,0,0,1,37.1,99.65Zm0-20.33A12.12,12.12,0,1,0,49.22,91.44,12.12,12.12,0,0,0,37.1,79.32Zm0,20.33a8.21,8.21,0,1,1,8.21-8.21A8.22,8.22,0,0,1,37.1,99.65Zm0-20.33A12.12,12.12,0,1,0,49.22,91.44,12.12,12.12,0,0,0,37.1,79.32Zm0,20.33a8.21,8.21,0,1,1,8.21-8.21A8.22,8.22,0,0,1,37.1,99.65Z" style="fill:url(#c)"/><path d="M66.28,29H7.91A7.86,7.86,0,0,0,0,36.77V146.11a7.86,7.86,0,0,0,7.91,7.81H66.28a7.86,7.86,0,0,0,7.91-7.81V36.77A7.86,7.86,0,0,0,66.28,29Zm4,117.16a4,4,0,0,1-4,3.9H7.91a4,4,0,0,1-4-3.9V138.3H70.29Zm0-11.71H3.9V48.48H70.29Zm0-89.82H3.9V36.77a4,4,0,0,1,4-3.9H66.28a4,4,0,0,1,4,3.9Z" style="fill:#8dbbff"/><path d="M3.9,138.3v7.81a4,4,0,0,0,4,3.9H66.28a4,4,0,0,0,4-3.9V138.3Zm43,7.81H27.34a2,2,0,1,1,0-3.9H46.86a2,2,0,1,1,0,3.9Z" style="fill:url(#d)"/><path d="M66.28,32.86H7.91a4,4,0,0,0-4,3.9v7.81H70.29V36.77A4,4,0,0,0,66.28,32.86ZM44.91,40.67H29.29a2,2,0,1,1,0-3.9H44.91a2,2,0,1,1,0,3.9Z" style="fill:url(#e)"/><path d="M3.9,48.48V134.4H70.29V48.48ZM66.39,94.32a4.62,4.62,0,0,1-4,4.65l-3,.43c-.23.66-.5,1.32-.81,2l1.75,2.31A4.61,4.61,0,0,1,60,110l-3.88,3.95a4.71,4.71,0,0,1-6.32.54l-2.33-1.69a22.94,22.94,0,0,1-2.39,1c-.14,1-.29,2-.43,3a4.63,4.63,0,0,1-4.66,4H34.23a4.6,4.6,0,0,1-4.67-4.06s-.33-2.29-.43-2.92c-.66-.24-1.32-.5-2-.8l-2.28,1.73a4.72,4.72,0,0,1-6.28-.36l-4-3.91a4.6,4.6,0,0,1-.52-6.27l1.71-2.35a22.32,22.32,0,0,1-1-2.39L11.87,99a4.59,4.59,0,0,1-4.05-4.69V88.59a4.59,4.59,0,0,1,4-4.69l3-.43c.23-.67.5-1.32.8-2l-1.75-2.3a4.61,4.61,0,0,1,.39-6.29s3.06-3.2,3.94-4c3.19-3,5.15-1.26,6.21-.5l2.37,1.72a23,23,0,0,1,2.39-1c.08-.55.43-3,.43-3a4.64,4.64,0,0,1,4.67-4H40a4.57,4.57,0,0,1,4.67,4l.43,2.93c.67.24,1.32.5,2,.8l2.3-1.74a4.73,4.73,0,0,1,6.27.37l4,3.9a4.58,4.58,0,0,1,.54,6.28L58.4,81.09a21.82,21.82,0,0,1,1,2.39l2.94.43a4.62,4.62,0,0,1,4,4.65Z" style="fill:url(#f)"/><path d="M61.78,87.77,56.71,87c-.22,0-.36-.08-.42-.34A18.76,18.76,0,0,0,53.91,81a.33.33,0,0,1,0-.44c1-1.37,2-2.76,3-4.14a.75.75,0,0,0-.1-1.18l-4-3.91a.8.8,0,0,0-1.16-.06c-1.35,1-2.7,2-4,3.08a.65.65,0,0,1-.56,0,18.52,18.52,0,0,0-5.22-2.13.43.43,0,0,1-.38-.42c-.23-1.69-.49-3.38-.74-5.08a.71.71,0,0,0-.81-.71H34.23a.72.72,0,0,0-.81.69c-.25,1.71-.5,3.4-.74,5.1a.41.41,0,0,1-.36.41,18.86,18.86,0,0,0-5.64,2.37.52.52,0,0,1-.47,0q-2.06-1.53-4.14-3a.79.79,0,0,0-1.14.08l-3.93,4a.76.76,0,0,0-.07,1.19c1,1.36,2.07,2.72,3.12,4.08a.33.33,0,0,1,0,.44,18.81,18.81,0,0,0-2.18,5.33c-.06.27-.2.31-.42.34l-5.08.74a.72.72,0,0,0-.7.82v5.69a.72.72,0,0,0,.7.82l5.07.74c.22,0,.36.08.42.34a18.77,18.77,0,0,0,2.38,5.66.34.34,0,0,1,0,.45c-1,1.36-2,2.76-3,4.14a.75.75,0,0,0,.1,1.18q2,2,4,3.91a.8.8,0,0,0,1.17.06c1.34-1,2.7-2,4-3.08a.66.66,0,0,1,.56,0,18.39,18.39,0,0,0,5.22,2.13.43.43,0,0,1,.38.42c.24,1.69.49,3.38.73,5.08a.72.72,0,0,0,.81.71H40a.71.71,0,0,0,.8-.68c.25-1.71.5-3.4.74-5.11,0-.21.08-.34.33-.4a19,19,0,0,0,5.68-2.39.47.47,0,0,1,.42,0l4.14,3a.82.82,0,0,0,1.21-.11l3.89-4a.76.76,0,0,0,.07-1.19q-1.55-2-3.11-4.08a.32.32,0,0,1,0-.44,18.59,18.59,0,0,0,2.17-5.27.46.46,0,0,1,.46-.41l5.05-.73a.72.72,0,0,0,.7-.79V88.56A.72.72,0,0,0,61.78,87.77ZM37.1,103.56A12.12,12.12,0,1,1,49.22,91.44,12.12,12.12,0,0,1,37.1,103.56Z" style="fill:#0c4196"/><circle cx="37.1" cy="91.44" r="8.21" style="fill:#0c4196"/><circle cx="111.21" cy="33.69" r="8.99" style="fill:url(#g)"/><circle cx="53.55" cy="8.99" r="5.24" style="fill:url(#h)"/><circle cx="89.12" cy="25.08" r="2.62" style="fill:url(#i)"/><circle cx="84.25" cy="5.24" r="5.24" style="fill:url(#j)"/><circle cx="90.99" cy="86.11" r="3.37" style="fill:url(#k)"/></svg>