<svg xmlns="http://www.w3.org/2000/svg" xmlns:xlink="http://www.w3.org/1999/xlink" width="132.45" height="111.51" viewBox="0 0 132.45 111.51"><defs><linearGradient id="a" x1="1011.32" y1="-1187.8" x2="1024.61" y2="-1187.8" gradientTransform="translate(1278.28 1026.44) rotate(-90)" gradientUnits="userSpaceOnUse"><stop offset="0" stop-color="#0c4196"/><stop offset="1" stop-color="#004ab5"/></linearGradient><linearGradient id="b" x1="1011.1" y1="-1242.25" x2="1024.38" y2="-1242.25" xlink:href="#a"/><linearGradient id="c" x1="964.46" y1="-1160.48" x2="977.75" y2="-1160.48" xlink:href="#a"/><linearGradient id="d" x1="963.65" y1="-1269.81" x2="976.93" y2="-1269.81" xlink:href="#a"/><linearGradient id="e" x1="39.25" y1="55.91" x2="87.03" y2="55.56" gradientTransform="matrix(1, 0, 0, 1, 0, 0)" xlink:href="#a"/><linearGradient id="f" x1="916.75" y1="-1187.49" x2="930.24" y2="-1187.49" xlink:href="#a"/><linearGradient id="g" x1="916.78" y1="-1242.5" x2="930.07" y2="-1242.5" xlink:href="#a"/><linearGradient id="h" x1="52.21" y1="55.76" x2="74.06" y2="55.76" gradientUnits="userSpaceOnUse"><stop offset="0" stop-color="#28bbe4"/><stop offset="1" stop-color="#08d1ff"/></linearGradient><linearGradient id="i" x1="114.48" y1="31.75" x2="132.45" y2="31.75" xlink:href="#h"/><linearGradient id="j" x1="57.57" y1="12.04" x2="68.05" y2="12.04" xlink:href="#h"/><linearGradient id="k" x1="95.75" y1="28.14" x2="100.99" y2="28.14" xlink:href="#h"/><linearGradient id="l" x1="108.26" y1="8.3" x2="118.75" y2="8.3" xlink:href="#h"/><linearGradient id="m" x1="97.87" y1="86.16" x2="104.61" y2="86.16" xlink:href="#h"/></defs><title>active-Protocol Expertise copy</title><path d="M87.15,2.73A6.64,6.64,0,0,1,94,14.07l-.22.14a6.63,6.63,0,0,1-9.08-2.4,6.64,6.64,0,0,1,2.4-9.08Z" style="fill:url(#a)"/><path d="M32.7,3a6.65,6.65,0,0,1,9.08,2.4,6.47,6.47,0,0,1,.89,3,6.64,6.64,0,0,1-3.29,6.09l-.07,0A6.64,6.64,0,0,1,32.7,3Z" style="fill:url(#b)"/><path d="M114.63,49.49a6.64,6.64,0,1,1,.28,11.82,6.56,6.56,0,0,1-2.86-2.64,6.47,6.47,0,0,1-.9-3.2,6.63,6.63,0,0,1,3.3-5.88Z" style="fill:url(#c)"/><path d="M11.63,50.3a6.64,6.64,0,0,1,.26,11.54l-.08.05a6.64,6.64,0,1,1-.18-11.59Z" style="fill:url(#d)"/><path d="M87,55.61v.25a23.86,23.86,0,0,1-23.9,23.77h-.51A23.84,23.84,0,0,1,39.25,56.1c0-.08,0-.16,0-.24v-.13A23.77,23.77,0,0,1,50.89,35.17a24,24,0,0,1,11.73-3.32h.51A23.85,23.85,0,0,1,87,55.61Z" style="fill:url(#e)"/><path d="M94.28,97.21l.28.17a6.65,6.65,0,0,1,2,2.17A6.73,6.73,0,0,1,85,106.33a6.5,6.5,0,0,1-.92-3.2,6.81,6.81,0,0,1,3.26-5.94l.09-.06A6.55,6.55,0,0,1,94.28,97.21Z" style="fill:url(#f)"/><path d="M32.47,97.25a6.63,6.63,0,0,1,9.05,2.42,6.64,6.64,0,1,1-9.08-2.4Z" style="fill:url(#g)"/><path d="M37.43,56.33c0-.19,0-.4,0-.59A25.67,25.67,0,0,1,63,30h.26A25.68,25.68,0,0,1,88.85,55.74c0,.2,0,.39,0,.59l-3.64-.15c0-.14,0-.28,0-.43a22,22,0,0,0-22-22.08H63A22,22,0,0,0,41.06,55.74c0,.14,0,.29,0,.43Z" style="fill:#8dbbff"/><path d="M90.83,111.51a8.46,8.46,0,0,1-2.2-.29,8.67,8.67,0,0,1-5.21-4,8.34,8.34,0,0,1-1.18-4.1,8.66,8.66,0,0,1,4.07-7.48l.18-.12a8.37,8.37,0,0,1,8.73.08l.37.23a8.44,8.44,0,0,1,2.61,2.79,8.55,8.55,0,0,1-3.07,11.66A8.32,8.32,0,0,1,90.83,111.51ZM88.38,98.67l-.1.07a5,5,0,0,0-2.4,4.34,4.7,4.7,0,0,0,.67,2.32,5.05,5.05,0,0,0,3,2.31,4.71,4.71,0,0,0,3.67-.51,4.92,4.92,0,0,0,1.8-6.7,4.85,4.85,0,0,0-1.46-1.57l-.25-.16A4.71,4.71,0,0,0,88.38,98.67Z" style="fill:#8dbbff"/><path d="M35.79,111.48a8.47,8.47,0,0,1-4.48-15.66l.38-.38H32a8.45,8.45,0,0,1,11.1,3.31,8.48,8.48,0,0,1-7.3,12.73ZM33.25,98.9a4.83,4.83,0,0,0,1.3,8.77,4.83,4.83,0,0,0,6-4.48h0a4.77,4.77,0,0,0-.65-2.6,4.81,4.81,0,0,0-6.57-1.75Z" style="fill:#8dbbff"/><path d="M117.8,63.8a8.49,8.49,0,0,1-3.68-.84,8.46,8.46,0,0,1-4.78-7.46,8.46,8.46,0,0,1,4.2-7.48l.28-.15a8.46,8.46,0,1,1,4,15.93Zm0-13.3a4.83,4.83,0,0,0-2.31.59l-.1.05A4.84,4.84,0,0,0,113,55.43a4.7,4.7,0,0,0,.65,2.32,4.76,4.76,0,0,0,2.07,1.92h0a4.83,4.83,0,1,0,2.12-9.17Z" style="fill:#8dbbff"/><path d="M8.48,64.61a8.47,8.47,0,1,1,4.44-1.26l-.23.14A8.43,8.43,0,0,1,8.48,64.61Zm0-13.29a4.82,4.82,0,1,0,2.33,9l.16-.1a4.82,4.82,0,0,0-2.49-9Z" style="fill:#8dbbff"/><path d="M90.47,16.93a8.44,8.44,0,0,1-4.6-1.37h0a8.47,8.47,0,0,1,.37-14.41A8.46,8.46,0,0,1,95,15.59l-.26.17A8.58,8.58,0,0,1,90.47,16.93Zm-2.62-4.42a4.82,4.82,0,0,0,5.06.13l.09-.05.08,0a4.8,4.8,0,1,0-5.22,0Z" style="fill:#8dbbff"/><path d="M36,17.17a8.44,8.44,0,0,1-4.62-1.38h0a8.46,8.46,0,0,1,.38-14.41A8.46,8.46,0,0,1,40.32,16l-.21.11A8.44,8.44,0,0,1,36,17.17ZM33.4,12.74a4.79,4.79,0,0,0,5,.15l.17-.09a4.82,4.82,0,0,0,2.28-4.36,4.7,4.7,0,0,0-.64-2.17,4.82,4.82,0,1,0-6.8,6.46Z" style="fill:#8dbbff"/><rect x="87.28" y="53.72" width="23.64" height="3.64" transform="translate(-0.31 0.56) rotate(-0.32)" style="fill:#8dbbff"/><rect x="69.22" y="23.28" width="22.58" height="3.64" transform="translate(19.42 83.24) rotate(-60.9)" style="fill:#8dbbff"/><rect x="33.61" y="84.96" width="23.01" height="3.64" transform="translate(-52.6 82.46) rotate(-60)" style="fill:#8dbbff"/><rect x="43.11" y="13.15" width="3.64" height="22.82" transform="translate(-6.27 25.01) rotate(-29.17)" style="fill:#8dbbff"/><rect x="79.27" y="75.31" width="3.64" height="23.58" transform="translate(-33.68 55.64) rotate(-31.72)" style="fill:#8dbbff"/><rect x="16.24" y="54.3" width="21.72" height="3.64" style="fill:#8dbbff"/><path d="M63.26,81.45h-.13A25.45,25.45,0,0,1,41,68.91a26,26,0,0,1-3.57-12.62l3.64-.08a22.32,22.32,0,0,0,3.07,10.85,21.84,21.84,0,0,0,19,10.75h.35A22,22,0,0,0,85.2,56.21l3.64.08A25.66,25.66,0,0,1,63.58,81.44Z" style="fill:#8dbbff"/><rect x="60.8" y="31.71" width="3.64" height="0.14" style="fill:#8dbbff"/><rect x="60.8" y="79.62" width="3.64" height="0.13" style="fill:#8dbbff"/><circle cx="63.13" cy="55.76" r="10.93" style="fill:url(#h)"/><circle cx="123.46" cy="31.75" r="8.99" style="fill:url(#i)"/><circle cx="62.81" cy="12.04" r="5.24" style="fill:url(#j)"/><circle cx="98.37" cy="28.14" r="2.62" style="fill:url(#k)"/><circle cx="113.51" cy="8.3" r="5.24" style="fill:url(#l)"/><circle cx="101.24" cy="86.16" r="3.37" style="fill:url(#m)"/></svg>