<svg xmlns="http://www.w3.org/2000/svg" xmlns:xlink="http://www.w3.org/1999/xlink" width="127.52" height="134.06" viewBox="0 0 127.52 134.06"><defs><linearGradient id="a" x1="3.99" y1="102.13" x2="31.94" y2="102.13" gradientUnits="userSpaceOnUse"><stop offset="0" stop-color="#0c4196"/><stop offset="1" stop-color="#004ab5"/></linearGradient><linearGradient id="b" x1="91.81" y1="102.13" x2="119.76" y2="102.13" xlink:href="#a"/><linearGradient id="c" x1="39.93" y1="20.3" x2="83.85" y2="20.3" xlink:href="#a"/><linearGradient id="d" x1="39.93" y1="52.21" x2="83.85" y2="52.21" xlink:href="#a"/><linearGradient id="e" x1="39.93" y1="36.26" x2="83.85" y2="36.26" xlink:href="#a"/><linearGradient id="f" x1="43.92" y1="20.3" x2="47.92" y2="20.3" gradientUnits="userSpaceOnUse"><stop offset="0" stop-color="#28bbe4"/><stop offset="1" stop-color="#08d1ff"/></linearGradient><linearGradient id="g" x1="51.89" y1="20.3" x2="55.88" y2="20.3" xlink:href="#f"/><linearGradient id="h" x1="59.88" y1="20.3" x2="63.87" y2="20.3" xlink:href="#f"/><linearGradient id="i" x1="67.87" y1="20.3" x2="79.85" y2="20.3" xlink:href="#f"/><linearGradient id="j" x1="43.92" y1="36.26" x2="47.92" y2="36.26" xlink:href="#f"/><linearGradient id="k" x1="51.89" y1="36.26" x2="55.88" y2="36.26" xlink:href="#f"/><linearGradient id="l" x1="59.88" y1="36.26" x2="63.87" y2="36.26" xlink:href="#f"/><linearGradient id="m" x1="67.87" y1="36.26" x2="79.85" y2="36.26" xlink:href="#f"/><linearGradient id="n" x1="43.92" y1="52.24" x2="47.92" y2="52.24" xlink:href="#f"/><linearGradient id="o" x1="51.89" y1="52.24" x2="55.88" y2="52.24" xlink:href="#f"/><linearGradient id="p" x1="59.88" y1="52.24" x2="63.87" y2="52.24" xlink:href="#f"/><linearGradient id="q" x1="67.87" y1="52.24" x2="79.85" y2="52.24" xlink:href="#f"/><linearGradient id="r" x1="5.99" y1="82.18" x2="29.94" y2="82.18" xlink:href="#f"/><linearGradient id="s" x1="5.99" y1="92.14" x2="29.94" y2="92.14" xlink:href="#f"/><linearGradient id="t" x1="5.99" y1="102.13" x2="29.94" y2="102.13" xlink:href="#f"/><linearGradient id="u" x1="15.96" y1="122.08" x2="19.95" y2="122.08" xlink:href="#f"/><linearGradient id="v" x1="93.81" y1="82.18" x2="117.76" y2="82.18" xlink:href="#f"/><linearGradient id="w" x1="93.81" y1="92.14" x2="117.76" y2="92.14" xlink:href="#f"/><linearGradient id="x" x1="93.81" y1="102.13" x2="117.76" y2="102.13" xlink:href="#f"/><linearGradient id="y" x1="103.8" y1="122.08" x2="107.79" y2="122.08" xlink:href="#f"/><linearGradient id="z" x1="109.55" y1="18.69" x2="127.52" y2="18.69" xlink:href="#f"/><linearGradient id="aa" x1="10.64" y1="33.99" x2="21.12" y2="33.99" xlink:href="#f"/><linearGradient id="ab" x1="94.83" y1="24.08" x2="100.07" y2="24.08" xlink:href="#f"/><linearGradient id="ac" x1="20.34" y1="13.24" x2="30.82" y2="13.24" xlink:href="#f"/><linearGradient id="ad" x1="110.95" y1="58.11" x2="117.69" y2="58.11" xlink:href="#f"/></defs><title>active-Application Infrastructure copy</title><rect x="3.99" y="74.19" width="27.94" height="55.88" style="fill:url(#a)"/><rect x="91.81" y="74.19" width="27.94" height="55.88" style="fill:url(#b)"/><rect x="39.93" y="14.31" width="43.92" height="11.98" style="fill:url(#c)"/><rect x="39.93" y="46.22" width="43.92" height="11.98" style="fill:url(#d)"/><rect x="39.93" y="30.27" width="43.92" height="11.98" style="fill:url(#e)"/><path d="M87.82,70.19v18h-18v-6h-6v-20H87.82V10.31H35.93V62.2H59.88v20h-6v6h-18v-18H0v63.85H35.93V92.14h18v6h16v-6H87.79v41.92h36V70.19ZM31.94,130.07H4V74.19H31.94Zm8-115.76H83.85v12H39.93Zm0,16H83.85v12H39.93Zm0,27.94v-12H83.85v12ZM65.87,94.14h-8v-8h8Zm53.89,35.93H91.81V74.19h27.94Z" style="fill:#8dbbff"/><rect x="43.92" y="18.3" width="4" height="4" style="fill:url(#f)"/><rect x="51.89" y="18.3" width="4" height="4" style="fill:url(#g)"/><rect x="59.88" y="18.3" width="4" height="4" style="fill:url(#h)"/><rect x="67.87" y="18.3" width="11.99" height="4" style="fill:url(#i)"/><rect x="43.92" y="34.26" width="4" height="4" style="fill:url(#j)"/><rect x="51.89" y="34.26" width="4" height="4" style="fill:url(#k)"/><rect x="59.88" y="34.26" width="4" height="4" style="fill:url(#l)"/><rect x="67.87" y="34.26" width="11.99" height="4" style="fill:url(#m)"/><rect x="43.92" y="50.24" width="4" height="4" style="fill:url(#n)"/><rect x="51.89" y="50.24" width="4" height="4" style="fill:url(#o)"/><rect x="59.88" y="50.24" width="4" height="4" style="fill:url(#p)"/><rect x="67.87" y="50.24" width="11.99" height="4" style="fill:url(#q)"/><rect x="5.99" y="80.18" width="23.95" height="4" style="fill:url(#r)"/><rect x="5.99" y="90.14" width="23.95" height="4" style="fill:url(#s)"/><rect x="5.99" y="100.13" width="23.95" height="4" style="fill:url(#t)"/><rect x="15.96" y="120.08" width="4" height="4" style="fill:url(#u)"/><rect x="93.81" y="80.18" width="23.95" height="4" style="fill:url(#v)"/><rect x="93.81" y="90.14" width="23.95" height="4" style="fill:url(#w)"/><rect x="93.81" y="100.13" width="23.95" height="4" style="fill:url(#x)"/><rect x="103.8" y="120.08" width="4" height="4" style="fill:url(#y)"/><circle cx="118.54" cy="18.69" r="8.99" style="fill:url(#z)"/><circle cx="15.88" cy="33.99" r="5.24" style="fill:url(#aa)"/><circle cx="97.45" cy="24.08" r="2.62" style="fill:url(#ab)"/><circle cx="25.58" cy="13.24" r="5.24" style="fill:url(#ac)"/><circle cx="114.32" cy="58.11" r="3.37" style="fill:url(#ad)"/></svg>