<svg xmlns="http://www.w3.org/2000/svg" xmlns:xlink="http://www.w3.org/1999/xlink" width="102.74" height="111.25" viewBox="0 0 102.74 111.25"><defs><linearGradient id="a" x1="16.41" y1="22.49" x2="49.62" y2="22.49" gradientUnits="userSpaceOnUse"><stop offset="0" stop-color="#0c4196"/><stop offset="1" stop-color="#004ab5"/></linearGradient><linearGradient id="b" x1="79.54" y1="76.56" x2="94.56" y2="76.56" xlink:href="#a"/><linearGradient id="c" x1="5.56" y1="86.05" x2="44.91" y2="86.05" gradientTransform="translate(68.23 7.36) rotate(45)" xlink:href="#a"/><linearGradient id="d" x1="21.09" y1="59.95" x2="87.63" y2="59.95" xlink:href="#a"/><linearGradient id="e" x1="12.57" y1="86.09" x2="39.17" y2="86.09" gradientUnits="userSpaceOnUse"><stop offset="0" stop-color="#28bbe4"/><stop offset="1" stop-color="#08d1ff"/></linearGradient><linearGradient id="f" x1="82.22" y1="28.69" x2="100.19" y2="28.69" xlink:href="#e"/><linearGradient id="g" x1="49.31" y1="8.99" x2="59.8" y2="8.99" xlink:href="#e"/><linearGradient id="h" x1="97.5" y1="15.08" x2="102.74" y2="15.08" xlink:href="#e"/><linearGradient id="i" x1="80.01" y1="5.24" x2="90.49" y2="5.24" xlink:href="#e"/><linearGradient id="j" x1="70.62" y1="21.11" x2="77.36" y2="21.11" xlink:href="#e"/></defs><title>active-general-service copy</title><path d="M96.52,74.65l-8.76-8.76,2.42-2.29a8.12,8.12,0,0,0,0-11.59,8,8,0,0,0-5.26-2.43A8.11,8.11,0,0,0,83,43.39,8.63,8.63,0,0,0,77.52,41a8.31,8.31,0,0,0-8-8,8.61,8.61,0,0,0-2.42-5.52,8.38,8.38,0,0,0-5.8-2.43,8,8,0,0,0-5.79,2.43l-3,3L43.16,21a9.88,9.88,0,0,0-2-11.32L35.34,3.91A10,10,0,0,0,22.14,3.1a8.23,8.23,0,0,0-.54,2.15A2.07,2.07,0,0,0,22.27,7l6.2,6.2-4.72,4.72-6.34-6.2A2.55,2.55,0,0,0,15.67,11a2.35,2.35,0,0,0-1.62.81,10.06,10.06,0,0,0,.81,13.2l5.8,5.8a10.34,10.34,0,0,0,11.32,2l1.88,1.89-3,3a25.11,25.11,0,0,0-7.55,15.5c-.54,5.39-2.83,7.55-3,7.68l-2.54,2.54-1.92-1.92a2.2,2.2,0,0,0-3.23,0l-12,12a2.2,2.2,0,0,0,0,3.23l33.82,33.83a2.28,2.28,0,0,0,3.24,0l12-12a2.21,2.21,0,0,0,0-3.23L47.43,93l2.33-2.33c.13-.13,2.3-2.43,7.68-3a24.33,24.33,0,0,0,15.5-7.55l3.11-3,8.89,8.9a8.15,8.15,0,0,0,11.6,0A8,8,0,0,0,96.52,74.65ZM30.9,28.15a5.52,5.52,0,0,1-7.14-.53L18,21.82a5.48,5.48,0,0,1-1.48-4.72L22,22.63a2.2,2.2,0,0,0,3.23,0l8-8a2.2,2.2,0,0,0,0-3.23L27.66,5.92a6,6,0,0,1,4.72,1.62l5.79,5.79a5.52,5.52,0,0,1,.54,7.14,2.32,2.32,0,0,0,.4,3.1c.13,0,.13.13.27.27L49.62,34.09l-5.12,5L34.26,28.83,34,28.56A2.32,2.32,0,0,0,30.9,28.15Zm5.25,77.57L5.56,75.13l8.75-8.76L44.91,97Zm38.14-33.5-4.85,4.85A21.27,21.27,0,0,1,56.9,83.14c-6.74.67-10,3.77-10.51,4.45l-2.2,2.2L21.09,66.67l2.27-2.27c.67-.53,3.77-3.77,4.45-10.51a20.2,20.2,0,0,1,5.92-12.53L37,38.13l4.72,4.72a2.22,2.22,0,0,0,.67,1.75,2.2,2.2,0,0,0,3.23,0L59.06,31.12a3.75,3.75,0,0,1,5.12,0,3.51,3.51,0,0,1,.67,4,2.2,2.2,0,0,0,3,3,3.45,3.45,0,0,1,4,.68,3.51,3.51,0,0,1,.67,4,2.2,2.2,0,0,0,3,3,3.45,3.45,0,0,1,4,.68c.95.95.81,3.23,0,4.72a2.2,2.2,0,0,0,3,3,3.45,3.45,0,0,1,4,.67,3.58,3.58,0,0,1,0,5.12ZM93.55,83.14a3.75,3.75,0,0,1-5.12,0l-8.9-9L84.66,69l8.89,8.9A3.92,3.92,0,0,1,93.55,83.14Z" style="fill:#8dbbff"/><path d="M49.62,34.09l-5.12,5L34.26,28.83,34,28.56a2.32,2.32,0,0,0-3.1-.4,5.52,5.52,0,0,1-7.14-.53L18,21.82a5.48,5.48,0,0,1-1.48-4.72L22,22.63a2.2,2.2,0,0,0,3.23,0l8-8a2.2,2.2,0,0,0,0-3.23L27.66,5.92a6,6,0,0,1,4.72,1.62l5.79,5.79a5.52,5.52,0,0,1,.54,7.14,2.32,2.32,0,0,0,.4,3.1c.13,0,.13.13.27.27Z" style="fill:url(#a)"/><path d="M93.55,83.14a3.75,3.75,0,0,1-5.12,0l-8.9-9L84.66,69l8.89,8.9A3.92,3.92,0,0,1,93.55,83.14Z" style="fill:url(#b)"/><rect x="19.04" y="64.42" width="12.39" height="43.26" transform="translate(-53.45 43.04) rotate(-45)" style="fill:url(#c)"/><path d="M87.63,57.4A3.69,3.69,0,0,1,86.55,60L74.28,72.22l-4.85,4.85A21.27,21.27,0,0,1,56.9,83.14c-6.74.67-10,3.77-10.51,4.45l-2.2,2.2L21.09,66.67l2.27-2.27c.67-.53,3.77-3.77,4.45-10.51a20.2,20.2,0,0,1,5.92-12.53L37,38.13l4.72,4.72a2.22,2.22,0,0,0,.67,1.75,2.2,2.2,0,0,0,3.23,0L59.06,31.12a3.75,3.75,0,0,1,5.12,0,3.51,3.51,0,0,1,.67,4,2.2,2.2,0,0,0,3,3,3.45,3.45,0,0,1,4,.68,3.51,3.51,0,0,1,.67,4,2.2,2.2,0,0,0,3,3,3.45,3.45,0,0,1,4,.68c.95.95.81,3.23,0,4.72a2.2,2.2,0,0,0,3,3,3.45,3.45,0,0,1,4,.67A3.67,3.67,0,0,1,87.63,57.4Z" style="fill:url(#d)"/><path d="M37.29,99.78a1.87,1.87,0,0,1-1.35-.57L13.1,75.58A1.88,1.88,0,0,1,15.79,73L38.64,96.6a1.88,1.88,0,0,1-1.35,3.18Z" style="fill:url(#e)"/><circle cx="91.21" cy="28.69" r="8.99" style="fill:url(#f)"/><circle cx="54.55" cy="8.99" r="5.24" style="fill:url(#g)"/><circle cx="100.12" cy="15.08" r="2.62" style="fill:url(#h)"/><circle cx="85.25" cy="5.24" r="5.24" style="fill:url(#i)"/><circle cx="73.99" cy="21.11" r="3.37" style="fill:url(#j)"/></svg>