<svg xmlns="http://www.w3.org/2000/svg" width="54.17" height="49.77" viewBox="0 0 54.17 49.77"><title>skydance-process</title><circle cx="24.89" cy="24.89" r="24.89" style="fill:#c5f1ff"/><path d="M39.67,18.35a2.8,2.8,0,1,0,0-.85l0,.3-.28-.1-.08,0-12-.08h-.06A4.35,4.35,0,0,0,24,18.89,4.45,4.45,0,0,0,22.71,22l0,3.31A4.62,4.62,0,0,0,24,28.61a4.09,4.09,0,0,0,2.9,1.24l4.31,0-1.44,1.42a.25.25,0,0,0,0,.35.25.25,0,0,0,.35,0L32,29.81a.25.25,0,0,0,.07-.18.25.25,0,0,0-.07-.18L30.14,27.6a.25.25,0,0,0-.18-.07h0a.25.25,0,0,0-.17.07.25.25,0,0,0,0,.35l1.42,1.43-4.31,0a3.6,3.6,0,0,1-2.55-1.09,4.12,4.12,0,0,1-1.17-2.91l0-3.31a4,4,0,0,1,1.19-2.81,4.05,4.05,0,0,1,2.82-1.15l12,.08.08,0,.28-.1Zm2.78-2.71a2.3,2.3,0,0,1,.24,4.6v.26h-.5v-.27a2.3,2.3,0,0,1-2-2.31A2.32,2.32,0,0,1,42.45,15.64Z" style="fill:#2a57be"/><path d="M53.14,16.92a5.24,5.24,0,0,0,1-3.13l0-3.21a4.49,4.49,0,0,0-4.45-4.52L32.89,5.92l0-.21a2.8,2.8,0,1,0,0,.91l0-.21,16.82.14a4,4,0,0,1,4,4l0,3.21a4.75,4.75,0,0,1-.9,2.83,2.58,2.58,0,0,1-2,1.13l-3.2,0L49,16.31a.25.25,0,0,0-.17-.43h0a.25.25,0,0,0-.17.07l-1.86,1.84a.25.25,0,0,0,0,.35L48.57,20a.25.25,0,0,0,.35,0,.25.25,0,0,0,0-.35l-1.42-1.43,3.19,0A3.07,3.07,0,0,0,53.14,16.92ZM30.34,8.44V8.7h-.5V8.44a2.3,2.3,0,1,1,.51,0Z" style="fill:#2a57be"/></svg>