<svg xmlns="http://www.w3.org/2000/svg" width="54.16" height="49.77" viewBox="0 0 54.16 49.77"><title>skydance-session controller</title><circle cx="24.89" cy="24.89" r="24.89" style="fill:#c5f1ff"/><path d="M53.91,27.56H15.59a.25.25,0,0,1-.25-.25V14.37a.25.25,0,0,1,.25-.25H53.91a.25.25,0,0,1,.25.25V27.31A.25.25,0,0,1,53.91,27.56Zm-38.08-.5H53.66V14.62H15.83Z" style="fill:#2a57be"/><path d="M48.19,22.33a1.49,1.49,0,1,1,1.49-1.49A1.49,1.49,0,0,1,48.19,22.33Zm0-2.49a1,1,0,1,0,1,1A1,1,0,0,0,48.19,19.85Z" style="fill:#2a57be"/><path d="M27.87,21.09H19.41a.25.25,0,0,1,0-.5h8.46a.25.25,0,1,1,0,.5Z" style="fill:#2a57be"/></svg>