<svg xmlns="http://www.w3.org/2000/svg" width="54.2" height="49.77" viewBox="0 0 54.2 49.77"><title>skydance-reporting</title><circle cx="24.89" cy="24.89" r="24.89" style="fill:#c5f1ff"/><path d="M48.45,16a.66.66,0,0,0-.26.09c-.05,0-.06.07-.06.18v5.52a.26.26,0,0,0,.27.27h5.52a.26.26,0,0,0,.27-.27v-.1A6.23,6.23,0,0,0,48.45,16Zm5.17,5.53H48.73V16.66h.09a5.68,5.68,0,0,1,4.79,4.79Z" style="fill:#2a57be"/><path d="M48.2,23.36l3.55,3.54a.29.29,0,0,0,.39,0,6.25,6.25,0,0,0,2-3.74.29.29,0,0,0-.08-.24.31.31,0,0,0-.2-.08H48.41a.3.3,0,0,0-.28.2C48.06,23.24,48.13,23.31,48.2,23.36Zm5.33.09,0,.09A5.84,5.84,0,0,1,52,26.26l-.05.05-.05-.05-2.76-2.81Z" style="fill:#2a57be"/><path d="M47.13,16.07A6.47,6.47,0,0,0,43,18.54a6,6,0,0,0-1.13,4.67A6.19,6.19,0,0,0,47,28.42a6.61,6.61,0,0,0,1,0,6.46,6.46,0,0,0,3-.74.28.28,0,0,0,.15-.18.26.26,0,0,0,0-.21.28.28,0,0,0-.17-.16.32.32,0,0,0-.23,0,5.49,5.49,0,0,1-3.58.6,5.66,5.66,0,0,1-3.68-9,5.68,5.68,0,0,1,3.73-2.22.37.37,0,0,0,.2-.12.21.21,0,0,0,0-.19C47.4,16.17,47.29,16,47.13,16.07Z" style="fill:#2a57be"/><path d="M51.57,30.91H51v.25H28.67V2.54H47.24V6.32H51v7.27h.55V5.88L47.63,1.94H28.07V4.33H25.68V34.14H48.88V31.76h2.69Zm-3.78-28,2.74,2.74H47.78Zm.5,30.62H26.23V4.93h1.84V31.71H48.28Z" style="fill:#2a57be"/><rect x="32.2" y="18.96" width="7.12" height="0.6" style="fill:#2a57be"/><rect x="32.2" y="22.85" width="7.12" height="0.6" style="fill:#2a57be"/><rect x="32.2" y="26.78" width="7.12" height="0.6" style="fill:#2a57be"/></svg>