<svg xmlns="http://www.w3.org/2000/svg" width="54.29" height="49.77" viewBox="0 0 54.29 49.77"><title>skydance-infrastructure</title><circle cx="24.89" cy="24.89" r="24.89" style="fill:#c5f1ff"/><path d="M33.44,36.77H19.52V22.85H33.44ZM20,36.27H32.94V23.35H20Z" style="fill:#2a57be"/><path d="M26.48,17.34A7.32,7.32,0,1,1,33.8,10,7.32,7.32,0,0,1,26.48,17.34Zm0-14.13A6.82,6.82,0,1,0,33.3,10,6.83,6.83,0,0,0,26.48,3.2Z" style="fill:#2a57be"/><path d="M53.94,17H40V3.06H53.94Zm-13.43-.5H53.44V3.56H40.51Z" style="fill:#2a57be"/><path d="M47,37.13a7.32,7.32,0,1,1,7.32-7.32A7.32,7.32,0,0,1,47,37.13ZM47,23a6.82,6.82,0,1,0,6.82,6.82A6.83,6.83,0,0,0,47,23Z" style="fill:#2a57be"/></svg>