<svg xmlns="http://www.w3.org/2000/svg" width="54" height="49.77" viewBox="0 0 54 49.77"><title>skydance-database</title><circle cx="24.89" cy="24.89" r="24.89" style="fill:#c5f1ff"/><path d="M54,32.52v-26a2.64,2.64,0,0,0-1.25-2,11.06,11.06,0,0,0-3.24-1.51A37.17,37.17,0,0,0,38.95,1.74,37.17,37.17,0,0,0,28.38,3.09,11.06,11.06,0,0,0,25.14,4.6a2.64,2.64,0,0,0-1.25,2v26a2.64,2.64,0,0,0,1.25,2A11.12,11.12,0,0,0,28.38,36a37.11,37.11,0,0,0,10.57,1.36A37.11,37.11,0,0,0,49.51,36a11.12,11.12,0,0,0,3.24-1.5A2.64,2.64,0,0,0,54,32.52Zm-.46-15.39v6.52a.32.32,0,0,0,0,.06,2.14,2.14,0,0,1-1.07,1.65,10.87,10.87,0,0,1-3.11,1.42,36.55,36.55,0,0,1-10.41,1.35,36.55,36.55,0,0,1-10.41-1.35,10.87,10.87,0,0,1-3.11-1.42,2.15,2.15,0,0,1-1.07-1.63.32.32,0,0,0,0-.06v-7l.4.36a4.65,4.65,0,0,0,.39.32,11.12,11.12,0,0,0,3.24,1.5,37.11,37.11,0,0,0,10.57,1.36A37.11,37.11,0,0,0,49.51,18.8a11.12,11.12,0,0,0,3.24-1.5,4.63,4.63,0,0,0,.39-.32l.4-.36Zm0-8.78v6.92a.32.32,0,0,0,0,.06A2.14,2.14,0,0,1,52.47,17a10.87,10.87,0,0,1-3.11,1.42,36.55,36.55,0,0,1-10.41,1.35A36.55,36.55,0,0,1,28.54,18.4,10.87,10.87,0,0,1,25.42,17a2.15,2.15,0,0,1-1.07-1.63.32.32,0,0,0,0-.06V7.84l.4.36a4.7,4.7,0,0,0,.39.31A11.12,11.12,0,0,0,28.38,10a37.11,37.11,0,0,0,10.57,1.36A37.11,37.11,0,0,0,49.51,10a11.12,11.12,0,0,0,3.24-1.5,4.69,4.69,0,0,0,.39-.31l.4-.36ZM24.36,6.46a2.25,2.25,0,0,1,1.07-1.55,10.87,10.87,0,0,1,3.11-1.42A36.62,36.62,0,0,1,38.95,2.16,36.62,36.62,0,0,1,49.36,3.49a10.87,10.87,0,0,1,3.11,1.42,2.25,2.25,0,0,1,1.07,1.55h0v.06a2.15,2.15,0,0,1-1.07,1.64,10.87,10.87,0,0,1-3.11,1.42A36.55,36.55,0,0,1,38.95,11,36.55,36.55,0,0,1,28.54,9.61a10.87,10.87,0,0,1-3.11-1.42,2.15,2.15,0,0,1-1.07-1.63v0h0ZM52.47,34.14a10.87,10.87,0,0,1-3.11,1.42,36.55,36.55,0,0,1-10.41,1.35,36.55,36.55,0,0,1-10.41-1.35,10.87,10.87,0,0,1-3.11-1.42,2.15,2.15,0,0,1-1.07-1.63V25l.4.36a4.65,4.65,0,0,0,.39.32,11.12,11.12,0,0,0,3.24,1.5,37.11,37.11,0,0,0,10.57,1.36,37.11,37.11,0,0,0,10.57-1.36,11.12,11.12,0,0,0,3.24-1.5,4.64,4.64,0,0,0,.39-.32l.4-.36v7.52A2.15,2.15,0,0,1,52.47,34.14Z" style="fill:#2a57be"/></svg>