<svg xmlns="http://www.w3.org/2000/svg" width="7.07" height="17" viewBox="0 0 7.07 17"><title>info-icon</title><path d="M2.46,7.37a2,2,0,0,0,.14-.64c0-.3-.14-.43-.37-.43-.53,0-.94.47-1.39,1.7L.41,9.1H0L.59,7.45a3,3,0,0,1,3-2.21C5,5.24,5.49,6,5.49,7a4.06,4.06,0,0,1-.23,1.26L3,14.86a1.9,1.9,0,0,0-.14.63.39.39,0,0,0,.43.44c.39,0,.83-.31,1.36-1.7l.39-1h.41L4.9,14.78A2.94,2.94,0,0,1,2,17c-1.33,0-2-.65-2-1.78a5.38,5.38,0,0,1,.33-1.65ZM5.48,0c1,0,1.59.52,1.59,1.35a2.09,2.09,0,0,1-2.23,2c-1,0-1.57-.51-1.57-1.31A2,2,0,0,1,5.48,0Z" style="fill:#fbfcff"/></svg>