<svg xmlns="http://www.w3.org/2000/svg" xmlns:xlink="http://www.w3.org/1999/xlink" width="173.37" height="153.11" viewBox="0 0 173.37 153.11"><defs><clipPath id="a"><path d="M119.65,3.74a9.12,9.12,0,0,1,9.47,15.58l-.3.19a9.11,9.11,0,0,1-12.47-3.3,9.12,9.12,0,0,1,3.3-12.47Z" style="fill:none"/></clipPath><clipPath id="b"><path d="M44.89,4.05a9.13,9.13,0,0,1,12.47,3.3,8.89,8.89,0,0,1,1.22,4.11,9.12,9.12,0,0,1-4.52,8.36l-.1.05A9.12,9.12,0,0,1,44.89,4.05Z" style="fill:none"/></clipPath><clipPath id="c"><path d="M157.39,68a9.12,9.12,0,1,1,.38,16.23,9,9,0,0,1-3.92-3.63,8.88,8.88,0,0,1-1.23-4.39,9.1,9.1,0,0,1,4.53-8.08Z" style="fill:none"/></clipPath><clipPath id="d"><path d="M16,69.06a9.11,9.11,0,0,1,.36,15.84.41.41,0,0,1-.11.07A9.12,9.12,0,1,1,16,69.06Z" style="fill:none"/></clipPath><clipPath id="e"><path d="M119.5,76.35v.35a32.76,32.76,0,0,1-32.81,32.63H86A32.73,32.73,0,0,1,53.9,77c0-.11,0-.22,0-.33v-.18a32.63,32.63,0,0,1,16-28.23A33,33,0,0,1,86,43.73h.7A32.75,32.75,0,0,1,119.5,76.35Z" style="fill:none"/></clipPath><clipPath id="f"><path d="M129.45,133.47l.39.24a9.13,9.13,0,0,1,2.8,3,9.24,9.24,0,0,1-16,9.3,8.92,8.92,0,0,1-1.27-4.4,9.36,9.36,0,0,1,4.48-8.15l.12-.08A9,9,0,0,1,129.45,133.47Z" style="fill:none"/></clipPath><clipPath id="g"><path d="M44.58,133.52A9.1,9.1,0,0,1,57,136.84a9.12,9.12,0,1,1-12.47-3.3Z" style="fill:none"/></clipPath><clipPath id="h"><circle cx="86.68" cy="76.55" r="15" style="fill:none"/></clipPath></defs><title>protocol-icon</title><g style="clip-path:url(#a)"><rect x="115.05" y="20.75" width="19.54" height="0.55" style="fill:#0c4196"/><rect x="115.05" y="20.16" width="19.54" height="0.59" style="fill:#0c4196"/><rect x="115.05" y="19.57" width="19.54" height="0.59" style="fill:#0c4197"/><rect x="115.05" y="18.98" width="19.54" height="0.59" style="fill:#0b4298"/><rect x="115.05" y="18.39" width="19.54" height="0.59" style="fill:#0b4299"/><rect x="115.05" y="17.81" width="19.54" height="0.59" style="fill:#0a429a"/><rect x="115.05" y="17.22" width="19.54" height="0.59" style="fill:#0a439b"/><rect x="115.05" y="16.63" width="19.54" height="0.59" style="fill:#0a439c"/><rect x="115.05" y="16.04" width="19.54" height="0.59" style="fill:#09439d"/><rect x="115.05" y="15.45" width="19.54" height="0.59" style="fill:#09439e"/><rect x="115.05" y="14.86" width="19.54" height="0.59" style="fill:#08449f"/><rect x="115.05" y="14.27" width="19.54" height="0.59" style="fill:#0844a0"/><rect x="115.05" y="13.69" width="19.54" height="0.59" style="fill:#0844a1"/><rect x="115.05" y="13.1" width="19.54" height="0.59" style="fill:#0745a2"/><rect x="115.05" y="12.51" width="19.54" height="0.59" style="fill:#0745a3"/><rect x="115.05" y="11.92" width="19.54" height="0.59" style="fill:#0645a4"/><rect x="115.05" y="11.33" width="19.54" height="0.59" style="fill:#0646a6"/><rect x="115.05" y="10.74" width="19.54" height="0.59" style="fill:#0646a7"/><rect x="115.05" y="10.15" width="19.54" height="0.59" style="fill:#0546a8"/><rect x="115.05" y="9.57" width="19.54" height="0.59" style="fill:#0546a9"/><rect x="115.05" y="8.98" width="19.54" height="0.59" style="fill:#0447aa"/><rect x="115.05" y="8.39" width="19.54" height="0.59" style="fill:#0447ab"/><rect x="115.05" y="7.8" width="19.54" height="0.59" style="fill:#0447ac"/><rect x="115.05" y="7.21" width="19.54" height="0.59" style="fill:#0348ad"/><rect x="115.05" y="6.62" width="19.54" height="0.59" style="fill:#0348ae"/><rect x="115.05" y="6.04" width="19.54" height="0.59" style="fill:#0248af"/><rect x="115.05" y="5.45" width="19.54" height="0.59" style="fill:#0249b0"/><rect x="115.05" y="4.86" width="19.54" height="0.59" style="fill:#0249b1"/><rect x="115.05" y="4.27" width="19.54" height="0.59" style="fill:#0149b2"/><rect x="115.05" y="3.68" width="19.54" height="0.59" style="fill:#0149b3"/><rect x="115.05" y="3.09" width="19.54" height="0.59" style="fill:#004ab4"/><rect x="115.05" y="2.5" width="19.54" height="0.59" style="fill:#004ab5"/><rect x="115.05" y="1.21" width="19.54" height="1.29" style="fill:#004ab5"/></g><g style="clip-path:url(#b)"><rect x="39.05" y="21.06" width="19.7" height="0.55" style="fill:#0c4196"/><rect x="39.05" y="20.47" width="19.7" height="0.59" style="fill:#0c4196"/><rect x="39.05" y="19.88" width="19.7" height="0.59" style="fill:#0c4197"/><rect x="39.05" y="19.3" width="19.7" height="0.59" style="fill:#0b4298"/><rect x="39.05" y="18.71" width="19.7" height="0.59" style="fill:#0b4299"/><rect x="39.05" y="18.12" width="19.7" height="0.59" style="fill:#0a429a"/><rect x="39.05" y="17.53" width="19.7" height="0.59" style="fill:#0a439b"/><rect x="39.05" y="16.94" width="19.7" height="0.59" style="fill:#0a439c"/><rect x="39.05" y="16.35" width="19.7" height="0.59" style="fill:#09439d"/><rect x="39.05" y="15.76" width="19.7" height="0.59" style="fill:#09439e"/><rect x="39.05" y="15.18" width="19.7" height="0.59" style="fill:#08449f"/><rect x="39.05" y="14.59" width="19.7" height="0.59" style="fill:#0844a0"/><rect x="39.05" y="14" width="19.7" height="0.59" style="fill:#0844a1"/><rect x="39.05" y="13.41" width="19.7" height="0.59" style="fill:#0745a2"/><rect x="39.05" y="12.82" width="19.7" height="0.59" style="fill:#0745a3"/><rect x="39.05" y="12.23" width="19.7" height="0.59" style="fill:#0645a4"/><rect x="39.05" y="11.64" width="19.7" height="0.59" style="fill:#0646a6"/><rect x="39.05" y="11.06" width="19.7" height="0.59" style="fill:#0646a7"/><rect x="39.05" y="10.47" width="19.7" height="0.59" style="fill:#0546a8"/><rect x="39.05" y="9.88" width="19.7" height="0.59" style="fill:#0546a9"/><rect x="39.05" y="9.29" width="19.7" height="0.59" style="fill:#0447aa"/><rect x="39.05" y="8.7" width="19.7" height="0.59" style="fill:#0447ab"/><rect x="39.05" y="8.11" width="19.7" height="0.59" style="fill:#0447ac"/><rect x="39.05" y="7.52" width="19.7" height="0.59" style="fill:#0348ad"/><rect x="39.05" y="6.94" width="19.7" height="0.59" style="fill:#0348ae"/><rect x="39.05" y="6.35" width="19.7" height="0.59" style="fill:#0248af"/><rect x="39.05" y="5.76" width="19.7" height="0.59" style="fill:#0249b0"/><rect x="39.05" y="5.17" width="19.7" height="0.59" style="fill:#0249b1"/><rect x="39.05" y="4.58" width="19.7" height="0.59" style="fill:#0149b2"/><rect x="39.05" y="3.99" width="19.7" height="0.59" style="fill:#0149b3"/><rect x="39.05" y="3.4" width="19.7" height="0.59" style="fill:#004ab4"/><rect x="39.05" y="2.82" width="19.7" height="0.59" style="fill:#004ab5"/><rect x="39.05" y="1.52" width="19.7" height="1.29" style="fill:#004ab5"/></g><g style="clip-path:url(#c)"><rect x="152.55" y="85.09" width="19.61" height="0.36" style="fill:#0c4196"/><rect x="152.55" y="84.5" width="19.61" height="0.59" style="fill:#0c4196"/><rect x="152.55" y="83.91" width="19.61" height="0.59" style="fill:#0c4197"/><rect x="152.55" y="83.32" width="19.61" height="0.59" style="fill:#0b4298"/><rect x="152.55" y="82.74" width="19.61" height="0.59" style="fill:#0b4299"/><rect x="152.55" y="82.15" width="19.61" height="0.59" style="fill:#0a429a"/><rect x="152.55" y="81.56" width="19.61" height="0.59" style="fill:#0a439b"/><rect x="152.55" y="80.97" width="19.61" height="0.59" style="fill:#0a439c"/><rect x="152.55" y="80.38" width="19.61" height="0.59" style="fill:#09439d"/><rect x="152.55" y="79.79" width="19.61" height="0.59" style="fill:#09439e"/><rect x="152.55" y="79.2" width="19.61" height="0.59" style="fill:#08449f"/><rect x="152.55" y="78.62" width="19.61" height="0.59" style="fill:#0844a0"/><rect x="152.55" y="78.03" width="19.61" height="0.59" style="fill:#0844a1"/><rect x="152.55" y="77.44" width="19.61" height="0.59" style="fill:#0745a2"/><rect x="152.55" y="76.85" width="19.61" height="0.59" style="fill:#0745a3"/><rect x="152.55" y="76.26" width="19.61" height="0.59" style="fill:#0645a4"/><rect x="152.55" y="75.67" width="19.61" height="0.59" style="fill:#0646a6"/><rect x="152.55" y="75.08" width="19.61" height="0.59" style="fill:#0646a7"/><rect x="152.55" y="74.5" width="19.61" height="0.59" style="fill:#0546a8"/><rect x="152.55" y="73.91" width="19.61" height="0.59" style="fill:#0546a9"/><rect x="152.55" y="73.32" width="19.61" height="0.59" style="fill:#0447aa"/><rect x="152.55" y="72.73" width="19.61" height="0.59" style="fill:#0447ab"/><rect x="152.55" y="72.14" width="19.61" height="0.59" style="fill:#0447ac"/><rect x="152.55" y="71.55" width="19.61" height="0.59" style="fill:#0348ad"/><rect x="152.55" y="70.96" width="19.61" height="0.59" style="fill:#0348ae"/><rect x="152.55" y="70.38" width="19.61" height="0.59" style="fill:#0248af"/><rect x="152.55" y="69.79" width="19.61" height="0.59" style="fill:#0249b0"/><rect x="152.55" y="69.2" width="19.61" height="0.59" style="fill:#0249b1"/><rect x="152.55" y="68.61" width="19.61" height="0.59" style="fill:#0149b2"/><rect x="152.55" y="68.02" width="19.61" height="0.59" style="fill:#0149b3"/><rect x="152.55" y="67.43" width="19.61" height="0.59" style="fill:#004ab4"/><rect x="152.55" y="66.84" width="19.61" height="0.59" style="fill:#004ab5"/><rect x="152.55" y="65.6" width="19.61" height="1.24" style="fill:#004ab5"/></g><g style="clip-path:url(#d)"><rect x="1.21" y="86.21" width="19.54" height="1.29" style="fill:#0c4196"/><rect x="1.21" y="85.62" width="19.54" height="0.59" style="fill:#0c4196"/><rect x="1.21" y="85.03" width="19.54" height="0.59" style="fill:#0c4197"/><rect x="1.21" y="84.44" width="19.54" height="0.59" style="fill:#0b4298"/><rect x="1.21" y="83.86" width="19.54" height="0.59" style="fill:#0b4299"/><rect x="1.21" y="83.27" width="19.54" height="0.59" style="fill:#0a429a"/><rect x="1.21" y="82.68" width="19.54" height="0.59" style="fill:#0a439b"/><rect x="1.21" y="82.09" width="19.54" height="0.59" style="fill:#0a439c"/><rect x="1.21" y="81.5" width="19.54" height="0.59" style="fill:#09439d"/><rect x="1.21" y="80.91" width="19.54" height="0.59" style="fill:#09439e"/><rect x="1.21" y="80.33" width="19.54" height="0.59" style="fill:#08449f"/><rect x="1.21" y="79.74" width="19.54" height="0.59" style="fill:#0844a0"/><rect x="1.21" y="79.15" width="19.54" height="0.59" style="fill:#0844a1"/><rect x="1.21" y="78.56" width="19.54" height="0.59" style="fill:#0745a2"/><rect x="1.21" y="77.97" width="19.54" height="0.59" style="fill:#0745a3"/><rect x="1.21" y="77.38" width="19.54" height="0.59" style="fill:#0645a4"/><rect x="1.21" y="76.8" width="19.54" height="0.59" style="fill:#0646a6"/><rect x="1.21" y="76.21" width="19.54" height="0.59" style="fill:#0646a7"/><rect x="1.21" y="75.62" width="19.54" height="0.59" style="fill:#0546a8"/><rect x="1.21" y="75.03" width="19.54" height="0.59" style="fill:#0546a9"/><rect x="1.21" y="74.44" width="19.54" height="0.59" style="fill:#0447aa"/><rect x="1.21" y="73.85" width="19.54" height="0.59" style="fill:#0447ab"/><rect x="1.21" y="73.26" width="19.54" height="0.59" style="fill:#0447ac"/><rect x="1.21" y="72.68" width="19.54" height="0.59" style="fill:#0348ad"/><rect x="1.21" y="72.09" width="19.54" height="0.59" style="fill:#0348ae"/><rect x="1.21" y="71.5" width="19.54" height="0.59" style="fill:#0248af"/><rect x="1.21" y="70.91" width="19.54" height="0.59" style="fill:#0249b0"/><rect x="1.21" y="70.32" width="19.54" height="0.59" style="fill:#0249b1"/><rect x="1.21" y="69.73" width="19.54" height="0.59" style="fill:#0149b2"/><rect x="1.21" y="69.15" width="19.54" height="0.59" style="fill:#0149b3"/><rect x="1.21" y="68.56" width="19.54" height="0.59" style="fill:#004ab4"/><rect x="1.21" y="67.97" width="19.54" height="0.59" style="fill:#004ab5"/><rect x="1.21" y="67.55" width="19.54" height="0.42" style="fill:#004ab5"/></g><g style="clip-path:url(#e)"><polygon points="53.88 76.76 54.12 109.33 53.88 109.33 53.88 76.76" style="fill:#0c4196"/><polygon points="55.76 43.72 56.24 109.33 54.12 109.33 53.88 76.76 53.88 43.72 55.76 43.72" style="fill:#0c4196"/><polygon points="57.88 43.72 58.36 109.33 56.24 109.33 55.76 43.72 57.88 43.72" style="fill:#0c4197"/><polygon points="59.99 43.72 60.47 109.33 58.36 109.33 57.88 43.72 59.99 43.72" style="fill:#0b4298"/><polygon points="62.11 43.72 62.59 109.33 60.47 109.33 59.99 43.72 62.11 43.72" style="fill:#0b4299"/><polygon points="64.23 43.72 64.71 109.33 62.59 109.33 62.11 43.72 64.23 43.72" style="fill:#0a429a"/><polygon points="66.34 43.72 66.82 109.33 64.71 109.33 64.23 43.72 66.34 43.72" style="fill:#0a439b"/><polygon points="68.46 43.72 68.94 109.33 66.82 109.33 66.34 43.72 68.46 43.72" style="fill:#0a439c"/><polygon points="70.58 43.72 71.06 109.33 68.94 109.33 68.46 43.72 70.58 43.72" style="fill:#09439d"/><polygon points="72.69 43.72 73.17 109.33 71.06 109.33 70.58 43.72 72.69 43.72" style="fill:#09439e"/><polygon points="74.81 43.72 75.29 109.33 73.17 109.33 72.69 43.72 74.81 43.72" style="fill:#08449f"/><polygon points="76.92 43.72 77.41 109.33 75.29 109.33 74.81 43.72 76.92 43.72" style="fill:#0844a0"/><polygon points="79.04 43.72 79.52 109.33 77.41 109.33 76.92 43.72 79.04 43.72" style="fill:#0844a1"/><polygon points="81.16 43.72 81.64 109.33 79.52 109.33 79.04 43.72 81.16 43.72" style="fill:#0745a2"/><polygon points="83.28 43.72 83.76 109.33 81.64 109.33 81.16 43.72 83.28 43.72" style="fill:#0745a3"/><polygon points="85.39 43.72 85.87 109.33 83.76 109.33 83.28 43.72 85.39 43.72" style="fill:#0645a4"/><polygon points="87.51 43.72 87.99 109.33 85.87 109.33 85.39 43.72 87.51 43.72" style="fill:#0646a6"/><polygon points="89.63 43.72 90.11 109.33 87.99 109.33 87.51 43.72 89.63 43.72" style="fill:#0646a7"/><polygon points="91.74 43.72 92.22 109.33 90.11 109.33 89.63 43.72 91.74 43.72" style="fill:#0546a8"/><polygon points="93.86 43.72 94.34 109.33 92.22 109.33 91.74 43.72 93.86 43.72" style="fill:#0546a9"/><polygon points="95.97 43.72 96.45 109.33 94.34 109.33 93.86 43.72 95.97 43.72" style="fill:#0447aa"/><polygon points="98.09 43.72 98.57 109.33 96.45 109.33 95.97 43.72 98.09 43.72" style="fill:#0447ab"/><polygon points="100.21 43.72 100.69 109.33 98.57 109.33 98.09 43.72 100.21 43.72" style="fill:#0447ac"/><polygon points="102.32 43.72 102.8 109.33 100.69 109.33 100.21 43.72 102.32 43.72" style="fill:#0348ad"/><polygon points="104.44 43.72 104.92 109.33 102.8 109.33 102.32 43.72 104.44 43.72" style="fill:#0348ae"/><polygon points="106.56 43.72 107.04 109.33 104.92 109.33 104.44 43.72 106.56 43.72" style="fill:#0248af"/><polygon points="108.67 43.72 109.15 109.33 107.04 109.33 106.56 43.72 108.67 43.72" style="fill:#0249b0"/><polygon points="110.79 43.72 111.27 109.33 109.15 109.33 108.67 43.72 110.79 43.72" style="fill:#0249b1"/><polygon points="112.91 43.72 113.39 109.33 111.27 109.33 110.79 43.72 112.91 43.72" style="fill:#0149b2"/><polygon points="115.02 43.72 115.5 109.33 113.39 109.33 112.91 43.72 115.02 43.72" style="fill:#0149b3"/><polygon points="117.14 43.72 117.62 109.33 115.5 109.33 115.02 43.72 117.14 43.72" style="fill:#004ab4"/><polygon points="119.26 43.72 119.5 76.34 119.5 109.33 117.62 109.33 117.14 43.72 119.26 43.72" style="fill:#004ab5"/><polygon points="119.5 76.34 119.26 43.72 119.5 43.72 119.5 76.34" style="fill:#004ab5"/></g><g style="clip-path:url(#f)"><rect x="115.33" y="150.6" width="19.94" height="1.35" style="fill:#0c4196"/><rect x="115.33" y="150.01" width="19.94" height="0.6" style="fill:#0c4196"/><rect x="115.33" y="149.41" width="19.94" height="0.6" style="fill:#0c4197"/><rect x="115.33" y="148.81" width="19.94" height="0.6" style="fill:#0b4298"/><rect x="115.33" y="148.21" width="19.94" height="0.6" style="fill:#0b4299"/><rect x="115.33" y="147.61" width="19.94" height="0.6" style="fill:#0a429a"/><rect x="115.33" y="147.02" width="19.94" height="0.6" style="fill:#0a439b"/><rect x="115.33" y="146.42" width="19.94" height="0.6" style="fill:#0a439c"/><rect x="115.33" y="145.82" width="19.94" height="0.6" style="fill:#09439d"/><rect x="115.33" y="145.22" width="19.94" height="0.6" style="fill:#09439e"/><rect x="115.33" y="144.63" width="19.94" height="0.6" style="fill:#08449f"/><rect x="115.33" y="144.03" width="19.94" height="0.6" style="fill:#0844a0"/><rect x="115.33" y="143.43" width="19.94" height="0.6" style="fill:#0844a1"/><rect x="115.33" y="142.83" width="19.94" height="0.6" style="fill:#0745a2"/><rect x="115.33" y="142.24" width="19.94" height="0.6" style="fill:#0745a3"/><rect x="115.33" y="141.64" width="19.94" height="0.6" style="fill:#0645a4"/><rect x="115.33" y="141.04" width="19.94" height="0.6" style="fill:#0646a6"/><rect x="115.33" y="140.44" width="19.94" height="0.6" style="fill:#0646a7"/><rect x="115.33" y="139.84" width="19.94" height="0.6" style="fill:#0546a8"/><rect x="115.33" y="139.25" width="19.94" height="0.6" style="fill:#0546a9"/><rect x="115.33" y="138.65" width="19.94" height="0.6" style="fill:#0447aa"/><rect x="115.33" y="138.05" width="19.94" height="0.6" style="fill:#0447ab"/><rect x="115.33" y="137.45" width="19.94" height="0.6" style="fill:#0447ac"/><rect x="115.33" y="136.86" width="19.94" height="0.6" style="fill:#0348ad"/><rect x="115.33" y="136.26" width="19.94" height="0.6" style="fill:#0348ae"/><rect x="115.33" y="135.66" width="19.94" height="0.6" style="fill:#0248af"/><rect x="115.33" y="135.06" width="19.94" height="0.6" style="fill:#0249b0"/><rect x="115.33" y="134.47" width="19.94" height="0.6" style="fill:#0249b1"/><rect x="115.33" y="133.87" width="19.94" height="0.6" style="fill:#0149b2"/><rect x="115.33" y="133.27" width="19.94" height="0.6" style="fill:#0149b3"/><rect x="115.33" y="132.67" width="19.94" height="0.6" style="fill:#004ab4"/><rect x="115.33" y="132.08" width="19.94" height="0.6" style="fill:#004ab5"/><rect x="115.33" y="131.51" width="19.94" height="0.56" style="fill:#004ab5"/></g><g style="clip-path:url(#g)"><rect x="38.71" y="150.55" width="19.6" height="1.3" style="fill:#0c4196"/><rect x="38.71" y="149.97" width="19.6" height="0.59" style="fill:#0c4196"/><rect x="38.71" y="149.38" width="19.6" height="0.59" style="fill:#0c4197"/><rect x="38.71" y="148.79" width="19.6" height="0.59" style="fill:#0b4298"/><rect x="38.71" y="148.2" width="19.6" height="0.59" style="fill:#0b4299"/><rect x="38.71" y="147.61" width="19.6" height="0.59" style="fill:#0a429a"/><rect x="38.71" y="147.02" width="19.6" height="0.59" style="fill:#0a439b"/><rect x="38.71" y="146.43" width="19.6" height="0.59" style="fill:#0a439c"/><rect x="38.71" y="145.85" width="19.6" height="0.59" style="fill:#09439d"/><rect x="38.71" y="145.26" width="19.6" height="0.59" style="fill:#09439e"/><rect x="38.71" y="144.67" width="19.6" height="0.59" style="fill:#08449f"/><rect x="38.71" y="144.08" width="19.6" height="0.59" style="fill:#0844a0"/><rect x="38.71" y="143.49" width="19.6" height="0.59" style="fill:#0844a1"/><rect x="38.71" y="142.9" width="19.6" height="0.59" style="fill:#0745a2"/><rect x="38.71" y="142.31" width="19.6" height="0.59" style="fill:#0745a3"/><rect x="38.71" y="141.73" width="19.6" height="0.59" style="fill:#0645a4"/><rect x="38.71" y="141.14" width="19.6" height="0.59" style="fill:#0646a6"/><rect x="38.71" y="140.55" width="19.6" height="0.59" style="fill:#0646a7"/><rect x="38.71" y="139.96" width="19.6" height="0.59" style="fill:#0546a8"/><rect x="38.71" y="139.37" width="19.6" height="0.59" style="fill:#0546a9"/><rect x="38.71" y="138.78" width="19.6" height="0.59" style="fill:#0447aa"/><rect x="38.71" y="138.19" width="19.6" height="0.59" style="fill:#0447ab"/><rect x="38.71" y="137.61" width="19.6" height="0.59" style="fill:#0447ac"/><rect x="38.71" y="137.02" width="19.6" height="0.59" style="fill:#0348ad"/><rect x="38.71" y="136.43" width="19.6" height="0.59" style="fill:#0348ae"/><rect x="38.71" y="135.84" width="19.6" height="0.59" style="fill:#0248af"/><rect x="38.71" y="135.25" width="19.6" height="0.59" style="fill:#0249b0"/><rect x="38.71" y="134.66" width="19.6" height="0.59" style="fill:#0249b1"/><rect x="38.71" y="134.07" width="19.6" height="0.59" style="fill:#0149b2"/><rect x="38.71" y="133.49" width="19.6" height="0.59" style="fill:#0149b3"/><rect x="38.71" y="132.9" width="19.6" height="0.59" style="fill:#004ab4"/><rect x="38.71" y="132.31" width="19.6" height="0.59" style="fill:#004ab5"/><rect x="38.71" y="131.85" width="19.6" height="0.46" style="fill:#004ab5"/></g><path d="M122,77.35l-5-.23c0-.19,0-.38,0-.58A30.26,30.26,0,0,0,86.85,46.22h-.34A30.25,30.25,0,0,0,56.38,76.53c0,.2,0,.4,0,.59l-5,.21c0-.26,0-.54,0-.81A35.25,35.25,0,0,1,86.5,41.22h.36A35.26,35.26,0,0,1,122,76.53C122,76.81,122,77.08,122,77.35Z" style="fill:#8dbbff"/><path d="M124.71,153.11a11.61,11.61,0,0,1-3-.4,11.91,11.91,0,0,1-7.15-5.43,11.45,11.45,0,0,1-1.62-5.63,11.88,11.88,0,0,1,5.58-10.28l.25-.16a11.49,11.49,0,0,1,12,.11l.5.31a11.57,11.57,0,0,1,3.59,3.83,11.75,11.75,0,0,1-4.22,16A11.42,11.42,0,0,1,124.71,153.11Zm-3.37-17.63-.13.09a6.88,6.88,0,0,0-3.3,6,6.46,6.46,0,0,0,.92,3.18,6.94,6.94,0,0,0,4.16,3.17,6.47,6.47,0,0,0,5-.7,6.75,6.75,0,0,0,2.47-9.2,6.65,6.65,0,0,0-2-2.16l-.35-.21A6.47,6.47,0,0,0,121.34,135.48Z" style="fill:#8dbbff"/><path d="M49.14,153.06A11.63,11.63,0,0,1,43,131.56l.52-.52h.43a11.6,11.6,0,0,1,15.24,4.55,11.64,11.64,0,0,1-10,17.47Zm-3.49-17.27a6.63,6.63,0,0,0,1.78,12,6.63,6.63,0,0,0,8.31-6.15h0a6.56,6.56,0,0,0-.89-3.57,6.6,6.6,0,0,0-9-2.41Z" style="fill:#8dbbff"/><path d="M161.74,87.59a11.66,11.66,0,0,1-5.05-1.15h0a11.63,11.63,0,0,1-.8-20.52l.38-.21a11.62,11.62,0,1,1,5.47,21.88Zm0-18.26a6.63,6.63,0,0,0-3.18.82l-.14.07a6.64,6.64,0,0,0-3.32,5.89,6.45,6.45,0,0,0,.89,3.18,6.54,6.54,0,0,0,2.84,2.64h0a6.63,6.63,0,1,0,2.91-12.6Z" style="fill:#8dbbff"/><path d="M11.64,88.7A11.63,11.63,0,1,1,17.73,87a3,3,0,0,1-.32.2A11.58,11.58,0,0,1,11.64,88.7Zm0-18.24a6.62,6.62,0,1,0,3.2,12.42l.22-.13a6.62,6.62,0,0,0-3.42-12.29Z" style="fill:#8dbbff"/><path d="M124.21,23.25a11.59,11.59,0,0,1-6.32-1.88h0a11.63,11.63,0,0,1,.51-19.78A11.62,11.62,0,0,1,130.5,21.41l-.35.23A11.78,11.78,0,0,1,124.21,23.25Zm-3.6-6.07a6.62,6.62,0,0,0,7,.17l.12-.08.1-.07a6.6,6.6,0,1,0-7.17,0Z" style="fill:#8dbbff"/><path d="M49.46,23.57a11.58,11.58,0,0,1-6.34-1.89h0A11.62,11.62,0,1,1,59.52,6.1a11.46,11.46,0,0,1,1.56,5.26A11.59,11.59,0,0,1,55.37,22l-.29.16A11.58,11.58,0,0,1,49.46,23.57Zm-3.6-6.08a6.58,6.58,0,0,0,6.87.21l.23-.13a6.61,6.61,0,0,0,3.13-6,6.46,6.46,0,0,0-.88-3,6.63,6.63,0,0,0-12.13,1.63,6.56,6.56,0,0,0,.68,5A6.63,6.63,0,0,0,45.86,17.49Z" style="fill:#8dbbff"/><rect x="119.84" y="73.76" width="32.45" height="5" transform="translate(-0.42 0.75) rotate(-0.31)" style="fill:#8dbbff"/><rect x="95.04" y="31.96" width="31" height="5" transform="translate(26.67 114.29) rotate(-60.9)" style="fill:#8dbbff"/><rect x="46.15" y="116.65" width="31.59" height="5" transform="translate(-72.22 113.22) rotate(-60)" style="fill:#8dbbff"/><rect x="59.19" y="18.06" width="5" height="31.33" transform="translate(-8.61 34.34) rotate(-29.17)" style="fill:#8dbbff"/><rect x="108.83" y="103.4" width="5" height="32.37" transform="translate(-46.24 76.39) rotate(-31.72)" style="fill:#8dbbff"/><rect x="22.3" y="74.55" width="29.82" height="5" style="fill:#8dbbff"/><path d="M86.86,111.83h-.18A35,35,0,0,1,56.3,94.62a35.65,35.65,0,0,1-4.91-17.33l5-.11A30.64,30.64,0,0,0,60.6,92.07a30,30,0,0,0,26.08,14.76h.47A30.22,30.22,0,0,0,117,77.18l5,.1A35.22,35.22,0,0,1,87.3,111.82Z" style="fill:#8dbbff"/><rect x="83.48" y="43.54" width="5" height="0.19" style="fill:#8dbbff"/><rect x="83.48" y="109.32" width="5" height="0.18" style="fill:#8dbbff"/><g style="clip-path:url(#h)"><rect x="71.68" y="61.55" width="0.94" height="30" style="fill:#28bbe4"/><rect x="72.62" y="61.55" width="0.94" height="30" style="fill:#27bce5"/><rect x="73.56" y="61.55" width="0.94" height="30" style="fill:#26bce6"/><rect x="74.5" y="61.55" width="0.94" height="30" style="fill:#25bde7"/><rect x="75.43" y="61.55" width="0.94" height="30" style="fill:#24bee7"/><rect x="76.37" y="61.55" width="0.94" height="30" style="fill:#23bfe8"/><rect x="77.31" y="61.55" width="0.94" height="30" style="fill:#22bfe9"/><rect x="78.25" y="61.55" width="0.94" height="30" style="fill:#21c0ea"/><rect x="79.18" y="61.55" width="0.94" height="30" style="fill:#20c1eb"/><rect x="80.12" y="61.55" width="0.94" height="30" style="fill:#1fc1ec"/><rect x="81.06" y="61.55" width="0.94" height="30" style="fill:#1ec2ed"/><rect x="82" y="61.55" width="0.94" height="30" style="fill:#1dc3ee"/><rect x="82.93" y="61.55" width="0.94" height="30" style="fill:#1cc4ee"/><rect x="83.87" y="61.55" width="0.94" height="30" style="fill:#1bc4ef"/><rect x="84.81" y="61.55" width="0.94" height="30" style="fill:#1ac5f0"/><rect x="85.75" y="61.55" width="0.94" height="30" style="fill:#19c6f1"/><rect x="86.68" y="61.55" width="0.94" height="30" style="fill:#17c6f2"/><rect x="87.62" y="61.55" width="0.94" height="30" style="fill:#16c7f3"/><rect x="88.56" y="61.55" width="0.94" height="30" style="fill:#15c8f4"/><rect x="89.5" y="61.55" width="0.94" height="30" style="fill:#14c8f5"/><rect x="90.43" y="61.55" width="0.94" height="30" style="fill:#13c9f5"/><rect x="91.37" y="61.55" width="0.94" height="30" style="fill:#12caf6"/><rect x="92.31" y="61.55" width="0.94" height="30" style="fill:#11cbf7"/><rect x="93.25" y="61.55" width="0.94" height="30" style="fill:#10cbf8"/><rect x="94.18" y="61.55" width="0.94" height="30" style="fill:#0fccf9"/><rect x="95.12" y="61.55" width="0.94" height="30" style="fill:#0ecdfa"/><rect x="96.06" y="61.55" width="0.94" height="30" style="fill:#0dcdfb"/><rect x="97" y="61.55" width="0.94" height="30" style="fill:#0ccefc"/><rect x="97.93" y="61.55" width="0.94" height="30" style="fill:#0bcffc"/><rect x="98.87" y="61.55" width="0.94" height="30" style="fill:#0ad0fd"/><rect x="99.81" y="61.55" width="0.94" height="30" style="fill:#09d0fe"/><rect x="100.75" y="61.55" width="0.94" height="30" style="fill:#08d1ff"/></g></svg>